<!--Copyright © 2026 Vacyyyy
All rights reserved. May not be reused in forks or derivatives without explicit permission-->
<svg width="3548" height="775" viewBox="0 0 3548 775" fill="none" xmlns="http://www.w3.org/2000/svg">
<rect width="3548" height="775" fill="#030303"/>
<path d="M790.489 86.584L786.537 84.776L799.993 56.856L803.913 58.664L790.489 86.584ZM805.725 58.664L809.677 56.856L823.101 84.776L819.149 86.584L805.725 58.664ZM824.912 58.664L828.864 56.856L842.288 84.776L838.336 86.584L824.912 58.664ZM3003.32 63.592V83H3000.16V63.592H2993.37V60.952H3010.22L3009.88 63.592H3003.32ZM3028.42 60.952L3029.66 83H3026.69L3026.06 71.816C3026.03 71.0267 3026 70.2427 3025.98 69.464C3025.96 68.6747 3025.95 67.9227 3025.94 67.208C3025.94 66.4933 3025.94 65.8427 3025.94 65.256C3025.95 64.6693 3025.96 64.184 3025.97 63.8L3022.45 79.08H3019.47L3015.7 63.8C3015.72 64.1733 3015.73 64.664 3015.74 65.272C3015.76 65.88 3015.78 66.552 3015.78 67.288C3015.79 68.024 3015.79 68.7813 3015.78 69.56C3015.76 70.3387 3015.75 71.0907 3015.73 71.816L3015.2 83H3012.29L3013.54 60.952H3017.65L3021.04 75.912L3024.27 60.952H3028.42ZM790.489 128.584L786.537 126.776L799.993 98.856L803.913 100.664L790.489 128.584ZM805.725 100.664L809.677 98.856L823.101 126.776L819.149 128.584L805.725 100.664ZM824.912 100.664L828.864 98.856L842.288 126.776L838.336 128.584L824.912 100.664ZM844.1 100.664L848.052 98.856L861.476 126.776L857.524 128.584L844.1 100.664ZM863.287 100.664L867.239 98.856L880.663 126.776L876.711 128.584L863.287 100.664ZM790.489 170.584L786.537 168.776L799.993 140.856L803.913 142.664L790.489 170.584ZM805.725 142.664L809.677 140.856L823.101 168.776L819.149 170.584L805.725 142.664ZM824.912 142.664L828.864 140.856L842.288 168.776L838.336 170.584L824.912 142.664ZM844.1 142.664L848.052 140.856L861.476 168.776L857.524 170.584L844.1 142.664ZM867.239 170.584L863.287 168.776L876.743 140.856L880.663 142.664L867.239 170.584ZM882.475 142.664L886.427 140.856L899.851 168.776L895.899 170.584L882.475 142.664ZM901.662 142.664L905.614 140.856L919.038 168.776L915.086 170.584L901.662 142.664ZM556.975 214.952V210.984H574.895V214.952H556.975ZM574.242 214.952V210.984H594.083V214.952H574.242ZM593.43 214.952V210.984H613.27V214.952H593.43ZM612.617 214.952V210.984H632.458V214.952H612.617ZM631.805 214.952V210.984H651.645V214.952H631.805ZM650.992 214.952V210.984H670.833V214.952H650.992ZM670.18 214.952V210.984H690.02V214.952H670.18ZM689.367 214.952V210.984H709.208V214.952H689.367ZM708.555 214.952V210.984H728.395V214.952H708.555ZM727.742 214.952V210.984H747.583V214.952H727.742ZM746.93 214.952V210.984H766.77V214.952H746.93ZM766.117 214.952V210.984H784.038V214.952H766.117ZM786.537 184.664L790.489 182.856L803.913 210.776L799.961 212.584L786.537 184.664ZM809.677 212.584L805.725 210.776L819.181 182.856L823.101 184.664L809.677 212.584ZM824.912 184.664L828.864 182.856L842.288 210.776L838.336 212.584L824.912 184.664ZM844.1 184.664L848.052 182.856L861.476 210.776L857.524 212.584L844.1 184.664ZM863.287 184.664L867.239 182.856L880.663 210.776L876.711 212.584L863.287 184.664ZM886.427 212.584L882.475 210.776L895.931 182.856L899.851 184.664L886.427 212.584ZM901.662 184.664L905.614 182.856L919.038 210.776L915.086 212.584L901.662 184.664ZM920.85 184.664L924.802 182.856L938.226 210.776L934.274 212.584L920.85 184.664ZM940.725 214.952V210.984H958.645V214.952H940.725ZM957.992 214.952V210.984H977.833V214.952H957.992ZM977.18 214.952V210.984H997.02V214.952H977.18ZM996.367 214.952V210.984H1016.21V214.952H996.367ZM1015.55 214.952V210.984H1035.4V214.952H1015.55ZM1034.74 214.952V210.984H1054.58V214.952H1034.74ZM1053.93 214.952V210.984H1073.77V214.952H1053.93ZM1073.12 214.952V210.984H1092.96V214.952H1073.12ZM1092.3 214.952V210.984H1112.15V214.952H1092.3ZM1111.49 214.952V210.984H1131.33V214.952H1111.49ZM1130.68 214.952V210.984H1150.52V214.952H1130.68ZM1149.87 214.952V210.984H1167.79V214.952H1149.87ZM1174.24 212.584L1170.29 210.776L1183.74 182.856L1187.66 184.664L1174.24 212.584ZM1189.47 184.664L1193.43 182.856L1206.85 210.776L1202.9 212.584L1189.47 184.664ZM1208.66 184.664L1212.61 182.856L1226.04 210.776L1222.09 212.584L1208.66 184.664ZM1227.85 184.664L1231.8 182.856L1245.23 210.776L1241.27 212.584L1227.85 184.664ZM1247.04 184.664L1250.99 182.856L1264.41 210.776L1260.46 212.584L1247.04 184.664ZM1266.22 184.664L1270.18 182.856L1283.6 210.776L1279.65 212.584L1266.22 184.664ZM1285.41 184.664L1289.36 182.856L1302.79 210.776L1298.84 212.584L1285.41 184.664ZM1304.6 184.664L1308.55 182.856L1321.98 210.776L1318.02 212.584L1304.6 184.664ZM1323.79 184.664L1327.74 182.856L1341.16 210.776L1337.21 212.584L1323.79 184.664ZM1342.97 184.664L1346.93 182.856L1360.35 210.776L1356.4 212.584L1342.97 184.664ZM1362.16 184.664L1366.11 182.856L1379.54 210.776L1375.59 212.584L1362.16 184.664ZM1381.35 184.664L1385.3 182.856L1398.73 210.776L1394.77 212.584L1381.35 184.664ZM1400.54 184.664L1404.49 182.856L1417.91 210.776L1413.96 212.584L1400.54 184.664ZM1420.41 214.952V210.984H1438.33V214.952H1420.41ZM1437.68 214.952V210.984H1457.52V214.952H1437.68ZM1456.87 214.952V210.984H1476.71V214.952H1456.87ZM1476.05 214.952V210.984H1495.9V214.952H1476.05ZM1495.24 214.952V210.984H1515.08V214.952H1495.24ZM1514.43 214.952V210.984H1534.27V214.952H1514.43ZM1533.62 214.952V210.984H1553.46V214.952H1533.62ZM1552.8 214.952V210.984H1572.65V214.952H1552.8ZM1571.99 214.952V210.984H1591.83V214.952H1571.99ZM1591.18 214.952V210.984H1611.02V214.952H1591.18ZM1610.37 214.952V210.984H1630.21V214.952H1610.37ZM1629.55 214.952V210.984H1649.4V214.952H1629.55ZM1648.74 214.952V210.984H1668.58V214.952H1648.74ZM1667.93 214.952V210.984H1687.77V214.952H1667.93ZM1687.12 214.952V210.984H1706.96V214.952H1687.12ZM1706.3 214.952V210.984H1726.15V214.952H1706.3ZM1725.49 214.952V210.984H1745.33V214.952H1725.49ZM1744.68 214.952V210.984H1764.52V214.952H1744.68ZM1763.87 214.952V210.984H1783.71V214.952H1763.87ZM1783.05 214.952V210.984H1802.9V214.952H1783.05ZM1802.24 214.952V210.984H1822.08V214.952H1802.24ZM1821.43 214.952V210.984H1841.27V214.952H1821.43ZM1840.62 214.952V210.984H1860.46V214.952H1840.62ZM1859.8 214.952V210.984H1879.65V214.952H1859.8ZM1878.99 214.952V210.984H1898.83V214.952H1878.99ZM1898.18 214.952V210.984H1918.02V214.952H1898.18ZM1917.37 214.952V210.984H1937.21V214.952H1917.37ZM1936.55 214.952V210.984H1956.4V214.952H1936.55ZM1955.74 214.952V210.984H1975.58V214.952H1955.74ZM1974.93 214.952V210.984H1994.77V214.952H1974.93ZM1994.12 214.952V210.984H2013.96V214.952H1994.12ZM2013.3 214.952V210.984H2033.15V214.952H2013.3ZM2032.49 214.952V210.984H2052.33V214.952H2032.49ZM2051.68 214.952V210.984H2071.52V214.952H2051.68ZM2070.87 214.952V210.984H2090.71V214.952H2070.87ZM2090.05 214.952V210.984H2109.9V214.952H2090.05ZM2109.24 214.952V210.984H2129.08V214.952H2109.24ZM2128.43 214.952V210.984H2148.27V214.952H2128.43ZM2147.62 214.952V210.984H2167.46V214.952H2147.62ZM2166.8 214.952V210.984H2186.65V214.952H2166.8ZM2185.99 214.952V210.984H2205.83V214.952H2185.99ZM2205.18 214.952V210.984H2225.02V214.952H2205.18ZM2224.37 214.952V210.984H2244.21V214.952H2224.37ZM2243.55 214.952V210.984H2263.4V214.952H2243.55ZM2262.74 214.952V210.984H2282.58V214.952H2262.74ZM2281.93 214.952V210.984H2301.77V214.952H2281.93ZM2301.12 214.952V210.984H2320.96V214.952H2301.12ZM2320.3 214.952V210.984H2340.15V214.952H2320.3ZM2339.49 214.952V210.984H2359.33V214.952H2339.49ZM2358.68 214.952V210.984H2378.52V214.952H2358.68ZM2377.87 214.952V210.984H2397.71V214.952H2377.87ZM2397.05 214.952V210.984H2416.9V214.952H2397.05ZM2416.24 214.952V210.984H2436.08V214.952H2416.24ZM2435.43 214.952V210.984H2455.27V214.952H2435.43ZM2454.62 214.952V210.984H2474.46V214.952H2454.62ZM2473.8 214.952V210.984H2493.65V214.952H2473.8ZM2492.99 214.952V210.984H2512.83V214.952H2492.99ZM2512.18 214.952V210.984H2532.02V214.952H2512.18ZM2531.37 214.952V210.984H2551.21V214.952H2531.37ZM2550.55 214.952V210.984H2570.4V214.952H2550.55ZM2569.74 214.952V210.984H2589.58V214.952H2569.74ZM2588.93 214.952V210.984H2608.77V214.952H2588.93ZM2608.12 214.952V210.984H2627.96V214.952H2608.12ZM2627.3 214.952V210.984H2647.15V214.952H2627.3ZM2646.49 214.952V210.984H2666.33V214.952H2646.49ZM2665.68 214.952V210.984H2685.52V214.952H2665.68ZM2684.87 214.952V210.984H2704.71V214.952H2684.87ZM2704.05 214.952V210.984H2723.9V214.952H2704.05ZM2723.24 214.952V210.984H2743.08V214.952H2723.24ZM2742.43 214.952V210.984H2762.27V214.952H2742.43ZM2761.62 214.952V210.984H2781.46V214.952H2761.62ZM2780.8 214.952V210.984H2800.65V214.952H2780.8ZM2799.99 214.952V210.984H2819.83V214.952H2799.99ZM2819.18 214.952V210.984H2837.1V214.952H2819.18ZM556.287 226.664L560.239 224.856L573.663 252.776L569.711 254.584L556.287 226.664ZM576.163 256.952V252.984H594.083V256.952H576.163ZM593.43 256.952V252.984H613.27V256.952H593.43ZM612.617 256.952V252.984H632.458V256.952H612.617ZM631.805 256.952V252.984H651.645V256.952H631.805ZM650.992 256.952V252.984H670.833V256.952H650.992ZM670.18 256.952V252.984H690.02V256.952H670.18ZM689.367 256.952V252.984H709.208V256.952H689.367ZM708.555 256.952V252.984H728.395V256.952H708.555ZM727.742 256.952V252.984H747.583V256.952H727.742ZM746.93 256.952V252.984H766.77V256.952H746.93ZM766.117 256.952V252.984H784.038V256.952H766.117ZM786.537 226.664L790.489 224.856L803.913 252.776L799.961 254.584L786.537 226.664ZM809.677 254.584L805.725 252.776L819.181 224.856L823.101 226.664L809.677 254.584ZM824.912 226.664L828.864 224.856L842.288 252.776L838.336 254.584L824.912 226.664ZM844.1 226.664L848.052 224.856L861.476 252.776L857.524 254.584L844.1 226.664ZM867.239 254.584L863.287 252.776L876.743 224.856L880.663 226.664L867.239 254.584ZM882.475 226.664L886.427 224.856L899.851 252.776L895.899 254.584L882.475 226.664ZM901.662 226.664L905.614 224.856L919.038 252.776L915.086 254.584L901.662 226.664ZM921.538 256.952V252.984H939.458V256.952H921.538ZM938.805 256.952V252.984H958.645V256.952H938.805ZM957.992 256.952V252.984H977.833V256.952H957.992ZM977.18 256.952V252.984H997.02V256.952H977.18ZM996.367 256.952V252.984H1016.21V256.952H996.367ZM1015.55 256.952V252.984H1035.4V256.952H1015.55ZM1034.74 256.952V252.984H1054.58V256.952H1034.74ZM1053.93 256.952V252.984H1073.77V256.952H1053.93ZM1073.12 256.952V252.984H1092.96V256.952H1073.12ZM1092.3 256.952V252.984H1112.15V256.952H1092.3ZM1111.49 256.952V252.984H1131.33V256.952H1111.49ZM1130.68 256.952V252.984H1148.6V256.952H1130.68ZM1155.05 254.584L1151.1 252.776L1164.56 224.856L1168.48 226.664L1155.05 254.584ZM1170.29 226.664L1174.24 224.856L1187.66 252.776L1183.71 254.584L1170.29 226.664ZM1189.47 226.664L1193.43 224.856L1206.85 252.776L1202.9 254.584L1189.47 226.664ZM1208.66 226.664L1212.61 224.856L1226.04 252.776L1222.09 254.584L1208.66 226.664ZM1227.85 226.664L1231.8 224.856L1245.23 252.776L1241.27 254.584L1227.85 226.664ZM1250.99 254.584L1247.04 252.776L1260.49 224.856L1264.41 226.664L1250.99 254.584ZM1270.18 254.584L1266.22 252.776L1279.68 224.856L1283.6 226.664L1270.18 254.584ZM1289.36 254.584L1285.41 252.776L1298.87 224.856L1302.79 226.664L1289.36 254.584ZM1308.55 254.584L1304.6 252.776L1318.06 224.856L1321.98 226.664L1308.55 254.584ZM1327.74 254.584L1323.79 252.776L1337.24 224.856L1341.16 226.664L1327.74 254.584ZM1346.93 254.584L1342.97 252.776L1356.43 224.856L1360.35 226.664L1346.93 254.584ZM1366.11 254.584L1362.16 252.776L1375.62 224.856L1379.54 226.664L1366.11 254.584ZM1385.3 254.584L1381.35 252.776L1394.81 224.856L1398.73 226.664L1385.3 254.584ZM1400.54 226.664L1404.49 224.856L1417.91 252.776L1413.96 254.584L1400.54 226.664ZM1419.72 226.664L1423.68 224.856L1437.1 252.776L1433.15 254.584L1419.72 226.664ZM1438.91 226.664L1442.86 224.856L1456.29 252.776L1452.34 254.584L1438.91 226.664ZM1458.79 256.952V252.984H1476.71V256.952H1458.79ZM1476.05 256.952V252.984H1495.9V256.952H1476.05ZM1495.24 256.952V252.984H1515.08V256.952H1495.24ZM1514.43 256.952V252.984H1534.27V256.952H1514.43ZM1533.62 256.952V252.984H1553.46V256.952H1533.62ZM1552.8 256.952V252.984H1572.65V256.952H1552.8ZM1571.99 256.952V252.984H1591.83V256.952H1571.99ZM1591.18 256.952V252.984H1611.02V256.952H1591.18ZM1610.37 256.952V252.984H1630.21V256.952H1610.37ZM1629.55 256.952V252.984H1649.4V256.952H1629.55ZM1648.74 256.952V252.984H1668.58V256.952H1648.74ZM1667.93 256.952V252.984H1687.77V256.952H1667.93ZM1687.12 256.952V252.984H1706.96V256.952H1687.12ZM1706.3 256.952V252.984H1726.15V256.952H1706.3ZM1725.49 256.952V252.984H1745.33V256.952H1725.49ZM1744.68 256.952V252.984H1764.52V256.952H1744.68ZM1763.87 256.952V252.984H1783.71V256.952H1763.87ZM1783.05 256.952V252.984H1802.9V256.952H1783.05ZM1802.24 256.952V252.984H1822.08V256.952H1802.24ZM1821.43 256.952V252.984H1841.27V256.952H1821.43ZM1840.62 256.952V252.984H1860.46V256.952H1840.62ZM1859.8 256.952V252.984H1879.65V256.952H1859.8ZM1878.99 256.952V252.984H1898.83V256.952H1878.99ZM1898.18 256.952V252.984H1918.02V256.952H1898.18ZM1917.37 256.952V252.984H1937.21V256.952H1917.37ZM1936.55 256.952V252.984H1956.4V256.952H1936.55ZM1955.74 256.952V252.984H1975.58V256.952H1955.74ZM1974.93 256.952V252.984H1994.77V256.952H1974.93ZM1994.12 256.952V252.984H2013.96V256.952H1994.12ZM2013.3 256.952V252.984H2033.15V256.952H2013.3ZM2032.49 256.952V252.984H2052.33V256.952H2032.49ZM2051.68 256.952V252.984H2071.52V256.952H2051.68ZM2070.87 256.952V252.984H2090.71V256.952H2070.87ZM2090.05 256.952V252.984H2109.9V256.952H2090.05ZM2109.24 256.952V252.984H2129.08V256.952H2109.24ZM2128.43 256.952V252.984H2148.27V256.952H2128.43ZM2147.62 256.952V252.984H2167.46V256.952H2147.62ZM2166.8 256.952V252.984H2186.65V256.952H2166.8ZM2185.99 256.952V252.984H2205.83V256.952H2185.99ZM2205.18 256.952V252.984H2225.02V256.952H2205.18ZM2224.37 256.952V252.984H2244.21V256.952H2224.37ZM2243.55 256.952V252.984H2263.4V256.952H2243.55ZM2262.74 256.952V252.984H2282.58V256.952H2262.74ZM2281.93 256.952V252.984H2301.77V256.952H2281.93ZM2301.12 256.952V252.984H2320.96V256.952H2301.12ZM2320.3 256.952V252.984H2340.15V256.952H2320.3ZM2339.49 256.952V252.984H2359.33V256.952H2339.49ZM2358.68 256.952V252.984H2378.52V256.952H2358.68ZM2377.87 256.952V252.984H2397.71V256.952H2377.87ZM2397.05 256.952V252.984H2416.9V256.952H2397.05ZM2416.24 256.952V252.984H2436.08V256.952H2416.24ZM2435.43 256.952V252.984H2455.27V256.952H2435.43ZM2454.62 256.952V252.984H2474.46V256.952H2454.62ZM2473.8 256.952V252.984H2493.65V256.952H2473.8ZM2492.99 256.952V252.984H2512.83V256.952H2492.99ZM2512.18 256.952V252.984H2532.02V256.952H2512.18ZM2531.37 256.952V252.984H2551.21V256.952H2531.37ZM2550.55 256.952V252.984H2570.4V256.952H2550.55ZM2569.74 256.952V252.984H2589.58V256.952H2569.74ZM2588.93 256.952V252.984H2608.77V256.952H2588.93ZM2608.12 256.952V252.984H2627.96V256.952H2608.12ZM2627.3 256.952V252.984H2647.15V256.952H2627.3ZM2646.49 256.952V252.984H2666.33V256.952H2646.49ZM2665.68 256.952V252.984H2685.52V256.952H2665.68ZM2684.87 256.952V252.984H2704.71V256.952H2684.87ZM2704.05 256.952V252.984H2723.9V256.952H2704.05ZM2723.24 256.952V252.984H2743.08V256.952H2723.24ZM2742.43 256.952V252.984H2762.27V256.952H2742.43ZM2761.62 256.952V252.984H2781.46V256.952H2761.62ZM2780.8 256.952V252.984H2800.65V256.952H2780.8ZM2799.99 256.952V252.984H2819.83V256.952H2799.99ZM2819.18 256.952V252.984H2837.1V256.952H2819.18ZM2839.6 226.664L2843.55 224.856L2856.98 252.776L2853.02 254.584L2839.6 226.664ZM575.475 268.664L579.427 266.856L592.851 294.776L588.899 296.584L575.475 268.664ZM595.35 298.952V294.984H613.27V298.952H595.35ZM612.617 298.952V294.984H632.458V298.952H612.617ZM631.805 298.952V294.984H651.645V298.952H631.805ZM650.992 298.952V294.984H670.833V298.952H650.992ZM670.18 298.952V294.984H690.02V298.952H670.18ZM689.367 298.952V294.984H709.208V298.952H689.367ZM708.555 298.952V294.984H728.395V298.952H708.555ZM727.742 298.952V294.984H747.583V298.952H727.742ZM746.93 298.952V294.984H766.77V298.952H746.93ZM766.117 298.952V294.984H784.038V298.952H766.117ZM790.489 296.584L786.537 294.776L799.993 266.856L803.913 268.664L790.489 296.584ZM805.725 268.664L809.677 266.856L823.101 294.776L819.149 296.584L805.725 268.664ZM824.912 268.664L828.864 266.856L842.288 294.776L838.336 296.584L824.912 268.664ZM844.1 268.664L848.052 266.856L861.476 294.776L857.524 296.584L844.1 268.664ZM863.287 268.664L867.239 266.856L880.663 294.776L876.711 296.584L863.287 268.664ZM882.475 268.664L886.427 266.856L899.851 294.776L895.899 296.584L882.475 268.664ZM905.614 296.584L901.662 294.776L915.118 266.856L919.038 268.664L905.614 296.584ZM921.538 298.952V294.984H939.458V298.952H921.538ZM938.805 298.952V294.984H958.645V298.952H938.805ZM957.992 298.952V294.984H977.833V298.952H957.992ZM977.18 298.952V294.984H997.02V298.952H977.18ZM996.367 298.952V294.984H1016.21V298.952H996.367ZM1015.55 298.952V294.984H1035.4V298.952H1015.55ZM1034.74 298.952V294.984H1054.58V298.952H1034.74ZM1053.93 298.952V294.984H1073.77V298.952H1053.93ZM1073.12 298.952V294.984H1092.96V298.952H1073.12ZM1092.3 298.952V294.984H1112.15V298.952H1092.3ZM1111.49 298.952V294.984H1131.33V298.952H1111.49ZM1130.68 298.952V294.984H1148.6V298.952H1130.68ZM1151.1 268.664L1155.05 266.856L1168.48 294.776L1164.52 296.584L1151.1 268.664ZM1175.83 296.584L1171.87 294.776L1185.33 266.856L1189.25 268.664L1175.83 296.584ZM1191.83 296.584L1187.87 294.776L1201.33 266.856L1205.25 268.664L1191.83 296.584ZM1208.66 268.664L1212.61 266.856L1226.04 294.776L1222.09 296.584L1208.66 268.664ZM1227.85 268.664L1231.8 266.856L1245.23 294.776L1241.27 296.584L1227.85 268.664ZM1247.04 268.664L1250.99 266.856L1264.41 294.776L1260.46 296.584L1247.04 268.664ZM1266.22 268.664L1270.18 266.856L1283.6 294.776L1279.65 296.584L1266.22 268.664ZM1286.1 298.952V294.984H1304.02V298.952H1286.1ZM1303.37 298.952V294.984H1323.21V298.952H1303.37ZM1322.55 298.952V294.984H1342.4V298.952H1322.55ZM1341.74 298.952V294.984H1361.58V298.952H1341.74ZM1360.93 298.952V294.984H1378.85V298.952H1360.93ZM1381.35 268.664L1385.3 266.856L1398.73 294.776L1394.77 296.584L1381.35 268.664ZM1439.66 296.584L1435.71 294.776L1449.17 266.856L1453.09 268.664L1439.66 296.584ZM1407.66 296.584L1403.71 294.776L1417.17 266.856L1421.09 268.664L1407.66 296.584ZM1423.66 296.584L1419.71 294.776L1433.17 266.856L1437.09 268.664L1423.66 296.584ZM1458.79 298.952V294.984H1476.71V298.952H1458.79ZM1476.05 298.952V294.984H1495.9V298.952H1476.05ZM1495.24 298.952V294.984H1513.16V298.952H1495.24ZM1519.61 296.584L1515.66 294.776L1529.12 266.856L1533.04 268.664L1519.61 296.584ZM1534.85 268.664L1538.8 266.856L1552.23 294.776L1548.27 296.584L1534.85 268.664ZM1554.04 268.664L1557.99 266.856L1571.41 294.776L1567.46 296.584L1554.04 268.664ZM1573.22 268.664L1577.18 266.856L1590.6 294.776L1586.65 296.584L1573.22 268.664ZM1592.41 268.664L1596.36 266.856L1609.79 294.776L1605.84 296.584L1592.41 268.664ZM1611.6 268.664L1615.55 266.856L1628.98 294.776L1625.02 296.584L1611.6 268.664ZM1630.79 268.664L1634.74 266.856L1648.16 294.776L1644.21 296.584L1630.79 268.664ZM1649.97 268.664L1653.93 266.856L1667.35 294.776L1663.4 296.584L1649.97 268.664ZM1669.16 268.664L1673.11 266.856L1686.54 294.776L1682.59 296.584L1669.16 268.664ZM1688.35 268.664L1692.3 266.856L1705.73 294.776L1701.77 296.584L1688.35 268.664ZM1708.23 298.952V294.984H1726.15V298.952H1708.23ZM1725.49 298.952V294.984H1745.33V298.952H1725.49ZM1744.68 298.952V294.984H1762.6V298.952H1744.68ZM1769.05 296.584L1765.1 294.776L1778.56 266.856L1782.48 268.664L1769.05 296.584ZM1784.29 268.664L1788.24 266.856L1801.66 294.776L1797.71 296.584L1784.29 268.664ZM1803.47 268.664L1807.43 266.856L1820.85 294.776L1816.9 296.584L1803.47 268.664ZM1822.66 268.664L1826.61 266.856L1840.04 294.776L1836.09 296.584L1822.66 268.664ZM1842.54 298.952V294.984H1860.46V298.952H1842.54ZM1859.8 298.952V294.984H1877.73V298.952H1859.8ZM1884.18 296.584L1880.22 294.776L1893.68 266.856L1897.6 268.664L1884.18 296.584ZM1899.41 268.664L1903.36 266.856L1916.79 294.776L1912.84 296.584L1899.41 268.664ZM1918.6 268.664L1922.55 266.856L1935.98 294.776L1932.02 296.584L1918.6 268.664ZM1937.79 268.664L1941.74 266.856L1955.16 294.776L1951.21 296.584L1937.79 268.664ZM1957.66 298.952V294.984H1973.66V298.952H1957.66ZM1980.11 296.584L1976.16 294.776L1989.62 266.856L1993.54 268.664L1980.11 296.584ZM1995.35 268.664L1999.3 266.856L2012.73 294.776L2008.77 296.584L1995.35 268.664ZM2014.54 268.664L2018.49 266.856L2031.91 294.776L2027.96 296.584L2014.54 268.664ZM2037.68 296.584L2033.72 294.776L2047.18 266.856L2051.1 268.664L2037.68 296.584ZM2052.91 268.664L2056.86 266.856L2070.29 294.776L2066.34 296.584L2052.91 268.664ZM2072.1 268.664L2076.05 266.856L2089.48 294.776L2085.52 296.584L2072.1 268.664ZM2091.29 268.664L2095.24 266.856L2108.66 294.776L2104.71 296.584L2091.29 268.664ZM2110.47 268.664L2114.43 266.856L2127.85 294.776L2123.9 296.584L2110.47 268.664ZM2129.66 268.664L2133.61 266.856L2147.04 294.776L2143.09 296.584L2129.66 268.664ZM2148.85 268.664L2152.8 266.856L2166.23 294.776L2162.27 296.584L2148.85 268.664ZM2168.73 298.952V294.984H2186.65V298.952H2168.73ZM2185.99 298.952V294.984H2205.83V298.952H2185.99ZM2205.18 298.952V294.984H2225.02V298.952H2205.18ZM2224.37 298.952V294.984H2242.29V298.952H2224.37ZM2248.74 296.584L2244.79 294.776L2258.24 266.856L2262.16 268.664L2248.74 296.584ZM2263.97 268.664L2267.93 266.856L2281.35 294.776L2277.4 296.584L2263.97 268.664ZM2283.16 268.664L2287.11 266.856L2300.54 294.776L2296.59 296.584L2283.16 268.664ZM2306.3 296.584L2302.35 294.776L2315.81 266.856L2319.73 268.664L2306.3 296.584ZM2321.54 268.664L2325.49 266.856L2338.91 294.776L2334.96 296.584L2321.54 268.664ZM2340.72 268.664L2344.68 266.856L2358.1 294.776L2354.15 296.584L2340.72 268.664ZM2359.91 268.664L2363.86 266.856L2377.29 294.776L2373.34 296.584L2359.91 268.664ZM2379.1 268.664L2383.05 266.856L2396.48 294.776L2392.52 296.584L2379.1 268.664ZM2398.29 268.664L2402.24 266.856L2415.66 294.776L2411.71 296.584L2398.29 268.664ZM2417.47 268.664L2421.43 266.856L2434.85 294.776L2430.9 296.584L2417.47 268.664ZM2437.35 298.952V294.984H2455.27V298.952H2437.35ZM2454.62 298.952V294.984H2474.46V298.952H2454.62ZM2473.8 298.952V294.984H2493.65V298.952H2473.8ZM2492.99 298.952V294.984H2510.91V298.952H2492.99ZM2517.36 296.584L2513.41 294.776L2526.87 266.856L2530.79 268.664L2517.36 296.584ZM2532.6 268.664L2536.55 266.856L2549.98 294.776L2546.02 296.584L2532.6 268.664ZM2551.79 268.664L2555.74 266.856L2569.16 294.776L2565.21 296.584L2551.79 268.664ZM2574.93 296.584L2570.97 294.776L2584.43 266.856L2588.35 268.664L2574.93 296.584ZM2590.16 268.664L2594.11 266.856L2607.54 294.776L2603.59 296.584L2590.16 268.664ZM2609.35 268.664L2613.3 266.856L2626.73 294.776L2622.77 296.584L2609.35 268.664ZM2628.54 268.664L2632.49 266.856L2645.91 294.776L2641.96 296.584L2628.54 268.664ZM2647.72 268.664L2651.68 266.856L2665.1 294.776L2661.15 296.584L2647.72 268.664ZM2666.91 268.664L2670.86 266.856L2684.29 294.776L2680.34 296.584L2666.91 268.664ZM2686.1 268.664L2690.05 266.856L2703.48 294.776L2699.52 296.584L2686.1 268.664ZM2705.98 298.952V294.984H2723.9V298.952H2705.98ZM2723.24 298.952V294.984H2743.08V298.952H2723.24ZM2742.43 298.952V294.984H2762.27V298.952H2742.43ZM2761.62 298.952V294.984H2781.46V298.952H2761.62ZM2780.8 298.952V294.984H2800.65V298.952H2780.8ZM2799.99 298.952V294.984H2819.83V298.952H2799.99ZM2819.18 298.952V294.984H2839.02V298.952H2819.18ZM2838.37 298.952V294.984H2856.29V298.952H2838.37ZM2858.79 268.664L2862.74 266.856L2876.16 294.776L2872.21 296.584L2858.79 268.664ZM594.662 310.664L598.614 308.856L612.038 336.776L608.086 338.584L594.662 310.664ZM614.538 340.952V336.984H632.458V340.952H614.538ZM631.805 340.952V336.984H651.645V340.952H631.805ZM650.992 340.952V336.984H670.833V340.952H650.992ZM670.18 340.952V336.984H690.02V340.952H670.18ZM689.367 340.952V336.984H709.208V340.952H689.367ZM708.555 340.952V336.984H728.395V340.952H708.555ZM727.742 340.952V336.984H745.663V340.952H727.742ZM752.114 338.584L748.162 336.776L761.618 308.856L765.538 310.664L752.114 338.584ZM767.35 310.664L771.302 308.856L784.726 336.776L780.774 338.584L767.35 310.664ZM786.537 310.664L790.489 308.856L803.913 336.776L799.961 338.584L786.537 310.664ZM805.725 310.664L809.677 308.856L823.101 336.776L819.149 338.584L805.725 310.664ZM824.912 310.664L828.864 308.856L842.288 336.776L838.336 338.584L824.912 310.664ZM844.1 310.664L848.052 308.856L861.476 336.776L857.524 338.584L844.1 310.664ZM863.287 310.664L867.239 308.856L880.663 336.776L876.711 338.584L863.287 310.664ZM882.475 310.664L886.427 308.856L899.851 336.776L895.899 338.584L882.475 310.664ZM902.35 340.952V336.984H920.27V340.952H902.35ZM919.617 340.952V336.984H939.458V340.952H919.617ZM938.805 340.952V336.984H958.645V340.952H938.805ZM957.992 340.952V336.984H977.833V340.952H957.992ZM977.18 340.952V336.984H997.02V340.952H977.18ZM996.367 340.952V336.984H1016.21V340.952H996.367ZM1015.55 340.952V336.984H1035.4V340.952H1015.55ZM1034.74 340.952V336.984H1054.58V340.952H1034.74ZM1053.93 340.952V336.984H1073.77V340.952H1053.93ZM1073.12 340.952V336.984H1092.96V340.952H1073.12ZM1092.3 340.952V336.984H1112.15V340.952H1092.3ZM1111.49 340.952V336.984H1131.33V340.952H1111.49ZM1130.68 340.952V336.984H1150.52V340.952H1130.68ZM1149.87 340.952V336.984H1169.71V340.952H1149.87ZM1169.05 340.952V336.984H1186.98V340.952H1169.05ZM1189.47 310.664L1193.43 308.856L1206.85 336.776L1202.9 338.584L1189.47 310.664ZM1214.2 338.584L1210.25 336.776L1223.71 308.856L1227.63 310.664L1214.2 338.584ZM1230.2 338.584L1226.25 336.776L1239.71 308.856L1243.63 310.664L1230.2 338.584ZM1247.04 310.664L1250.99 308.856L1264.41 336.776L1260.46 338.584L1247.04 310.664ZM1266.22 310.664L1270.18 308.856L1283.6 336.776L1279.65 338.584L1266.22 310.664ZM1285.41 310.664L1289.36 308.856L1302.79 336.776L1298.84 338.584L1285.41 310.664ZM1304.6 310.664L1308.55 308.856L1321.98 336.776L1318.02 338.584L1304.6 310.664ZM1323.79 310.664L1327.74 308.856L1341.16 336.776L1337.21 338.584L1323.79 310.664ZM1343.66 340.952V336.984H1361.58V340.952H1343.66ZM1360.93 340.952V336.984H1380.77V340.952H1360.93ZM1380.12 340.952V336.984H1399.96V340.952H1380.12ZM1399.3 340.952V336.984H1419.15V340.952H1399.3ZM1418.49 340.952V336.984H1438.33V340.952H1418.49ZM1437.68 340.952V336.984H1457.52V340.952H1437.68ZM1456.87 340.952V336.984H1476.71V340.952H1456.87ZM1476.05 340.952V336.984H1495.9V340.952H1476.05ZM1495.24 340.952V336.984H1513.16V340.952H1495.24ZM1519.61 338.584L1515.66 336.776L1529.12 308.856L1533.04 310.664L1519.61 338.584ZM1534.85 310.664L1538.8 308.856L1552.23 336.776L1548.27 338.584L1534.85 310.664ZM1554.04 310.664L1557.99 308.856L1571.41 336.776L1567.46 338.584L1554.04 310.664ZM1573.22 310.664L1577.18 308.856L1590.6 336.776L1586.65 338.584L1573.22 310.664ZM1596.36 338.584L1592.41 336.776L1605.87 308.856L1609.79 310.664L1596.36 338.584ZM1615.55 338.584L1611.6 336.776L1625.06 308.856L1628.98 310.664L1615.55 338.584ZM1634.74 338.584L1630.79 336.776L1644.24 308.856L1648.16 310.664L1634.74 338.584ZM1653.93 338.584L1649.97 336.776L1663.43 308.856L1667.35 310.664L1653.93 338.584ZM1673.11 338.584L1669.16 336.776L1682.62 308.856L1686.54 310.664L1673.11 338.584ZM1688.35 310.664L1692.3 308.856L1705.73 336.776L1701.77 338.584L1688.35 310.664ZM1707.54 310.664L1711.49 308.856L1724.91 336.776L1720.96 338.584L1707.54 310.664ZM1726.72 310.664L1730.68 308.856L1744.1 336.776L1740.15 338.584L1726.72 310.664ZM1746.6 340.952V336.984H1762.6V340.952H1746.6ZM1765.1 310.664L1769.05 308.856L1782.48 336.776L1778.52 338.584L1765.1 310.664ZM1789.83 338.584L1785.87 336.776L1799.33 308.856L1803.25 310.664L1789.83 338.584ZM1805.83 338.584L1801.87 336.776L1815.33 308.856L1819.25 310.664L1805.83 338.584ZM1822.66 310.664L1826.61 308.856L1840.04 336.776L1836.09 338.584L1822.66 310.664ZM1841.85 310.664L1845.8 308.856L1859.23 336.776L1855.27 338.584L1841.85 310.664ZM1861.04 310.664L1864.99 308.856L1878.41 336.776L1874.46 338.584L1861.04 310.664ZM1884.18 338.584L1880.22 336.776L1893.68 308.856L1897.6 310.664L1884.18 338.584ZM1899.41 310.664L1903.36 308.856L1916.79 336.776L1912.84 338.584L1899.41 310.664ZM1918.6 310.664L1922.55 308.856L1935.98 336.776L1932.02 338.584L1918.6 310.664ZM1937.79 310.664L1941.74 308.856L1955.16 336.776L1951.21 338.584L1937.79 310.664ZM1957.66 340.952V336.984H1973.66V340.952H1957.66ZM1976.16 310.664L1980.11 308.856L1993.54 336.776L1989.59 338.584L1976.16 310.664ZM1999.3 338.584L1995.35 336.776L2008.81 308.856L2012.73 310.664L1999.3 338.584ZM2014.54 310.664L2018.49 308.856L2031.91 336.776L2027.96 338.584L2014.54 310.664ZM2033.72 310.664L2037.68 308.856L2051.1 336.776L2047.15 338.584L2033.72 310.664ZM2052.91 310.664L2056.86 308.856L2070.29 336.776L2066.34 338.584L2052.91 310.664ZM2076.05 338.584L2072.1 336.776L2085.56 308.856L2089.48 310.664L2076.05 338.584ZM2095.24 338.584L2091.29 336.776L2104.74 308.856L2108.66 310.664L2095.24 338.584ZM2114.43 338.584L2110.47 336.776L2123.93 308.856L2127.85 310.664L2114.43 338.584ZM2133.61 338.584L2129.66 336.776L2143.12 308.856L2147.04 310.664L2133.61 338.584ZM2148.85 310.664L2152.8 308.856L2166.23 336.776L2162.27 338.584L2148.85 310.664ZM2168.04 310.664L2171.99 308.856L2185.41 336.776L2181.46 338.584L2168.04 310.664ZM2187.22 310.664L2191.18 308.856L2204.6 336.776L2200.65 338.584L2187.22 310.664ZM2207.1 340.952V336.984H2225.02V340.952H2207.1ZM2224.37 340.952V336.984H2242.29V340.952H2224.37ZM2244.79 310.664L2248.74 308.856L2262.16 336.776L2258.21 338.584L2244.79 310.664ZM2267.93 338.584L2263.97 336.776L2277.43 308.856L2281.35 310.664L2267.93 338.584ZM2283.16 310.664L2287.11 308.856L2300.54 336.776L2296.59 338.584L2283.16 310.664ZM2302.35 310.664L2306.3 308.856L2319.73 336.776L2315.77 338.584L2302.35 310.664ZM2321.54 310.664L2325.49 308.856L2338.91 336.776L2334.96 338.584L2321.54 310.664ZM2344.68 338.584L2340.72 336.776L2354.18 308.856L2358.1 310.664L2344.68 338.584ZM2363.86 338.584L2359.91 336.776L2373.37 308.856L2377.29 310.664L2363.86 338.584ZM2383.05 338.584L2379.1 336.776L2392.56 308.856L2396.48 310.664L2383.05 338.584ZM2402.24 338.584L2398.29 336.776L2411.74 308.856L2415.66 310.664L2402.24 338.584ZM2417.47 310.664L2421.43 308.856L2434.85 336.776L2430.9 338.584L2417.47 310.664ZM2436.66 310.664L2440.61 308.856L2454.04 336.776L2450.09 338.584L2436.66 310.664ZM2455.85 310.664L2459.8 308.856L2473.23 336.776L2469.27 338.584L2455.85 310.664ZM2475.73 340.952V336.984H2493.65V340.952H2475.73ZM2492.99 340.952V336.984H2510.91V340.952H2492.99ZM2513.41 310.664L2517.36 308.856L2530.79 336.776L2526.84 338.584L2513.41 310.664ZM2536.55 338.584L2532.6 336.776L2546.06 308.856L2549.98 310.664L2536.55 338.584ZM2551.79 310.664L2555.74 308.856L2569.16 336.776L2565.21 338.584L2551.79 310.664ZM2570.97 310.664L2574.93 308.856L2588.35 336.776L2584.4 338.584L2570.97 310.664ZM2590.16 310.664L2594.11 308.856L2607.54 336.776L2603.59 338.584L2590.16 310.664ZM2613.3 338.584L2609.35 336.776L2622.81 308.856L2626.73 310.664L2613.3 338.584ZM2632.49 338.584L2628.54 336.776L2641.99 308.856L2645.91 310.664L2632.49 338.584ZM2651.68 338.584L2647.72 336.776L2661.18 308.856L2665.1 310.664L2651.68 338.584ZM2670.86 338.584L2666.91 336.776L2680.37 308.856L2684.29 310.664L2670.86 338.584ZM2686.1 310.664L2690.05 308.856L2703.48 336.776L2699.52 338.584L2686.1 310.664ZM2705.29 310.664L2709.24 308.856L2722.66 336.776L2718.71 338.584L2705.29 310.664ZM2724.47 310.664L2728.43 308.856L2741.85 336.776L2737.9 338.584L2724.47 310.664ZM2744.35 340.952V336.984H2762.27V340.952H2744.35ZM2761.62 340.952V336.984H2781.46V340.952H2761.62ZM2780.8 340.952V336.984H2800.65V340.952H2780.8ZM2799.99 340.952V336.984H2819.83V340.952H2799.99ZM2819.18 340.952V336.984H2839.02V340.952H2819.18ZM2838.37 340.952V336.984H2858.21V340.952H2838.37ZM2857.55 340.952V336.984H2875.48V340.952H2857.55ZM2877.97 310.664L2881.93 308.856L2895.35 336.776L2891.4 338.584L2877.97 310.664ZM613.85 352.664L617.802 350.856L631.226 378.776L627.274 380.584L613.85 352.664ZM633.725 382.952V378.984H651.645V382.952H633.725ZM650.992 382.952V378.984H670.833V382.952H650.992ZM670.18 382.952V378.984H690.02V382.952H670.18ZM689.367 382.952V378.984H709.208V382.952H689.367ZM708.555 382.952V378.984H726.475V382.952H708.555ZM732.927 380.584L728.975 378.776L742.431 350.856L746.351 352.664L732.927 380.584ZM748.162 352.664L752.114 350.856L765.538 378.776L761.586 380.584L748.162 352.664ZM767.35 352.664L771.302 350.856L784.726 378.776L780.774 380.584L767.35 352.664ZM786.537 352.664L790.489 350.856L803.913 378.776L799.961 380.584L786.537 352.664ZM806.413 382.952V378.984H824.333V382.952H806.413ZM823.68 382.952V378.984H841.6V382.952H823.68ZM848.052 380.584L844.1 378.776L857.556 350.856L861.476 352.664L848.052 380.584ZM863.287 352.664L867.239 350.856L880.663 378.776L876.711 380.584L863.287 352.664ZM882.475 352.664L886.427 350.856L899.851 378.776L895.899 380.584L882.475 352.664ZM901.662 352.664L905.614 350.856L919.038 378.776L915.086 380.584L901.662 352.664ZM920.85 352.664L924.802 350.856L938.226 378.776L934.274 380.584L920.85 352.664ZM940.037 352.664L943.989 350.856L957.413 378.776L953.461 380.584L940.037 352.664ZM959.225 352.664L963.177 350.856L976.601 378.776L972.649 380.584L959.225 352.664ZM978.412 352.664L982.364 350.856L995.788 378.776L991.836 380.584L978.412 352.664ZM998.288 382.952V378.984H1016.21V382.952H998.288ZM1015.55 382.952V378.984H1035.4V382.952H1015.55ZM1034.74 382.952V378.984H1054.58V382.952H1034.74ZM1053.93 382.952V378.984H1073.77V382.952H1053.93ZM1073.12 382.952V378.984H1092.96V382.952H1073.12ZM1092.3 382.952V378.984H1112.15V382.952H1092.3ZM1111.49 382.952V378.984H1131.33V382.952H1111.49ZM1130.68 382.952V378.984H1150.52V382.952H1130.68ZM1149.87 382.952V378.984H1169.71V382.952H1149.87ZM1169.05 382.952V378.984H1188.9V382.952H1169.05ZM1188.24 382.952V378.984H1208.08V382.952H1188.24ZM1207.43 382.952V378.984H1227.27V382.952H1207.43ZM1226.62 382.952V378.984H1244.54V382.952H1226.62ZM1247.04 352.664L1250.99 350.856L1264.41 378.776L1260.46 380.584L1247.04 352.664ZM1305.35 380.584L1301.4 378.776L1314.86 350.856L1318.78 352.664L1305.35 380.584ZM1273.35 380.584L1269.4 378.776L1282.86 350.856L1286.78 352.664L1273.35 380.584ZM1289.35 380.584L1285.4 378.776L1298.86 350.856L1302.78 352.664L1289.35 380.584ZM1323.79 352.664L1327.74 350.856L1341.16 378.776L1337.21 380.584L1323.79 352.664ZM1342.97 352.664L1346.93 350.856L1360.35 378.776L1356.4 380.584L1342.97 352.664ZM1362.16 352.664L1366.11 350.856L1379.54 378.776L1375.59 380.584L1362.16 352.664ZM1381.35 352.664L1385.3 350.856L1398.73 378.776L1394.77 380.584L1381.35 352.664ZM1400.54 352.664L1404.49 350.856L1417.91 378.776L1413.96 380.584L1400.54 352.664ZM1419.72 352.664L1423.68 350.856L1437.1 378.776L1433.15 380.584L1419.72 352.664ZM1439.6 382.952V378.984H1457.52V382.952H1439.6ZM1456.87 382.952V378.984H1476.71V382.952H1456.87ZM1476.05 382.952V378.984H1495.9V382.952H1476.05ZM1495.24 382.952V378.984H1513.16V382.952H1495.24ZM1515.66 352.664L1519.61 350.856L1533.04 378.776L1529.09 380.584L1515.66 352.664ZM1538.8 380.584L1534.85 378.776L1548.31 350.856L1552.23 352.664L1538.8 380.584ZM1554.04 352.664L1557.99 350.856L1571.41 378.776L1567.46 380.584L1554.04 352.664ZM1573.22 352.664L1577.18 350.856L1590.6 378.776L1586.65 380.584L1573.22 352.664ZM1592.41 352.664L1596.36 350.856L1609.79 378.776L1605.84 380.584L1592.41 352.664ZM1611.6 352.664L1615.55 350.856L1628.98 378.776L1625.02 380.584L1611.6 352.664ZM1630.79 352.664L1634.74 350.856L1648.16 378.776L1644.21 380.584L1630.79 352.664ZM1649.97 352.664L1653.93 350.856L1667.35 378.776L1663.4 380.584L1649.97 352.664ZM1669.16 352.664L1673.11 350.856L1686.54 378.776L1682.59 380.584L1669.16 352.664ZM1688.35 352.664L1692.3 350.856L1705.73 378.776L1701.77 380.584L1688.35 352.664ZM1707.54 352.664L1711.49 350.856L1724.91 378.776L1720.96 380.584L1707.54 352.664ZM1726.72 352.664L1730.68 350.856L1744.1 378.776L1740.15 380.584L1726.72 352.664ZM1746.6 382.952V378.984H1764.52V382.952H1746.6ZM1763.87 382.952V378.984H1783.71V382.952H1763.87ZM1783.05 382.952V378.984H1800.98V382.952H1783.05ZM1803.47 352.664L1807.43 350.856L1820.85 378.776L1816.9 380.584L1803.47 352.664ZM1828.2 380.584L1824.25 378.776L1837.71 350.856L1841.63 352.664L1828.2 380.584ZM1844.2 380.584L1840.25 378.776L1853.71 350.856L1857.63 352.664L1844.2 380.584ZM1861.04 352.664L1864.99 350.856L1878.41 378.776L1874.46 380.584L1861.04 352.664ZM1880.22 352.664L1884.18 350.856L1897.6 378.776L1893.65 380.584L1880.22 352.664ZM1899.41 352.664L1903.36 350.856L1916.79 378.776L1912.84 380.584L1899.41 352.664ZM1918.6 352.664L1922.55 350.856L1935.98 378.776L1932.02 380.584L1918.6 352.664ZM1937.79 352.664L1941.74 350.856L1955.16 378.776L1951.21 380.584L1937.79 352.664ZM1957.66 382.952V378.984H1975.58V382.952H1957.66ZM1974.93 382.952V378.984H1992.85V382.952H1974.93ZM1995.35 352.664L1999.3 350.856L2012.73 378.776L2008.77 380.584L1995.35 352.664ZM2018.49 380.584L2014.54 378.776L2027.99 350.856L2031.91 352.664L2018.49 380.584ZM2033.72 352.664L2037.68 350.856L2051.1 378.776L2047.15 380.584L2033.72 352.664ZM2052.91 352.664L2056.86 350.856L2070.29 378.776L2066.34 380.584L2052.91 352.664ZM2072.1 352.664L2076.05 350.856L2089.48 378.776L2085.52 380.584L2072.1 352.664ZM2091.98 382.952V378.984H2109.9V382.952H2091.98ZM2109.24 382.952V378.984H2127.16V382.952H2109.24ZM2129.66 352.664L2133.61 350.856L2147.04 378.776L2143.09 380.584L2129.66 352.664ZM2152.8 380.584L2148.85 378.776L2162.31 350.856L2166.23 352.664L2152.8 380.584ZM2168.04 352.664L2171.99 350.856L2185.41 378.776L2181.46 380.584L2168.04 352.664ZM2187.22 352.664L2191.18 350.856L2204.6 378.776L2200.65 380.584L2187.22 352.664ZM2206.41 352.664L2210.36 350.856L2223.79 378.776L2219.84 380.584L2206.41 352.664ZM2226.29 382.952V378.984H2244.21V382.952H2226.29ZM2243.55 382.952V378.984H2261.48V382.952H2243.55ZM2263.97 352.664L2267.93 350.856L2281.35 378.776L2277.4 380.584L2263.97 352.664ZM2287.11 380.584L2283.16 378.776L2296.62 350.856L2300.54 352.664L2287.11 380.584ZM2302.35 352.664L2306.3 350.856L2319.73 378.776L2315.77 380.584L2302.35 352.664ZM2321.54 352.664L2325.49 350.856L2338.91 378.776L2334.96 380.584L2321.54 352.664ZM2340.72 352.664L2344.68 350.856L2358.1 378.776L2354.15 380.584L2340.72 352.664ZM2360.6 382.952V378.984H2378.52V382.952H2360.6ZM2377.87 382.952V378.984H2395.79V382.952H2377.87ZM2398.29 352.664L2402.24 350.856L2415.66 378.776L2411.71 380.584L2398.29 352.664ZM2421.43 380.584L2417.47 378.776L2430.93 350.856L2434.85 352.664L2421.43 380.584ZM2436.66 352.664L2440.61 350.856L2454.04 378.776L2450.09 380.584L2436.66 352.664ZM2455.85 352.664L2459.8 350.856L2473.23 378.776L2469.27 380.584L2455.85 352.664ZM2475.04 352.664L2478.99 350.856L2492.41 378.776L2488.46 380.584L2475.04 352.664ZM2494.91 382.952V378.984H2512.83V382.952H2494.91ZM2512.18 382.952V378.984H2530.1V382.952H2512.18ZM2532.6 352.664L2536.55 350.856L2549.98 378.776L2546.02 380.584L2532.6 352.664ZM2555.74 380.584L2551.79 378.776L2565.24 350.856L2569.16 352.664L2555.74 380.584ZM2570.97 352.664L2574.93 350.856L2588.35 378.776L2584.4 380.584L2570.97 352.664ZM2590.16 352.664L2594.11 350.856L2607.54 378.776L2603.59 380.584L2590.16 352.664ZM2609.35 352.664L2613.3 350.856L2626.73 378.776L2622.77 380.584L2609.35 352.664ZM2629.23 382.952V378.984H2647.15V382.952H2629.23ZM2646.49 382.952V378.984H2664.41V382.952H2646.49ZM2666.91 352.664L2670.86 350.856L2684.29 378.776L2680.34 380.584L2666.91 352.664ZM2690.05 380.584L2686.1 378.776L2699.56 350.856L2703.48 352.664L2690.05 380.584ZM2705.29 352.664L2709.24 350.856L2722.66 378.776L2718.71 380.584L2705.29 352.664ZM2724.47 352.664L2728.43 350.856L2741.85 378.776L2737.9 380.584L2724.47 352.664ZM2743.66 352.664L2747.61 350.856L2761.04 378.776L2757.09 380.584L2743.66 352.664ZM2763.54 382.952V378.984H2781.46V382.952H2763.54ZM2780.8 382.952V378.984H2800.65V382.952H2780.8ZM2799.99 382.952V378.984H2819.83V382.952H2799.99ZM2819.18 382.952V378.984H2839.02V382.952H2819.18ZM2838.37 382.952V378.984H2858.21V382.952H2838.37ZM2857.55 382.952V378.984H2877.4V382.952H2857.55ZM2876.74 382.952V378.984H2894.66V382.952H2876.74ZM2897.16 352.664L2901.11 350.856L2914.54 378.776L2910.59 380.584L2897.16 352.664ZM633.037 394.664L636.989 392.856L650.413 420.776L646.461 422.584L633.037 394.664ZM652.913 424.952V420.984H670.833V424.952H652.913ZM670.18 424.952V420.984H690.02V424.952H670.18ZM689.367 424.952V420.984H709.208V424.952H689.367ZM708.555 424.952V420.984H726.475V424.952H708.555ZM732.927 422.584L728.975 420.776L742.431 392.856L746.351 394.664L732.927 422.584ZM748.162 394.664L752.114 392.856L765.538 420.776L761.586 422.584L748.162 394.664ZM767.35 394.664L771.302 392.856L784.726 420.776L780.774 422.584L767.35 394.664ZM787.225 424.952V420.984H805.145V424.952H787.225ZM804.492 424.952V420.984H822.413V424.952H804.492ZM828.864 422.584L824.912 420.776L838.368 392.856L842.288 394.664L828.864 422.584ZM844.1 394.664L848.052 392.856L861.476 420.776L857.524 422.584L844.1 394.664ZM863.287 394.664L867.239 392.856L880.663 420.776L876.711 422.584L863.287 394.664ZM882.475 394.664L886.427 392.856L899.851 420.776L895.899 422.584L882.475 394.664ZM901.662 394.664L905.614 392.856L919.038 420.776L915.086 422.584L901.662 394.664ZM920.85 394.664L924.802 392.856L938.226 420.776L934.274 422.584L920.85 394.664ZM940.037 394.664L943.989 392.856L957.413 420.776L953.461 422.584L940.037 394.664ZM963.177 422.584L959.225 420.776L972.681 392.856L976.601 394.664L963.177 422.584ZM978.412 394.664L982.364 392.856L995.788 420.776L991.836 422.584L978.412 394.664ZM997.6 394.664L1001.55 392.856L1014.98 420.776L1011.02 422.584L997.6 394.664ZM1016.79 394.664L1020.74 392.856L1034.16 420.776L1030.21 422.584L1016.79 394.664ZM1036.66 424.952V420.984H1054.58V424.952H1036.66ZM1053.93 424.952V420.984H1073.77V424.952H1053.93ZM1073.12 424.952V420.984H1092.96V424.952H1073.12ZM1092.3 424.952V420.984H1112.15V424.952H1092.3ZM1111.49 424.952V420.984H1131.33V424.952H1111.49ZM1130.68 424.952V420.984H1150.52V424.952H1130.68ZM1149.87 424.952V420.984H1169.71V424.952H1149.87ZM1169.05 424.952V420.984H1188.9V424.952H1169.05ZM1188.24 424.952V420.984H1208.08V424.952H1188.24ZM1207.43 424.952V420.984H1227.27V424.952H1207.43ZM1226.62 424.952V420.984H1246.46V424.952H1226.62ZM1245.8 424.952V420.984H1265.65V424.952H1245.8ZM1264.99 424.952V420.984H1284.83V424.952H1264.99ZM1284.18 424.952V420.984H1302.1V424.952H1284.18ZM1304.6 394.664L1308.55 392.856L1321.98 420.776L1318.02 422.584L1304.6 394.664ZM1327.74 422.584L1323.79 420.776L1337.24 392.856L1341.16 394.664L1327.74 422.584ZM1346.93 422.584L1342.97 420.776L1356.43 392.856L1360.35 394.664L1346.93 422.584ZM1366.11 422.584L1362.16 420.776L1375.62 392.856L1379.54 394.664L1366.11 422.584ZM1385.3 422.584L1381.35 420.776L1394.81 392.856L1398.73 394.664L1385.3 422.584ZM1404.49 422.584L1400.54 420.776L1413.99 392.856L1417.91 394.664L1404.49 422.584ZM1419.72 394.664L1423.68 392.856L1437.1 420.776L1433.15 422.584L1419.72 394.664ZM1438.91 394.664L1442.86 392.856L1456.29 420.776L1452.34 422.584L1438.91 394.664ZM1458.1 394.664L1462.05 392.856L1475.48 420.776L1471.52 422.584L1458.1 394.664ZM1477.29 394.664L1481.24 392.856L1494.66 420.776L1490.71 422.584L1477.29 394.664ZM1497.16 424.952V420.984H1515.08V424.952H1497.16ZM1514.43 424.952V420.984H1532.35V424.952H1514.43ZM1534.85 394.664L1538.8 392.856L1552.23 420.776L1548.27 422.584L1534.85 394.664ZM1557.99 422.584L1554.04 420.776L1567.49 392.856L1571.41 394.664L1557.99 422.584ZM1573.22 394.664L1577.18 392.856L1590.6 420.776L1586.65 422.584L1573.22 394.664ZM1592.41 394.664L1596.36 392.856L1609.79 420.776L1605.84 422.584L1592.41 394.664ZM1611.6 394.664L1615.55 392.856L1628.98 420.776L1625.02 422.584L1611.6 394.664ZM1634.74 422.584L1630.79 420.776L1644.24 392.856L1648.16 394.664L1634.74 422.584ZM1653.93 422.584L1649.97 420.776L1663.43 392.856L1667.35 394.664L1653.93 422.584ZM1673.11 422.584L1669.16 420.776L1682.62 392.856L1686.54 394.664L1673.11 422.584ZM1692.3 422.584L1688.35 420.776L1701.81 392.856L1705.73 394.664L1692.3 422.584ZM1711.49 422.584L1707.54 420.776L1720.99 392.856L1724.91 394.664L1711.49 422.584ZM1727.41 424.952V420.984H1745.33V424.952H1727.41ZM1744.68 424.952V420.984H1764.52V424.952H1744.68ZM1763.87 424.952V420.984H1783.71V424.952H1763.87ZM1783.05 424.952V420.984H1802.9V424.952H1783.05ZM1802.24 424.952V420.984H1822.08V424.952H1802.24ZM1821.43 424.952V420.984H1839.35V424.952H1821.43ZM1841.85 394.664L1845.8 392.856L1859.23 420.776L1855.27 422.584L1841.85 394.664ZM1866.58 422.584L1862.62 420.776L1876.08 392.856L1880 394.664L1866.58 422.584ZM1882.58 422.584L1878.62 420.776L1892.08 392.856L1896 394.664L1882.58 422.584ZM1899.41 394.664L1903.36 392.856L1916.79 420.776L1912.84 422.584L1899.41 394.664ZM1918.6 394.664L1922.55 392.856L1935.98 420.776L1932.02 422.584L1918.6 394.664ZM1937.79 394.664L1941.74 392.856L1955.16 420.776L1951.21 422.584L1937.79 394.664ZM1957.66 424.952V420.984H1975.58V424.952H1957.66ZM1974.93 424.952V420.984H1994.77V424.952H1974.93ZM1994.12 424.952V420.984H2012.04V424.952H1994.12ZM2014.54 394.664L2018.49 392.856L2031.91 420.776L2027.96 422.584L2014.54 394.664ZM2037.68 422.584L2033.72 420.776L2047.18 392.856L2051.1 394.664L2037.68 422.584ZM2052.91 394.664L2056.86 392.856L2070.29 420.776L2066.34 422.584L2052.91 394.664ZM2072.1 394.664L2076.05 392.856L2089.48 420.776L2085.52 422.584L2072.1 394.664ZM2091.29 394.664L2095.24 392.856L2108.66 420.776L2104.71 422.584L2091.29 394.664ZM2111.16 424.952V420.984H2129.08V424.952H2111.16ZM2128.43 424.952V420.984H2148.27V424.952H2128.43ZM2147.62 424.952V420.984H2165.54V424.952H2147.62ZM2168.04 394.664L2171.99 392.856L2185.41 420.776L2181.46 422.584L2168.04 394.664ZM2192.76 422.584L2188.81 420.776L2202.27 392.856L2206.19 394.664L2192.76 422.584ZM2208.76 422.584L2204.81 420.776L2218.27 392.856L2222.19 394.664L2208.76 422.584ZM2225.6 394.664L2229.55 392.856L2242.98 420.776L2239.02 422.584L2225.6 394.664ZM2244.79 394.664L2248.74 392.856L2262.16 420.776L2258.21 422.584L2244.79 394.664ZM2264.66 424.952V420.984H2280.66V424.952H2264.66ZM2283.16 394.664L2287.11 392.856L2300.54 420.776L2296.59 422.584L2283.16 394.664ZM2306.3 422.584L2302.35 420.776L2315.81 392.856L2319.73 394.664L2306.3 422.584ZM2321.54 394.664L2325.49 392.856L2338.91 420.776L2334.96 422.584L2321.54 394.664ZM2340.72 394.664L2344.68 392.856L2358.1 420.776L2354.15 422.584L2340.72 394.664ZM2359.91 394.664L2363.86 392.856L2377.29 420.776L2373.34 422.584L2359.91 394.664ZM2379.79 424.952V420.984H2397.71V424.952H2379.79ZM2397.05 424.952V420.984H2416.9V424.952H2397.05ZM2416.24 424.952V420.984H2434.16V424.952H2416.24ZM2436.66 394.664L2440.61 392.856L2454.04 420.776L2450.09 422.584L2436.66 394.664ZM2461.39 422.584L2457.44 420.776L2470.89 392.856L2474.81 394.664L2461.39 422.584ZM2477.39 422.584L2473.44 420.776L2486.89 392.856L2490.81 394.664L2477.39 422.584ZM2494.22 394.664L2498.18 392.856L2511.6 420.776L2507.65 422.584L2494.22 394.664ZM2513.41 394.664L2517.36 392.856L2530.79 420.776L2526.84 422.584L2513.41 394.664ZM2533.29 424.952V420.984H2549.29V424.952H2533.29ZM2551.79 394.664L2555.74 392.856L2569.16 420.776L2565.21 422.584L2551.79 394.664ZM2574.93 422.584L2570.97 420.776L2584.43 392.856L2588.35 394.664L2574.93 422.584ZM2590.16 394.664L2594.11 392.856L2607.54 420.776L2603.59 422.584L2590.16 394.664ZM2609.35 394.664L2613.3 392.856L2626.73 420.776L2622.77 422.584L2609.35 394.664ZM2628.54 394.664L2632.49 392.856L2645.91 420.776L2641.96 422.584L2628.54 394.664ZM2648.41 424.952V420.984H2666.33V424.952H2648.41ZM2665.68 424.952V420.984H2685.52V424.952H2665.68ZM2684.87 424.952V420.984H2702.79V424.952H2684.87ZM2705.29 394.664L2709.24 392.856L2722.66 420.776L2718.71 422.584L2705.29 394.664ZM2730.01 422.584L2726.06 420.776L2739.52 392.856L2743.44 394.664L2730.01 422.584ZM2746.01 422.584L2742.06 420.776L2755.52 392.856L2759.44 394.664L2746.01 422.584ZM2762.85 394.664L2766.8 392.856L2780.23 420.776L2776.27 422.584L2762.85 394.664ZM2782.04 394.664L2785.99 392.856L2799.41 420.776L2795.46 422.584L2782.04 394.664ZM2801.91 424.952V420.984H2819.83V424.952H2801.91ZM2819.18 424.952V420.984H2839.02V424.952H2819.18ZM2838.37 424.952V420.984H2858.21V424.952H2838.37ZM2857.55 424.952V420.984H2877.4V424.952H2857.55ZM2876.74 424.952V420.984H2896.58V424.952H2876.74ZM2895.93 424.952V420.984H2913.85V424.952H2895.93ZM2916.35 394.664L2920.3 392.856L2933.73 420.776L2929.77 422.584L2916.35 394.664ZM652.225 436.664L656.177 434.856L669.601 462.776L665.649 464.584L652.225 436.664ZM672.1 466.952V462.984H690.02V466.952H672.1ZM689.367 466.952V462.984H709.208V466.952H689.367ZM708.555 466.952V462.984H726.475V466.952H708.555ZM728.975 436.664L732.927 434.856L746.351 462.776L742.399 464.584L728.975 436.664ZM752.114 464.584L748.162 462.776L761.618 434.856L765.538 436.664L752.114 464.584ZM767.35 436.664L771.302 434.856L784.726 462.776L780.774 464.584L767.35 436.664ZM786.537 436.664L790.489 434.856L803.913 462.776L799.961 464.584L786.537 436.664ZM805.725 436.664L809.677 434.856L823.101 462.776L819.149 464.584L805.725 436.664ZM824.912 436.664L828.864 434.856L842.288 462.776L838.336 464.584L824.912 436.664ZM848.052 464.584L844.1 462.776L857.556 434.856L861.476 436.664L848.052 464.584ZM867.239 464.584L863.287 462.776L876.743 434.856L880.663 436.664L867.239 464.584ZM886.427 464.584L882.475 462.776L895.931 434.856L899.851 436.664L886.427 464.584ZM905.614 464.584L901.662 462.776L915.118 434.856L919.038 436.664L905.614 464.584ZM920.85 436.664L924.802 434.856L938.226 462.776L934.274 464.584L920.85 436.664ZM940.037 436.664L943.989 434.856L957.413 462.776L953.461 464.584L940.037 436.664ZM959.225 436.664L963.177 434.856L976.601 462.776L972.649 464.584L959.225 436.664ZM982.364 464.584L978.412 462.776L991.868 434.856L995.788 436.664L982.364 464.584ZM997.6 436.664L1001.55 434.856L1014.98 462.776L1011.02 464.584L997.6 436.664ZM1016.79 436.664L1020.74 434.856L1034.16 462.776L1030.21 464.584L1016.79 436.664ZM1036.66 466.952V462.984H1054.58V466.952H1036.66ZM1053.93 466.952V462.984H1073.77V466.952H1053.93ZM1073.12 466.952V462.984H1092.96V466.952H1073.12ZM1092.3 466.952V462.984H1112.15V466.952H1092.3ZM1111.49 466.952V462.984H1131.33V466.952H1111.49ZM1130.68 466.952V462.984H1150.52V466.952H1130.68ZM1149.87 466.952V462.984H1169.71V466.952H1149.87ZM1169.05 466.952V462.984H1188.9V466.952H1169.05ZM1188.24 466.952V462.984H1208.08V466.952H1188.24ZM1207.43 466.952V462.984H1225.35V466.952H1207.43ZM1231.8 464.584L1227.85 462.776L1241.31 434.856L1245.23 436.664L1231.8 464.584ZM1247.04 436.664L1250.99 434.856L1264.41 462.776L1260.46 464.584L1247.04 436.664ZM1266.22 436.664L1270.18 434.856L1283.6 462.776L1279.65 464.584L1266.22 436.664ZM1285.41 436.664L1289.36 434.856L1302.79 462.776L1298.84 464.584L1285.41 436.664ZM1305.29 466.952V462.984H1323.21V466.952H1305.29ZM1322.55 466.952V462.984H1342.4V466.952H1322.55ZM1341.74 466.952V462.984H1361.58V466.952H1341.74ZM1360.93 466.952V462.984H1380.77V466.952H1360.93ZM1380.12 466.952V462.984H1398.04V466.952H1380.12ZM1406.08 464.584L1402.12 462.776L1415.58 434.856L1419.5 436.664L1406.08 464.584ZM1422.08 464.584L1418.12 462.776L1431.58 434.856L1435.5 436.664L1422.08 464.584ZM1438.91 436.664L1442.86 434.856L1456.29 462.776L1452.34 464.584L1438.91 436.664ZM1458.1 436.664L1462.05 434.856L1475.48 462.776L1471.52 464.584L1458.1 436.664ZM1477.29 436.664L1481.24 434.856L1494.66 462.776L1490.71 464.584L1477.29 436.664ZM1496.47 436.664L1500.43 434.856L1513.85 462.776L1509.9 464.584L1496.47 436.664ZM1515.66 436.664L1519.61 434.856L1533.04 462.776L1529.09 464.584L1515.66 436.664ZM1535.54 466.952V462.984H1551.54V466.952H1535.54ZM1554.04 436.664L1557.99 434.856L1571.41 462.776L1567.46 464.584L1554.04 436.664ZM1577.18 464.584L1573.22 462.776L1586.68 434.856L1590.6 436.664L1577.18 464.584ZM1592.41 436.664L1596.36 434.856L1609.79 462.776L1605.84 464.584L1592.41 436.664ZM1611.6 436.664L1615.55 434.856L1628.98 462.776L1625.02 464.584L1611.6 436.664ZM1630.79 436.664L1634.74 434.856L1648.16 462.776L1644.21 464.584L1630.79 436.664ZM1650.66 466.952V462.984H1668.58V466.952H1650.66ZM1667.93 466.952V462.984H1687.77V466.952H1667.93ZM1687.12 466.952V462.984H1706.96V466.952H1687.12ZM1706.3 466.952V462.984H1726.15V466.952H1706.3ZM1725.49 466.952V462.984H1745.33V466.952H1725.49ZM1744.68 466.952V462.984H1764.52V466.952H1744.68ZM1763.87 466.952V462.984H1783.71V466.952H1763.87ZM1783.05 466.952V462.984H1800.98V466.952H1783.05ZM1807.43 464.584L1803.47 462.776L1816.93 434.856L1820.85 436.664L1807.43 464.584ZM1822.66 436.664L1826.61 434.856L1840.04 462.776L1836.09 464.584L1822.66 436.664ZM1841.85 436.664L1845.8 434.856L1859.23 462.776L1855.27 464.584L1841.85 436.664ZM1861.73 466.952V462.984H1877.73V466.952H1861.73ZM1884.18 464.584L1880.22 462.776L1893.68 434.856L1897.6 436.664L1884.18 464.584ZM1899.41 436.664L1903.36 434.856L1916.79 462.776L1912.84 464.584L1899.41 436.664ZM1918.6 436.664L1922.55 434.856L1935.98 462.776L1932.02 464.584L1918.6 436.664ZM1937.79 436.664L1941.74 434.856L1955.16 462.776L1951.21 464.584L1937.79 436.664ZM1957.66 466.952V462.984H1975.58V466.952H1957.66ZM1974.93 466.952V462.984H1994.77V466.952H1974.93ZM1994.12 466.952V462.984H2013.96V466.952H1994.12ZM2013.3 466.952V462.984H2031.23V466.952H2013.3ZM2033.72 436.664L2037.68 434.856L2051.1 462.776L2047.15 464.584L2033.72 436.664ZM2056.86 464.584L2052.91 462.776L2066.37 434.856L2070.29 436.664L2056.86 464.584ZM2072.1 436.664L2076.05 434.856L2089.48 462.776L2085.52 464.584L2072.1 436.664ZM2091.29 436.664L2095.24 434.856L2108.66 462.776L2104.71 464.584L2091.29 436.664ZM2110.47 436.664L2114.43 434.856L2127.85 462.776L2123.9 464.584L2110.47 436.664ZM2130.35 466.952V462.984H2148.27V466.952H2130.35ZM2147.62 466.952V462.984H2167.46V466.952H2147.62ZM2166.8 466.952V462.984H2184.73V466.952H2166.8ZM2187.22 436.664L2191.18 434.856L2204.6 462.776L2200.65 464.584L2187.22 436.664ZM2210.36 464.584L2206.41 462.776L2219.87 434.856L2223.79 436.664L2210.36 464.584ZM2225.6 436.664L2229.55 434.856L2242.98 462.776L2239.02 464.584L2225.6 436.664ZM2244.79 436.664L2248.74 434.856L2262.16 462.776L2258.21 464.584L2244.79 436.664ZM2263.97 436.664L2267.93 434.856L2281.35 462.776L2277.4 464.584L2263.97 436.664ZM2283.85 466.952V462.984H2299.85V466.952H2283.85ZM2302.35 436.664L2306.3 434.856L2319.73 462.776L2315.77 464.584L2302.35 436.664ZM2325.49 464.584L2321.54 462.776L2334.99 434.856L2338.91 436.664L2325.49 464.584ZM2340.72 436.664L2344.68 434.856L2358.1 462.776L2354.15 464.584L2340.72 436.664ZM2359.91 436.664L2363.86 434.856L2377.29 462.776L2373.34 464.584L2359.91 436.664ZM2379.1 436.664L2383.05 434.856L2396.48 462.776L2392.52 464.584L2379.1 436.664ZM2398.98 466.952V462.984H2416.9V466.952H2398.98ZM2416.24 466.952V462.984H2436.08V466.952H2416.24ZM2435.43 466.952V462.984H2453.35V466.952H2435.43ZM2455.85 436.664L2459.8 434.856L2473.23 462.776L2469.27 464.584L2455.85 436.664ZM2478.99 464.584L2475.04 462.776L2488.49 434.856L2492.41 436.664L2478.99 464.584ZM2494.22 436.664L2498.18 434.856L2511.6 462.776L2507.65 464.584L2494.22 436.664ZM2513.41 436.664L2517.36 434.856L2530.79 462.776L2526.84 464.584L2513.41 436.664ZM2532.6 436.664L2536.55 434.856L2549.98 462.776L2546.02 464.584L2532.6 436.664ZM2552.48 466.952V462.984H2568.48V466.952H2552.48ZM2570.97 436.664L2574.93 434.856L2588.35 462.776L2584.4 464.584L2570.97 436.664ZM2594.11 464.584L2590.16 462.776L2603.62 434.856L2607.54 436.664L2594.11 464.584ZM2609.35 436.664L2613.3 434.856L2626.73 462.776L2622.77 464.584L2609.35 436.664ZM2628.54 436.664L2632.49 434.856L2645.91 462.776L2641.96 464.584L2628.54 436.664ZM2647.72 436.664L2651.68 434.856L2665.1 462.776L2661.15 464.584L2647.72 436.664ZM2667.6 466.952V462.984H2685.52V466.952H2667.6ZM2684.87 466.952V462.984H2704.71V466.952H2684.87ZM2704.05 466.952V462.984H2721.98V466.952H2704.05ZM2724.47 436.664L2728.43 434.856L2741.85 462.776L2737.9 464.584L2724.47 436.664ZM2747.61 464.584L2743.66 462.776L2757.12 434.856L2761.04 436.664L2747.61 464.584ZM2762.85 436.664L2766.8 434.856L2780.23 462.776L2776.27 464.584L2762.85 436.664ZM2782.04 436.664L2785.99 434.856L2799.41 462.776L2795.46 464.584L2782.04 436.664ZM2801.22 436.664L2805.18 434.856L2818.6 462.776L2814.65 464.584L2801.22 436.664ZM2821.1 466.952V462.984H2839.02V466.952H2821.1ZM2838.37 466.952V462.984H2858.21V466.952H2838.37ZM2857.55 466.952V462.984H2877.4V466.952H2857.55ZM2876.74 466.952V462.984H2896.58V466.952H2876.74ZM2895.93 466.952V462.984H2915.77V466.952H2895.93ZM2915.12 466.952V462.984H2933.04V466.952H2915.12ZM2935.54 436.664L2939.49 434.856L2952.91 462.776L2948.96 464.584L2935.54 436.664ZM671.412 478.664L675.364 476.856L688.788 504.776L684.836 506.584L671.412 478.664ZM691.288 508.952V504.984H709.208V508.952H691.288ZM708.555 508.952V504.984H728.395V508.952H708.555ZM727.742 508.952V504.984H745.663V508.952H727.742ZM748.162 478.664L752.114 476.856L765.538 504.776L761.586 506.584L748.162 478.664ZM772.889 506.584L768.937 504.776L782.393 476.856L786.313 478.664L772.889 506.584ZM788.889 506.584L784.937 504.776L798.393 476.856L802.313 478.664L788.889 506.584ZM805.725 478.664L809.677 476.856L823.101 504.776L819.149 506.584L805.725 478.664ZM824.912 478.664L828.864 476.856L842.288 504.776L838.336 506.584L824.912 478.664ZM844.1 478.664L848.052 476.856L861.476 504.776L857.524 506.584L844.1 478.664ZM863.287 478.664L867.239 476.856L880.663 504.776L876.711 506.584L863.287 478.664ZM882.475 478.664L886.427 476.856L899.851 504.776L895.899 506.584L882.475 478.664ZM901.662 478.664L905.614 476.856L919.038 504.776L915.086 506.584L901.662 478.664ZM920.85 478.664L924.802 476.856L938.226 504.776L934.274 506.584L920.85 478.664ZM940.037 478.664L943.989 476.856L957.413 504.776L953.461 506.584L940.037 478.664ZM959.225 478.664L963.177 476.856L976.601 504.776L972.649 506.584L959.225 478.664ZM978.412 478.664L982.364 476.856L995.788 504.776L991.836 506.584L978.412 478.664ZM997.6 478.664L1001.55 476.856L1014.98 504.776L1011.02 506.584L997.6 478.664ZM1020.74 506.584L1016.79 504.776L1030.24 476.856L1034.16 478.664L1020.74 506.584ZM1036.66 508.952V504.984H1054.58V508.952H1036.66ZM1053.93 508.952V504.984H1073.77V508.952H1053.93ZM1073.12 508.952V504.984H1092.96V508.952H1073.12ZM1092.3 508.952V504.984H1112.15V508.952H1092.3ZM1111.49 508.952V504.984H1131.33V508.952H1111.49ZM1130.68 508.952V504.984H1150.52V508.952H1130.68ZM1149.87 508.952V504.984H1169.71V508.952H1149.87ZM1169.05 508.952V504.984H1188.9V508.952H1169.05ZM1188.24 508.952V504.984H1208.08V508.952H1188.24ZM1207.43 508.952V504.984H1225.35V508.952H1207.43ZM1227.85 478.664L1231.8 476.856L1245.23 504.776L1241.27 506.584L1227.85 478.664ZM1252.58 506.584L1248.62 504.776L1262.08 476.856L1266 478.664L1252.58 506.584ZM1268.58 506.584L1264.62 504.776L1278.08 476.856L1282 478.664L1268.58 506.584ZM1285.41 478.664L1289.36 476.856L1302.79 504.776L1298.84 506.584L1285.41 478.664ZM1304.6 478.664L1308.55 476.856L1321.98 504.776L1318.02 506.584L1304.6 478.664ZM1323.79 478.664L1327.74 476.856L1341.16 504.776L1337.21 506.584L1323.79 478.664ZM1342.97 478.664L1346.93 476.856L1360.35 504.776L1356.4 506.584L1342.97 478.664ZM1362.16 478.664L1366.11 476.856L1379.54 504.776L1375.59 506.584L1362.16 478.664ZM1381.35 478.664L1385.3 476.856L1398.73 504.776L1394.77 506.584L1381.35 478.664ZM1400.54 478.664L1404.49 476.856L1417.91 504.776L1413.96 506.584L1400.54 478.664ZM1419.72 478.664L1423.68 476.856L1437.1 504.776L1433.15 506.584L1419.72 478.664ZM1438.91 478.664L1442.86 476.856L1456.29 504.776L1452.34 506.584L1438.91 478.664ZM1458.1 478.664L1462.05 476.856L1475.48 504.776L1471.52 506.584L1458.1 478.664ZM1477.29 478.664L1481.24 476.856L1494.66 504.776L1490.71 506.584L1477.29 478.664ZM1496.47 478.664L1500.43 476.856L1513.85 504.776L1509.9 506.584L1496.47 478.664ZM1519.61 506.584L1515.66 504.776L1529.12 476.856L1533.04 478.664L1519.61 506.584ZM1535.54 508.952V504.984H1553.46V508.952H1535.54ZM1552.8 508.952V504.984H1570.73V508.952H1552.8ZM1573.22 478.664L1577.18 476.856L1590.6 504.776L1586.65 506.584L1573.22 478.664ZM1596.36 506.584L1592.41 504.776L1605.87 476.856L1609.79 478.664L1596.36 506.584ZM1611.6 478.664L1615.55 476.856L1628.98 504.776L1625.02 506.584L1611.6 478.664ZM1630.79 478.664L1634.74 476.856L1648.16 504.776L1644.21 506.584L1630.79 478.664ZM1649.97 478.664L1653.93 476.856L1667.35 504.776L1663.4 506.584L1649.97 478.664ZM1669.85 508.952V504.984H1687.77V508.952H1669.85ZM1687.12 508.952V504.984H1706.96V508.952H1687.12ZM1706.3 508.952V504.984H1726.15V508.952H1706.3ZM1725.49 508.952V504.984H1745.33V508.952H1725.49ZM1744.68 508.952V504.984H1764.52V508.952H1744.68ZM1763.87 508.952V504.984H1783.71V508.952H1763.87ZM1783.05 508.952V504.984H1800.98V508.952H1783.05ZM1803.47 478.664L1807.43 476.856L1820.85 504.776L1816.9 506.584L1803.47 478.664ZM1828.2 506.584L1824.25 504.776L1837.71 476.856L1841.63 478.664L1828.2 506.584ZM1844.2 506.584L1840.25 504.776L1853.71 476.856L1857.63 478.664L1844.2 506.584ZM1861.04 478.664L1864.99 476.856L1878.41 504.776L1874.46 506.584L1861.04 478.664ZM1880.22 478.664L1884.18 476.856L1897.6 504.776L1893.65 506.584L1880.22 478.664ZM1899.41 478.664L1903.36 476.856L1916.79 504.776L1912.84 506.584L1899.41 478.664ZM1918.6 478.664L1922.55 476.856L1935.98 504.776L1932.02 506.584L1918.6 478.664ZM1941.74 506.584L1937.79 504.776L1951.24 476.856L1955.16 478.664L1941.74 506.584ZM1957.66 508.952V504.984H1975.58V508.952H1957.66ZM1974.93 508.952V504.984H1994.77V508.952H1974.93ZM1994.12 508.952V504.984H2013.96V508.952H1994.12ZM2013.3 508.952V504.984H2033.15V508.952H2013.3ZM2032.49 508.952V504.984H2050.41V508.952H2032.49ZM2052.91 478.664L2056.86 476.856L2070.29 504.776L2066.34 506.584L2052.91 478.664ZM2076.05 506.584L2072.1 504.776L2085.56 476.856L2089.48 478.664L2076.05 506.584ZM2091.29 478.664L2095.24 476.856L2108.66 504.776L2104.71 506.584L2091.29 478.664ZM2110.47 478.664L2114.43 476.856L2127.85 504.776L2123.9 506.584L2110.47 478.664ZM2129.66 478.664L2133.61 476.856L2147.04 504.776L2143.09 506.584L2129.66 478.664ZM2149.54 508.952V504.984H2167.46V508.952H2149.54ZM2166.8 508.952V504.984H2186.65V508.952H2166.8ZM2185.99 508.952V504.984H2203.91V508.952H2185.99ZM2206.41 478.664L2210.36 476.856L2223.79 504.776L2219.84 506.584L2206.41 478.664ZM2229.55 506.584L2225.6 504.776L2239.06 476.856L2242.98 478.664L2229.55 506.584ZM2244.79 478.664L2248.74 476.856L2262.16 504.776L2258.21 506.584L2244.79 478.664ZM2263.97 478.664L2267.93 476.856L2281.35 504.776L2277.4 506.584L2263.97 478.664ZM2283.16 478.664L2287.11 476.856L2300.54 504.776L2296.59 506.584L2283.16 478.664ZM2303.04 508.952V504.984H2319.04V508.952H2303.04ZM2321.54 478.664L2325.49 476.856L2338.91 504.776L2334.96 506.584L2321.54 478.664ZM2344.68 506.584L2340.72 504.776L2354.18 476.856L2358.1 478.664L2344.68 506.584ZM2359.91 478.664L2363.86 476.856L2377.29 504.776L2373.34 506.584L2359.91 478.664ZM2379.1 478.664L2383.05 476.856L2396.48 504.776L2392.52 506.584L2379.1 478.664ZM2398.29 478.664L2402.24 476.856L2415.66 504.776L2411.71 506.584L2398.29 478.664ZM2418.16 508.952V504.984H2436.08V508.952H2418.16ZM2435.43 508.952V504.984H2455.27V508.952H2435.43ZM2454.62 508.952V504.984H2472.54V508.952H2454.62ZM2475.04 478.664L2478.99 476.856L2492.41 504.776L2488.46 506.584L2475.04 478.664ZM2498.18 506.584L2494.22 504.776L2507.68 476.856L2511.6 478.664L2498.18 506.584ZM2513.41 478.664L2517.36 476.856L2530.79 504.776L2526.84 506.584L2513.41 478.664ZM2532.6 478.664L2536.55 476.856L2549.98 504.776L2546.02 506.584L2532.6 478.664ZM2551.79 478.664L2555.74 476.856L2569.16 504.776L2565.21 506.584L2551.79 478.664ZM2571.66 508.952V504.984H2587.66V508.952H2571.66ZM2590.16 478.664L2594.11 476.856L2607.54 504.776L2603.59 506.584L2590.16 478.664ZM2613.3 506.584L2609.35 504.776L2622.81 476.856L2626.73 478.664L2613.3 506.584ZM2628.54 478.664L2632.49 476.856L2645.91 504.776L2641.96 506.584L2628.54 478.664ZM2647.72 478.664L2651.68 476.856L2665.1 504.776L2661.15 506.584L2647.72 478.664ZM2666.91 478.664L2670.86 476.856L2684.29 504.776L2680.34 506.584L2666.91 478.664ZM2686.79 508.952V504.984H2704.71V508.952H2686.79ZM2704.05 508.952V504.984H2723.9V508.952H2704.05ZM2723.24 508.952V504.984H2741.16V508.952H2723.24ZM2743.66 478.664L2747.61 476.856L2761.04 504.776L2757.09 506.584L2743.66 478.664ZM2766.8 506.584L2762.85 504.776L2776.31 476.856L2780.23 478.664L2766.8 506.584ZM2782.04 478.664L2785.99 476.856L2799.41 504.776L2795.46 506.584L2782.04 478.664ZM2801.22 478.664L2805.18 476.856L2818.6 504.776L2814.65 506.584L2801.22 478.664ZM2820.41 478.664L2824.36 476.856L2837.79 504.776L2833.84 506.584L2820.41 478.664ZM2840.29 508.952V504.984H2858.21V508.952H2840.29ZM2857.55 508.952V504.984H2877.4V508.952H2857.55ZM2876.74 508.952V504.984H2896.58V508.952H2876.74ZM2895.93 508.952V504.984H2915.77V508.952H2895.93ZM2915.12 508.952V504.984H2934.96V508.952H2915.12ZM2934.3 508.952V504.984H2952.23V508.952H2934.3ZM2954.72 478.664L2958.68 476.856L2972.1 504.776L2968.15 506.584L2954.72 478.664ZM690.6 520.664L694.552 518.856L707.976 546.776L704.024 548.584L690.6 520.664ZM710.475 550.952V546.984H728.395V550.952H710.475ZM727.742 550.952V546.984H747.583V550.952H727.742ZM746.93 550.952V546.984H766.77V550.952H746.93ZM766.117 550.952V546.984H784.038V550.952H766.117ZM786.537 520.664L790.489 518.856L803.913 546.776L799.961 548.584L786.537 520.664ZM809.677 548.584L805.725 546.776L819.181 518.856L823.101 520.664L809.677 548.584ZM828.864 548.584L824.912 546.776L838.368 518.856L842.288 520.664L828.864 548.584ZM848.052 548.584L844.1 546.776L857.556 518.856L861.476 520.664L848.052 548.584ZM867.239 548.584L863.287 546.776L876.743 518.856L880.663 520.664L867.239 548.584ZM886.427 548.584L882.475 546.776L895.931 518.856L899.851 520.664L886.427 548.584ZM905.614 548.584L901.662 546.776L915.118 518.856L919.038 520.664L905.614 548.584ZM924.802 548.584L920.85 546.776L934.306 518.856L938.226 520.664L924.802 548.584ZM943.989 548.584L940.037 546.776L953.493 518.856L957.413 520.664L943.989 548.584ZM959.225 520.664L963.177 518.856L976.601 546.776L972.649 548.584L959.225 520.664ZM978.412 520.664L982.364 518.856L995.788 546.776L991.836 548.584L978.412 520.664ZM997.6 520.664L1001.55 518.856L1014.98 546.776L1011.02 548.584L997.6 520.664ZM1017.48 550.952V546.984H1035.4V550.952H1017.48ZM1034.74 550.952V546.984H1054.58V550.952H1034.74ZM1053.93 550.952V546.984H1073.77V550.952H1053.93ZM1073.12 550.952V546.984H1092.96V550.952H1073.12ZM1092.3 550.952V546.984H1112.15V550.952H1092.3ZM1111.49 550.952V546.984H1131.33V550.952H1111.49ZM1130.68 550.952V546.984H1150.52V550.952H1130.68ZM1149.87 550.952V546.984H1169.71V550.952H1149.87ZM1169.05 550.952V546.984H1188.9V550.952H1169.05ZM1188.24 550.952V546.984H1208.08V550.952H1188.24ZM1207.43 550.952V546.984H1227.27V550.952H1207.43ZM1226.62 550.952V546.984H1246.46V550.952H1226.62ZM1245.8 550.952V546.984H1263.73V550.952H1245.8ZM1266.22 520.664L1270.18 518.856L1283.6 546.776L1279.65 548.584L1266.22 520.664ZM1289.36 548.584L1285.41 546.776L1298.87 518.856L1302.79 520.664L1289.36 548.584ZM1308.55 548.584L1304.6 546.776L1318.06 518.856L1321.98 520.664L1308.55 548.584ZM1327.74 548.584L1323.79 546.776L1337.24 518.856L1341.16 520.664L1327.74 548.584ZM1346.93 548.584L1342.97 546.776L1356.43 518.856L1360.35 520.664L1346.93 548.584ZM1366.11 548.584L1362.16 546.776L1375.62 518.856L1379.54 520.664L1366.11 548.584ZM1385.3 548.584L1381.35 546.776L1394.81 518.856L1398.73 520.664L1385.3 548.584ZM1404.49 548.584L1400.54 546.776L1413.99 518.856L1417.91 520.664L1404.49 548.584ZM1423.68 548.584L1419.72 546.776L1433.18 518.856L1437.1 520.664L1423.68 548.584ZM1442.86 548.584L1438.91 546.776L1452.37 518.856L1456.29 520.664L1442.86 548.584ZM1462.05 548.584L1458.1 546.776L1471.56 518.856L1475.48 520.664L1462.05 548.584ZM1481.24 548.584L1477.29 546.776L1490.74 518.856L1494.66 520.664L1481.24 548.584ZM1500.43 548.584L1496.47 546.776L1509.93 518.856L1513.85 520.664L1500.43 548.584ZM1516.35 550.952V546.984H1534.27V550.952H1516.35ZM1533.62 550.952V546.984H1553.46V550.952H1533.62ZM1552.8 550.952V546.984H1572.65V550.952H1552.8ZM1571.99 550.952V546.984H1589.91V550.952H1571.99ZM1592.41 520.664L1596.36 518.856L1609.79 546.776L1605.84 548.584L1592.41 520.664ZM1650.73 548.584L1646.77 546.776L1660.23 518.856L1664.15 520.664L1650.73 548.584ZM1618.73 548.584L1614.77 546.776L1628.23 518.856L1632.15 520.664L1618.73 548.584ZM1634.73 548.584L1630.77 546.776L1644.23 518.856L1648.15 520.664L1634.73 548.584ZM1669.85 550.952V546.984H1687.77V550.952H1669.85ZM1687.12 550.952V546.984H1706.96V550.952H1687.12ZM1706.3 550.952V546.984H1726.15V550.952H1706.3ZM1725.49 550.952V546.984H1745.33V550.952H1725.49ZM1744.68 550.952V546.984H1764.52V550.952H1744.68ZM1763.87 550.952V546.984H1783.71V550.952H1763.87ZM1783.05 550.952V546.984H1802.9V550.952H1783.05ZM1802.24 550.952V546.984H1822.08V550.952H1802.24ZM1821.43 550.952V546.984H1839.35V550.952H1821.43ZM1841.85 520.664L1845.8 518.856L1859.23 546.776L1855.27 548.584L1841.85 520.664ZM1864.99 548.584L1861.04 546.776L1874.49 518.856L1878.41 520.664L1864.99 548.584ZM1884.18 548.584L1880.22 546.776L1893.68 518.856L1897.6 520.664L1884.18 548.584ZM1903.36 548.584L1899.41 546.776L1912.87 518.856L1916.79 520.664L1903.36 548.584ZM1922.55 548.584L1918.6 546.776L1932.06 518.856L1935.98 520.664L1922.55 548.584ZM1938.48 550.952V546.984H1956.4V550.952H1938.48ZM1955.74 550.952V546.984H1975.58V550.952H1955.74ZM1974.93 550.952V546.984H1994.77V550.952H1974.93ZM1994.12 550.952V546.984H2013.96V550.952H1994.12ZM2013.3 550.952V546.984H2033.15V550.952H2013.3ZM2032.49 550.952V546.984H2052.33V550.952H2032.49ZM2051.68 550.952V546.984H2069.6V550.952H2051.68ZM2072.1 520.664L2076.05 518.856L2089.48 546.776L2085.52 548.584L2072.1 520.664ZM2130.41 548.584L2126.46 546.776L2139.92 518.856L2143.84 520.664L2130.41 548.584ZM2098.41 548.584L2094.46 546.776L2107.92 518.856L2111.84 520.664L2098.41 548.584ZM2114.41 548.584L2110.46 546.776L2123.92 518.856L2127.84 520.664L2114.41 548.584ZM2149.54 550.952V546.984H2167.46V550.952H2149.54ZM2166.8 550.952V546.984H2186.65V550.952H2166.8ZM2185.99 550.952V546.984H2205.83V550.952H2185.99ZM2205.18 550.952V546.984H2223.1V550.952H2205.18ZM2225.6 520.664L2229.55 518.856L2242.98 546.776L2239.02 548.584L2225.6 520.664ZM2283.91 548.584L2279.96 546.776L2293.42 518.856L2297.34 520.664L2283.91 548.584ZM2251.91 548.584L2247.96 546.776L2261.42 518.856L2265.34 520.664L2251.91 548.584ZM2267.91 548.584L2263.96 546.776L2277.42 518.856L2281.34 520.664L2267.91 548.584ZM2303.04 550.952V546.984H2320.96V550.952H2303.04ZM2320.3 550.952V546.984H2338.23V550.952H2320.3ZM2340.72 520.664L2344.68 518.856L2358.1 546.776L2354.15 548.584L2340.72 520.664ZM2399.04 548.584L2395.09 546.776L2408.54 518.856L2412.46 520.664L2399.04 548.584ZM2367.04 548.584L2363.09 546.776L2376.54 518.856L2380.46 520.664L2367.04 548.584ZM2383.04 548.584L2379.09 546.776L2392.54 518.856L2396.46 520.664L2383.04 548.584ZM2418.16 550.952V546.984H2436.08V550.952H2418.16ZM2435.43 550.952V546.984H2455.27V550.952H2435.43ZM2454.62 550.952V546.984H2474.46V550.952H2454.62ZM2473.8 550.952V546.984H2491.73V550.952H2473.8ZM2494.22 520.664L2498.18 518.856L2511.6 546.776L2507.65 548.584L2494.22 520.664ZM2552.54 548.584L2548.59 546.776L2562.04 518.856L2565.96 520.664L2552.54 548.584ZM2520.54 548.584L2516.59 546.776L2530.04 518.856L2533.96 520.664L2520.54 548.584ZM2536.54 548.584L2532.59 546.776L2546.04 518.856L2549.96 520.664L2536.54 548.584ZM2571.66 550.952V546.984H2589.58V550.952H2571.66ZM2588.93 550.952V546.984H2606.85V550.952H2588.93ZM2609.35 520.664L2613.3 518.856L2626.73 546.776L2622.77 548.584L2609.35 520.664ZM2667.66 548.584L2663.71 546.776L2677.17 518.856L2681.09 520.664L2667.66 548.584ZM2635.66 548.584L2631.71 546.776L2645.17 518.856L2649.09 520.664L2635.66 548.584ZM2651.66 548.584L2647.71 546.776L2661.17 518.856L2665.09 520.664L2651.66 548.584ZM2686.79 550.952V546.984H2704.71V550.952H2686.79ZM2704.05 550.952V546.984H2723.9V550.952H2704.05ZM2723.24 550.952V546.984H2743.08V550.952H2723.24ZM2742.43 550.952V546.984H2760.35V550.952H2742.43ZM2762.85 520.664L2766.8 518.856L2780.23 546.776L2776.27 548.584L2762.85 520.664ZM2821.16 548.584L2817.21 546.776L2830.67 518.856L2834.59 520.664L2821.16 548.584ZM2789.16 548.584L2785.21 546.776L2798.67 518.856L2802.59 520.664L2789.16 548.584ZM2805.16 548.584L2801.21 546.776L2814.67 518.856L2818.59 520.664L2805.16 548.584ZM2840.29 550.952V546.984H2858.21V550.952H2840.29ZM2857.55 550.952V546.984H2877.4V550.952H2857.55ZM2876.74 550.952V546.984H2896.58V550.952H2876.74ZM2895.93 550.952V546.984H2915.77V550.952H2895.93ZM2915.12 550.952V546.984H2934.96V550.952H2915.12ZM2934.3 550.952V546.984H2954.15V550.952H2934.3ZM2953.49 550.952V546.984H2971.41V550.952H2953.49ZM2973.91 520.664L2977.86 518.856L2991.29 546.776L2987.34 548.584L2973.91 520.664ZM848.052 590.584L844.1 588.776L857.556 560.856L861.476 562.664L848.052 590.584ZM863.287 562.664L867.239 560.856L880.663 588.776L876.711 590.584L863.287 562.664ZM882.475 562.664L886.427 560.856L899.851 588.776L895.899 590.584L882.475 562.664ZM901.662 562.664L905.614 560.856L919.038 588.776L915.086 590.584L901.662 562.664ZM940.037 562.664L943.989 560.856L957.413 588.776L953.461 590.584L940.037 562.664ZM963.177 590.584L959.225 588.776L972.681 560.856L976.601 562.664L963.177 590.584ZM978.412 562.664L982.364 560.856L995.788 588.776L991.836 590.584L978.412 562.664ZM997.6 562.664L1001.55 560.856L1014.98 588.776L1011.02 590.584L997.6 562.664ZM1016.79 562.664L1020.74 560.856L1034.16 588.776L1030.21 590.584L1016.79 562.664ZM828.864 632.584L824.912 630.776L838.368 602.856L842.288 604.664L828.864 632.584ZM844.1 604.664L848.052 602.856L861.476 630.776L857.524 632.584L844.1 604.664ZM863.287 604.664L867.239 602.856L880.663 630.776L876.711 632.584L863.287 604.664ZM882.475 604.664L886.427 602.856L899.851 630.776L895.899 632.584L882.475 604.664ZM901.662 604.664L905.614 602.856L919.038 630.776L915.086 632.584L901.662 604.664ZM920.85 604.664L924.802 602.856L938.226 630.776L934.274 632.584L920.85 604.664ZM940.037 604.664L943.989 602.856L957.413 630.776L953.461 632.584L940.037 604.664ZM959.225 604.664L963.177 602.856L976.601 630.776L972.649 632.584L959.225 604.664ZM978.412 604.664L982.364 602.856L995.788 630.776L991.836 632.584L978.412 604.664ZM997.6 604.664L1001.55 602.856L1014.98 630.776L1011.02 632.584L997.6 604.664ZM1016.79 604.664L1020.74 602.856L1034.16 630.776L1030.21 632.584L1016.79 604.664ZM824.912 646.664L828.864 644.856L842.288 672.776L838.336 674.584L824.912 646.664ZM848.052 674.584L844.1 672.776L857.556 644.856L861.476 646.664L848.052 674.584ZM863.287 646.664L867.239 644.856L880.663 672.776L876.711 674.584L863.287 646.664ZM882.475 646.664L886.427 644.856L899.851 672.776L895.899 674.584L882.475 646.664ZM901.662 646.664L905.614 644.856L919.038 672.776L915.086 674.584L901.662 646.664ZM920.85 646.664L924.802 644.856L938.226 672.776L934.274 674.584L920.85 646.664ZM940.037 646.664L943.989 644.856L957.413 672.776L953.461 674.584L940.037 646.664ZM998.352 674.584L994.399 672.776L1007.86 644.856L1011.78 646.664L998.352 674.584ZM966.351 674.584L962.399 672.776L975.855 644.856L979.775 646.664L966.351 674.584ZM982.351 674.584L978.399 672.776L991.855 644.856L995.775 646.664L982.351 674.584ZM844.1 688.664L848.052 686.856L861.476 714.776L857.524 716.584L844.1 688.664ZM867.239 716.584L863.287 714.776L876.743 686.856L880.663 688.664L867.239 716.584ZM886.427 716.584L882.475 714.776L895.931 686.856L899.851 688.664L886.427 716.584ZM905.614 716.584L901.662 714.776L915.118 686.856L919.038 688.664L905.614 716.584ZM924.802 716.584L920.85 714.776L934.306 686.856L938.226 688.664L924.802 716.584ZM943.989 716.584L940.037 714.776L953.493 686.856L957.413 688.664L943.989 716.584Z" fill="white"/>
</svg>
