<!--Copyright © 2026 Vacyyyy
All rights reserved. May not be reused in forks or derivatives without explicit permission-->
<svg width="4106" height="775" viewBox="0 0 4106 775" fill="none" xmlns="http://www.w3.org/2000/svg">
<rect width="4106" height="775" fill="#030303"/>
<path d="M1069.49 86.584L1065.54 84.776L1078.99 56.856L1082.91 58.664L1069.49 86.584ZM1084.72 58.664L1088.68 56.856L1102.1 84.776L1098.15 86.584L1084.72 58.664ZM1103.91 58.664L1107.86 56.856L1121.29 84.776L1117.34 86.584L1103.91 58.664ZM3282.32 63.592V83H3279.16V63.592H3272.37V60.952H3289.22L3288.88 63.592H3282.32ZM3307.42 60.952L3308.66 83H3305.69L3305.06 71.816C3305.03 71.0267 3305 70.2427 3304.98 69.464C3304.96 68.6747 3304.95 67.9227 3304.94 67.208C3304.94 66.4933 3304.94 65.8427 3304.94 65.256C3304.95 64.6693 3304.96 64.184 3304.97 63.8L3301.45 79.08H3298.47L3294.7 63.8C3294.72 64.1733 3294.73 64.664 3294.74 65.272C3294.76 65.88 3294.78 66.552 3294.78 67.288C3294.79 68.024 3294.79 68.7813 3294.78 69.56C3294.76 70.3387 3294.75 71.0907 3294.73 71.816L3294.2 83H3291.29L3292.54 60.952H3296.65L3300.04 75.912L3303.27 60.952H3307.42ZM1069.49 128.584L1065.54 126.776L1078.99 98.856L1082.91 100.664L1069.49 128.584ZM1084.72 100.664L1088.68 98.856L1102.1 126.776L1098.15 128.584L1084.72 100.664ZM1103.91 100.664L1107.86 98.856L1121.29 126.776L1117.34 128.584L1103.91 100.664ZM1123.1 100.664L1127.05 98.856L1140.48 126.776L1136.52 128.584L1123.1 100.664ZM1142.29 100.664L1146.24 98.856L1159.66 126.776L1155.71 128.584L1142.29 100.664ZM1069.49 170.584L1065.54 168.776L1078.99 140.856L1082.91 142.664L1069.49 170.584ZM1084.72 142.664L1088.68 140.856L1102.1 168.776L1098.15 170.584L1084.72 142.664ZM1103.91 142.664L1107.86 140.856L1121.29 168.776L1117.34 170.584L1103.91 142.664ZM1123.1 142.664L1127.05 140.856L1140.48 168.776L1136.52 170.584L1123.1 142.664ZM1146.24 170.584L1142.29 168.776L1155.74 140.856L1159.66 142.664L1146.24 170.584ZM1161.47 142.664L1165.43 140.856L1178.85 168.776L1174.9 170.584L1161.47 142.664ZM1180.66 142.664L1184.61 140.856L1198.04 168.776L1194.09 170.584L1180.66 142.664ZM835.975 214.952V210.984H853.895V214.952H835.975ZM853.242 214.952V210.984H873.083V214.952H853.242ZM872.43 214.952V210.984H892.27V214.952H872.43ZM891.617 214.952V210.984H911.458V214.952H891.617ZM910.805 214.952V210.984H930.645V214.952H910.805ZM929.992 214.952V210.984H949.833V214.952H929.992ZM949.18 214.952V210.984H969.02V214.952H949.18ZM968.367 214.952V210.984H988.208V214.952H968.367ZM987.555 214.952V210.984H1007.4V214.952H987.555ZM1006.74 214.952V210.984H1026.58V214.952H1006.74ZM1025.93 214.952V210.984H1045.77V214.952H1025.93ZM1045.12 214.952V210.984H1063.04V214.952H1045.12ZM1065.54 184.664L1069.49 182.856L1082.91 210.776L1078.96 212.584L1065.54 184.664ZM1088.68 212.584L1084.72 210.776L1098.18 182.856L1102.1 184.664L1088.68 212.584ZM1103.91 184.664L1107.86 182.856L1121.29 210.776L1117.34 212.584L1103.91 184.664ZM1123.1 184.664L1127.05 182.856L1140.48 210.776L1136.52 212.584L1123.1 184.664ZM1142.29 184.664L1146.24 182.856L1159.66 210.776L1155.71 212.584L1142.29 184.664ZM1165.43 212.584L1161.47 210.776L1174.93 182.856L1178.85 184.664L1165.43 212.584ZM1180.66 184.664L1184.61 182.856L1198.04 210.776L1194.09 212.584L1180.66 184.664ZM1199.85 184.664L1203.8 182.856L1217.23 210.776L1213.27 212.584L1199.85 184.664ZM1219.73 214.952V210.984H1237.65V214.952H1219.73ZM1236.99 214.952V210.984H1256.83V214.952H1236.99ZM1256.18 214.952V210.984H1276.02V214.952H1256.18ZM1275.37 214.952V210.984H1295.21V214.952H1275.37ZM1294.55 214.952V210.984H1314.4V214.952H1294.55ZM1313.74 214.952V210.984H1333.58V214.952H1313.74ZM1332.93 214.952V210.984H1352.77V214.952H1332.93ZM1352.12 214.952V210.984H1371.96V214.952H1352.12ZM1371.3 214.952V210.984H1391.15V214.952H1371.3ZM1390.49 214.952V210.984H1410.33V214.952H1390.49ZM1409.68 214.952V210.984H1429.52V214.952H1409.68ZM1428.87 214.952V210.984H1446.79V214.952H1428.87ZM1453.24 212.584L1449.29 210.776L1462.74 182.856L1466.66 184.664L1453.24 212.584ZM1468.47 184.664L1472.43 182.856L1485.85 210.776L1481.9 212.584L1468.47 184.664ZM1487.66 184.664L1491.61 182.856L1505.04 210.776L1501.09 212.584L1487.66 184.664ZM1506.85 184.664L1510.8 182.856L1524.23 210.776L1520.27 212.584L1506.85 184.664ZM1526.04 184.664L1529.99 182.856L1543.41 210.776L1539.46 212.584L1526.04 184.664ZM1545.22 184.664L1549.18 182.856L1562.6 210.776L1558.65 212.584L1545.22 184.664ZM1564.41 184.664L1568.36 182.856L1581.79 210.776L1577.84 212.584L1564.41 184.664ZM1583.6 184.664L1587.55 182.856L1600.98 210.776L1597.02 212.584L1583.6 184.664ZM1602.79 184.664L1606.74 182.856L1620.16 210.776L1616.21 212.584L1602.79 184.664ZM1621.97 184.664L1625.93 182.856L1639.35 210.776L1635.4 212.584L1621.97 184.664ZM1641.16 184.664L1645.11 182.856L1658.54 210.776L1654.59 212.584L1641.16 184.664ZM1660.35 184.664L1664.3 182.856L1677.73 210.776L1673.77 212.584L1660.35 184.664ZM1679.54 184.664L1683.49 182.856L1696.91 210.776L1692.96 212.584L1679.54 184.664ZM1699.41 214.952V210.984H1717.33V214.952H1699.41ZM1716.68 214.952V210.984H1736.52V214.952H1716.68ZM1735.87 214.952V210.984H1755.71V214.952H1735.87ZM1755.05 214.952V210.984H1774.9V214.952H1755.05ZM1774.24 214.952V210.984H1794.08V214.952H1774.24ZM1793.43 214.952V210.984H1813.27V214.952H1793.43ZM1812.62 214.952V210.984H1832.46V214.952H1812.62ZM1831.8 214.952V210.984H1851.65V214.952H1831.8ZM1850.99 214.952V210.984H1870.83V214.952H1850.99ZM1870.18 214.952V210.984H1890.02V214.952H1870.18ZM1889.37 214.952V210.984H1909.21V214.952H1889.37ZM1908.55 214.952V210.984H1928.4V214.952H1908.55ZM1927.74 214.952V210.984H1947.58V214.952H1927.74ZM1946.93 214.952V210.984H1966.77V214.952H1946.93ZM1966.12 214.952V210.984H1985.96V214.952H1966.12ZM1985.3 214.952V210.984H2005.15V214.952H1985.3ZM2004.49 214.952V210.984H2024.33V214.952H2004.49ZM2023.68 214.952V210.984H2043.52V214.952H2023.68ZM2042.87 214.952V210.984H2062.71V214.952H2042.87ZM2062.05 214.952V210.984H2081.9V214.952H2062.05ZM2081.24 214.952V210.984H2101.08V214.952H2081.24ZM2100.43 214.952V210.984H2120.27V214.952H2100.43ZM2119.62 214.952V210.984H2139.46V214.952H2119.62ZM2138.8 214.952V210.984H2158.65V214.952H2138.8ZM2157.99 214.952V210.984H2177.83V214.952H2157.99ZM2177.18 214.952V210.984H2197.02V214.952H2177.18ZM2196.37 214.952V210.984H2216.21V214.952H2196.37ZM2215.55 214.952V210.984H2235.4V214.952H2215.55ZM2234.74 214.952V210.984H2254.58V214.952H2234.74ZM2253.93 214.952V210.984H2273.77V214.952H2253.93ZM2273.12 214.952V210.984H2292.96V214.952H2273.12ZM2292.3 214.952V210.984H2312.15V214.952H2292.3ZM2311.49 214.952V210.984H2331.33V214.952H2311.49ZM2330.68 214.952V210.984H2350.52V214.952H2330.68ZM2349.87 214.952V210.984H2369.71V214.952H2349.87ZM2369.05 214.952V210.984H2388.9V214.952H2369.05ZM2388.24 214.952V210.984H2408.08V214.952H2388.24ZM2407.43 214.952V210.984H2427.27V214.952H2407.43ZM2426.62 214.952V210.984H2446.46V214.952H2426.62ZM2445.8 214.952V210.984H2465.65V214.952H2445.8ZM2464.99 214.952V210.984H2484.83V214.952H2464.99ZM2484.18 214.952V210.984H2504.02V214.952H2484.18ZM2503.37 214.952V210.984H2523.21V214.952H2503.37ZM2522.55 214.952V210.984H2542.4V214.952H2522.55ZM2541.74 214.952V210.984H2561.58V214.952H2541.74ZM2560.93 214.952V210.984H2580.77V214.952H2560.93ZM2580.12 214.952V210.984H2599.96V214.952H2580.12ZM2599.3 214.952V210.984H2619.15V214.952H2599.3ZM2618.49 214.952V210.984H2638.33V214.952H2618.49ZM2637.68 214.952V210.984H2657.52V214.952H2637.68ZM2656.87 214.952V210.984H2676.71V214.952H2656.87ZM2676.05 214.952V210.984H2695.9V214.952H2676.05ZM2695.24 214.952V210.984H2715.08V214.952H2695.24ZM2714.43 214.952V210.984H2734.27V214.952H2714.43ZM2733.62 214.952V210.984H2753.46V214.952H2733.62ZM2752.8 214.952V210.984H2772.65V214.952H2752.8ZM2771.99 214.952V210.984H2791.83V214.952H2771.99ZM2791.18 214.952V210.984H2811.02V214.952H2791.18ZM2810.37 214.952V210.984H2830.21V214.952H2810.37ZM2829.55 214.952V210.984H2849.4V214.952H2829.55ZM2848.74 214.952V210.984H2868.58V214.952H2848.74ZM2867.93 214.952V210.984H2887.77V214.952H2867.93ZM2887.12 214.952V210.984H2906.96V214.952H2887.12ZM2906.3 214.952V210.984H2926.15V214.952H2906.3ZM2925.49 214.952V210.984H2945.33V214.952H2925.49ZM2944.68 214.952V210.984H2964.52V214.952H2944.68ZM2963.87 214.952V210.984H2983.71V214.952H2963.87ZM2983.05 214.952V210.984H3002.9V214.952H2983.05ZM3002.24 214.952V210.984H3022.08V214.952H3002.24ZM3021.43 214.952V210.984H3041.27V214.952H3021.43ZM3040.62 214.952V210.984H3060.46V214.952H3040.62ZM3059.8 214.952V210.984H3079.65V214.952H3059.8ZM3078.99 214.952V210.984H3098.83V214.952H3078.99ZM3098.18 214.952V210.984H3116.1V214.952H3098.18ZM835.287 226.664L839.239 224.856L852.663 252.776L848.711 254.584L835.287 226.664ZM855.163 256.952V252.984H873.083V256.952H855.163ZM872.43 256.952V252.984H892.27V256.952H872.43ZM891.617 256.952V252.984H911.458V256.952H891.617ZM910.805 256.952V252.984H930.645V256.952H910.805ZM929.992 256.952V252.984H949.833V256.952H929.992ZM949.18 256.952V252.984H969.02V256.952H949.18ZM968.367 256.952V252.984H988.208V256.952H968.367ZM987.555 256.952V252.984H1007.4V256.952H987.555ZM1006.74 256.952V252.984H1026.58V256.952H1006.74ZM1025.93 256.952V252.984H1045.77V256.952H1025.93ZM1045.12 256.952V252.984H1063.04V256.952H1045.12ZM1065.54 226.664L1069.49 224.856L1082.91 252.776L1078.96 254.584L1065.54 226.664ZM1088.68 254.584L1084.72 252.776L1098.18 224.856L1102.1 226.664L1088.68 254.584ZM1103.91 226.664L1107.86 224.856L1121.29 252.776L1117.34 254.584L1103.91 226.664ZM1123.1 226.664L1127.05 224.856L1140.48 252.776L1136.52 254.584L1123.1 226.664ZM1146.24 254.584L1142.29 252.776L1155.74 224.856L1159.66 226.664L1146.24 254.584ZM1161.47 226.664L1165.43 224.856L1178.85 252.776L1174.9 254.584L1161.47 226.664ZM1180.66 226.664L1184.61 224.856L1198.04 252.776L1194.09 254.584L1180.66 226.664ZM1200.54 256.952V252.984H1218.46V256.952H1200.54ZM1217.8 256.952V252.984H1237.65V256.952H1217.8ZM1236.99 256.952V252.984H1256.83V256.952H1236.99ZM1256.18 256.952V252.984H1276.02V256.952H1256.18ZM1275.37 256.952V252.984H1295.21V256.952H1275.37ZM1294.55 256.952V252.984H1314.4V256.952H1294.55ZM1313.74 256.952V252.984H1333.58V256.952H1313.74ZM1332.93 256.952V252.984H1352.77V256.952H1332.93ZM1352.12 256.952V252.984H1371.96V256.952H1352.12ZM1371.3 256.952V252.984H1391.15V256.952H1371.3ZM1390.49 256.952V252.984H1410.33V256.952H1390.49ZM1409.68 256.952V252.984H1427.6V256.952H1409.68ZM1434.05 254.584L1430.1 252.776L1443.56 224.856L1447.48 226.664L1434.05 254.584ZM1449.29 226.664L1453.24 224.856L1466.66 252.776L1462.71 254.584L1449.29 226.664ZM1468.47 226.664L1472.43 224.856L1485.85 252.776L1481.9 254.584L1468.47 226.664ZM1487.66 226.664L1491.61 224.856L1505.04 252.776L1501.09 254.584L1487.66 226.664ZM1506.85 226.664L1510.8 224.856L1524.23 252.776L1520.27 254.584L1506.85 226.664ZM1529.99 254.584L1526.04 252.776L1539.49 224.856L1543.41 226.664L1529.99 254.584ZM1549.18 254.584L1545.22 252.776L1558.68 224.856L1562.6 226.664L1549.18 254.584ZM1568.36 254.584L1564.41 252.776L1577.87 224.856L1581.79 226.664L1568.36 254.584ZM1587.55 254.584L1583.6 252.776L1597.06 224.856L1600.98 226.664L1587.55 254.584ZM1606.74 254.584L1602.79 252.776L1616.24 224.856L1620.16 226.664L1606.74 254.584ZM1625.93 254.584L1621.97 252.776L1635.43 224.856L1639.35 226.664L1625.93 254.584ZM1645.11 254.584L1641.16 252.776L1654.62 224.856L1658.54 226.664L1645.11 254.584ZM1664.3 254.584L1660.35 252.776L1673.81 224.856L1677.73 226.664L1664.3 254.584ZM1679.54 226.664L1683.49 224.856L1696.91 252.776L1692.96 254.584L1679.54 226.664ZM1698.72 226.664L1702.68 224.856L1716.1 252.776L1712.15 254.584L1698.72 226.664ZM1717.91 226.664L1721.86 224.856L1735.29 252.776L1731.34 254.584L1717.91 226.664ZM1737.79 256.952V252.984H1755.71V256.952H1737.79ZM1755.05 256.952V252.984H1774.9V256.952H1755.05ZM1774.24 256.952V252.984H1794.08V256.952H1774.24ZM1793.43 256.952V252.984H1813.27V256.952H1793.43ZM1812.62 256.952V252.984H1832.46V256.952H1812.62ZM1831.8 256.952V252.984H1851.65V256.952H1831.8ZM1850.99 256.952V252.984H1870.83V256.952H1850.99ZM1870.18 256.952V252.984H1890.02V256.952H1870.18ZM1889.37 256.952V252.984H1909.21V256.952H1889.37ZM1908.55 256.952V252.984H1928.4V256.952H1908.55ZM1927.74 256.952V252.984H1947.58V256.952H1927.74ZM1946.93 256.952V252.984H1966.77V256.952H1946.93ZM1966.12 256.952V252.984H1985.96V256.952H1966.12ZM1985.3 256.952V252.984H2005.15V256.952H1985.3ZM2004.49 256.952V252.984H2024.33V256.952H2004.49ZM2023.68 256.952V252.984H2043.52V256.952H2023.68ZM2042.87 256.952V252.984H2062.71V256.952H2042.87ZM2062.05 256.952V252.984H2081.9V256.952H2062.05ZM2081.24 256.952V252.984H2101.08V256.952H2081.24ZM2100.43 256.952V252.984H2120.27V256.952H2100.43ZM2119.62 256.952V252.984H2139.46V256.952H2119.62ZM2138.8 256.952V252.984H2158.65V256.952H2138.8ZM2157.99 256.952V252.984H2177.83V256.952H2157.99ZM2177.18 256.952V252.984H2197.02V256.952H2177.18ZM2196.37 256.952V252.984H2216.21V256.952H2196.37ZM2215.55 256.952V252.984H2235.4V256.952H2215.55ZM2234.74 256.952V252.984H2254.58V256.952H2234.74ZM2253.93 256.952V252.984H2273.77V256.952H2253.93ZM2273.12 256.952V252.984H2292.96V256.952H2273.12ZM2292.3 256.952V252.984H2312.15V256.952H2292.3ZM2311.49 256.952V252.984H2331.33V256.952H2311.49ZM2330.68 256.952V252.984H2350.52V256.952H2330.68ZM2349.87 256.952V252.984H2369.71V256.952H2349.87ZM2369.05 256.952V252.984H2388.9V256.952H2369.05ZM2388.24 256.952V252.984H2408.08V256.952H2388.24ZM2407.43 256.952V252.984H2427.27V256.952H2407.43ZM2426.62 256.952V252.984H2446.46V256.952H2426.62ZM2445.8 256.952V252.984H2465.65V256.952H2445.8ZM2464.99 256.952V252.984H2484.83V256.952H2464.99ZM2484.18 256.952V252.984H2504.02V256.952H2484.18ZM2503.37 256.952V252.984H2523.21V256.952H2503.37ZM2522.55 256.952V252.984H2542.4V256.952H2522.55ZM2541.74 256.952V252.984H2561.58V256.952H2541.74ZM2560.93 256.952V252.984H2580.77V256.952H2560.93ZM2580.12 256.952V252.984H2599.96V256.952H2580.12ZM2599.3 256.952V252.984H2619.15V256.952H2599.3ZM2618.49 256.952V252.984H2638.33V256.952H2618.49ZM2637.68 256.952V252.984H2657.52V256.952H2637.68ZM2656.87 256.952V252.984H2676.71V256.952H2656.87ZM2676.05 256.952V252.984H2695.9V256.952H2676.05ZM2695.24 256.952V252.984H2715.08V256.952H2695.24ZM2714.43 256.952V252.984H2734.27V256.952H2714.43ZM2733.62 256.952V252.984H2753.46V256.952H2733.62ZM2752.8 256.952V252.984H2772.65V256.952H2752.8ZM2771.99 256.952V252.984H2791.83V256.952H2771.99ZM2791.18 256.952V252.984H2811.02V256.952H2791.18ZM2810.37 256.952V252.984H2830.21V256.952H2810.37ZM2829.55 256.952V252.984H2849.4V256.952H2829.55ZM2848.74 256.952V252.984H2868.58V256.952H2848.74ZM2867.93 256.952V252.984H2887.77V256.952H2867.93ZM2887.12 256.952V252.984H2906.96V256.952H2887.12ZM2906.3 256.952V252.984H2926.15V256.952H2906.3ZM2925.49 256.952V252.984H2945.33V256.952H2925.49ZM2944.68 256.952V252.984H2964.52V256.952H2944.68ZM2963.87 256.952V252.984H2983.71V256.952H2963.87ZM2983.05 256.952V252.984H3002.9V256.952H2983.05ZM3002.24 256.952V252.984H3022.08V256.952H3002.24ZM3021.43 256.952V252.984H3041.27V256.952H3021.43ZM3040.62 256.952V252.984H3060.46V256.952H3040.62ZM3059.8 256.952V252.984H3079.65V256.952H3059.8ZM3078.99 256.952V252.984H3098.83V256.952H3078.99ZM3098.18 256.952V252.984H3116.1V256.952H3098.18ZM3118.6 226.664L3122.55 224.856L3135.98 252.776L3132.02 254.584L3118.6 226.664ZM854.475 268.664L858.427 266.856L871.851 294.776L867.899 296.584L854.475 268.664ZM874.35 298.952V294.984H892.27V298.952H874.35ZM891.617 298.952V294.984H911.458V298.952H891.617ZM910.805 298.952V294.984H930.645V298.952H910.805ZM929.992 298.952V294.984H949.833V298.952H929.992ZM949.18 298.952V294.984H969.02V298.952H949.18ZM968.367 298.952V294.984H988.208V298.952H968.367ZM987.555 298.952V294.984H1007.4V298.952H987.555ZM1006.74 298.952V294.984H1026.58V298.952H1006.74ZM1025.93 298.952V294.984H1045.77V298.952H1025.93ZM1045.12 298.952V294.984H1063.04V298.952H1045.12ZM1069.49 296.584L1065.54 294.776L1078.99 266.856L1082.91 268.664L1069.49 296.584ZM1084.72 268.664L1088.68 266.856L1102.1 294.776L1098.15 296.584L1084.72 268.664ZM1103.91 268.664L1107.86 266.856L1121.29 294.776L1117.34 296.584L1103.91 268.664ZM1123.1 268.664L1127.05 266.856L1140.48 294.776L1136.52 296.584L1123.1 268.664ZM1142.29 268.664L1146.24 266.856L1159.66 294.776L1155.71 296.584L1142.29 268.664ZM1161.47 268.664L1165.43 266.856L1178.85 294.776L1174.9 296.584L1161.47 268.664ZM1184.61 296.584L1180.66 294.776L1194.12 266.856L1198.04 268.664L1184.61 296.584ZM1200.54 298.952V294.984H1218.46V298.952H1200.54ZM1217.8 298.952V294.984H1237.65V298.952H1217.8ZM1236.99 298.952V294.984H1256.83V298.952H1236.99ZM1256.18 298.952V294.984H1276.02V298.952H1256.18ZM1275.37 298.952V294.984H1295.21V298.952H1275.37ZM1294.55 298.952V294.984H1314.4V298.952H1294.55ZM1313.74 298.952V294.984H1333.58V298.952H1313.74ZM1332.93 298.952V294.984H1352.77V298.952H1332.93ZM1352.12 298.952V294.984H1371.96V298.952H1352.12ZM1371.3 298.952V294.984H1391.15V298.952H1371.3ZM1390.49 298.952V294.984H1410.33V298.952H1390.49ZM1409.68 298.952V294.984H1427.6V298.952H1409.68ZM1430.1 268.664L1434.05 266.856L1447.48 294.776L1443.52 296.584L1430.1 268.664ZM1454.83 296.584L1450.87 294.776L1464.33 266.856L1468.25 268.664L1454.83 296.584ZM1470.83 296.584L1466.87 294.776L1480.33 266.856L1484.25 268.664L1470.83 296.584ZM1487.66 268.664L1491.61 266.856L1505.04 294.776L1501.09 296.584L1487.66 268.664ZM1506.85 268.664L1510.8 266.856L1524.23 294.776L1520.27 296.584L1506.85 268.664ZM1526.04 268.664L1529.99 266.856L1543.41 294.776L1539.46 296.584L1526.04 268.664ZM1545.22 268.664L1549.18 266.856L1562.6 294.776L1558.65 296.584L1545.22 268.664ZM1565.1 298.952V294.984H1583.02V298.952H1565.1ZM1582.37 298.952V294.984H1602.21V298.952H1582.37ZM1601.55 298.952V294.984H1621.4V298.952H1601.55ZM1620.74 298.952V294.984H1640.58V298.952H1620.74ZM1639.93 298.952V294.984H1657.85V298.952H1639.93ZM1660.35 268.664L1664.3 266.856L1677.73 294.776L1673.77 296.584L1660.35 268.664ZM1718.66 296.584L1714.71 294.776L1728.17 266.856L1732.09 268.664L1718.66 296.584ZM1686.66 296.584L1682.71 294.776L1696.17 266.856L1700.09 268.664L1686.66 296.584ZM1702.66 296.584L1698.71 294.776L1712.17 266.856L1716.09 268.664L1702.66 296.584ZM1737.79 298.952V294.984H1755.71V298.952H1737.79ZM1755.05 298.952V294.984H1774.9V298.952H1755.05ZM1774.24 298.952V294.984H1792.16V298.952H1774.24ZM1798.61 296.584L1794.66 294.776L1808.12 266.856L1812.04 268.664L1798.61 296.584ZM1813.85 268.664L1817.8 266.856L1831.23 294.776L1827.27 296.584L1813.85 268.664ZM1833.04 268.664L1836.99 266.856L1850.41 294.776L1846.46 296.584L1833.04 268.664ZM1852.22 268.664L1856.18 266.856L1869.6 294.776L1865.65 296.584L1852.22 268.664ZM1871.41 268.664L1875.36 266.856L1888.79 294.776L1884.84 296.584L1871.41 268.664ZM1890.6 268.664L1894.55 266.856L1907.98 294.776L1904.02 296.584L1890.6 268.664ZM1909.79 268.664L1913.74 266.856L1927.16 294.776L1923.21 296.584L1909.79 268.664ZM1928.97 268.664L1932.93 266.856L1946.35 294.776L1942.4 296.584L1928.97 268.664ZM1948.16 268.664L1952.11 266.856L1965.54 294.776L1961.59 296.584L1948.16 268.664ZM1967.35 268.664L1971.3 266.856L1984.73 294.776L1980.77 296.584L1967.35 268.664ZM1987.23 298.952V294.984H2005.15V298.952H1987.23ZM2004.49 298.952V294.984H2024.33V298.952H2004.49ZM2023.68 298.952V294.984H2041.6V298.952H2023.68ZM2048.05 296.584L2044.1 294.776L2057.56 266.856L2061.48 268.664L2048.05 296.584ZM2063.29 268.664L2067.24 266.856L2080.66 294.776L2076.71 296.584L2063.29 268.664ZM2082.47 268.664L2086.43 266.856L2099.85 294.776L2095.9 296.584L2082.47 268.664ZM2101.66 268.664L2105.61 266.856L2119.04 294.776L2115.09 296.584L2101.66 268.664ZM2121.54 298.952V294.984H2139.46V298.952H2121.54ZM2138.8 298.952V294.984H2156.73V298.952H2138.8ZM2163.18 296.584L2159.22 294.776L2172.68 266.856L2176.6 268.664L2163.18 296.584ZM2178.41 268.664L2182.36 266.856L2195.79 294.776L2191.84 296.584L2178.41 268.664ZM2197.6 268.664L2201.55 266.856L2214.98 294.776L2211.02 296.584L2197.6 268.664ZM2216.79 268.664L2220.74 266.856L2234.16 294.776L2230.21 296.584L2216.79 268.664ZM2236.66 298.952V294.984H2252.66V298.952H2236.66ZM2259.11 296.584L2255.16 294.776L2268.62 266.856L2272.54 268.664L2259.11 296.584ZM2274.35 268.664L2278.3 266.856L2291.73 294.776L2287.77 296.584L2274.35 268.664ZM2293.54 268.664L2297.49 266.856L2310.91 294.776L2306.96 296.584L2293.54 268.664ZM2316.68 296.584L2312.72 294.776L2326.18 266.856L2330.1 268.664L2316.68 296.584ZM2331.91 268.664L2335.86 266.856L2349.29 294.776L2345.34 296.584L2331.91 268.664ZM2351.1 268.664L2355.05 266.856L2368.48 294.776L2364.52 296.584L2351.1 268.664ZM2370.29 268.664L2374.24 266.856L2387.66 294.776L2383.71 296.584L2370.29 268.664ZM2389.47 268.664L2393.43 266.856L2406.85 294.776L2402.9 296.584L2389.47 268.664ZM2408.66 268.664L2412.61 266.856L2426.04 294.776L2422.09 296.584L2408.66 268.664ZM2427.85 268.664L2431.8 266.856L2445.23 294.776L2441.27 296.584L2427.85 268.664ZM2447.73 298.952V294.984H2465.65V298.952H2447.73ZM2464.99 298.952V294.984H2484.83V298.952H2464.99ZM2484.18 298.952V294.984H2504.02V298.952H2484.18ZM2503.37 298.952V294.984H2521.29V298.952H2503.37ZM2527.74 296.584L2523.79 294.776L2537.24 266.856L2541.16 268.664L2527.74 296.584ZM2542.97 268.664L2546.93 266.856L2560.35 294.776L2556.4 296.584L2542.97 268.664ZM2562.16 268.664L2566.11 266.856L2579.54 294.776L2575.59 296.584L2562.16 268.664ZM2585.3 296.584L2581.35 294.776L2594.81 266.856L2598.73 268.664L2585.3 296.584ZM2600.54 268.664L2604.49 266.856L2617.91 294.776L2613.96 296.584L2600.54 268.664ZM2619.72 268.664L2623.68 266.856L2637.1 294.776L2633.15 296.584L2619.72 268.664ZM2638.91 268.664L2642.86 266.856L2656.29 294.776L2652.34 296.584L2638.91 268.664ZM2658.1 268.664L2662.05 266.856L2675.48 294.776L2671.52 296.584L2658.1 268.664ZM2677.29 268.664L2681.24 266.856L2694.66 294.776L2690.71 296.584L2677.29 268.664ZM2696.47 268.664L2700.43 266.856L2713.85 294.776L2709.9 296.584L2696.47 268.664ZM2716.35 298.952V294.984H2734.27V298.952H2716.35ZM2733.62 298.952V294.984H2753.46V298.952H2733.62ZM2752.8 298.952V294.984H2772.65V298.952H2752.8ZM2771.99 298.952V294.984H2789.91V298.952H2771.99ZM2796.36 296.584L2792.41 294.776L2805.87 266.856L2809.79 268.664L2796.36 296.584ZM2811.6 268.664L2815.55 266.856L2828.98 294.776L2825.02 296.584L2811.6 268.664ZM2830.79 268.664L2834.74 266.856L2848.16 294.776L2844.21 296.584L2830.79 268.664ZM2853.93 296.584L2849.97 294.776L2863.43 266.856L2867.35 268.664L2853.93 296.584ZM2869.16 268.664L2873.11 266.856L2886.54 294.776L2882.59 296.584L2869.16 268.664ZM2888.35 268.664L2892.3 266.856L2905.73 294.776L2901.77 296.584L2888.35 268.664ZM2907.54 268.664L2911.49 266.856L2924.91 294.776L2920.96 296.584L2907.54 268.664ZM2926.72 268.664L2930.68 266.856L2944.1 294.776L2940.15 296.584L2926.72 268.664ZM2945.91 268.664L2949.86 266.856L2963.29 294.776L2959.34 296.584L2945.91 268.664ZM2965.1 268.664L2969.05 266.856L2982.48 294.776L2978.52 296.584L2965.1 268.664ZM2984.98 298.952V294.984H3002.9V298.952H2984.98ZM3002.24 298.952V294.984H3022.08V298.952H3002.24ZM3021.43 298.952V294.984H3041.27V298.952H3021.43ZM3040.62 298.952V294.984H3060.46V298.952H3040.62ZM3059.8 298.952V294.984H3079.65V298.952H3059.8ZM3078.99 298.952V294.984H3098.83V298.952H3078.99ZM3098.18 298.952V294.984H3118.02V298.952H3098.18ZM3117.37 298.952V294.984H3135.29V298.952H3117.37ZM3137.79 268.664L3141.74 266.856L3155.16 294.776L3151.21 296.584L3137.79 268.664ZM873.662 310.664L877.614 308.856L891.038 336.776L887.086 338.584L873.662 310.664ZM893.538 340.952V336.984H911.458V340.952H893.538ZM910.805 340.952V336.984H930.645V340.952H910.805ZM929.992 340.952V336.984H949.833V340.952H929.992ZM949.18 340.952V336.984H969.02V340.952H949.18ZM968.367 340.952V336.984H988.208V340.952H968.367ZM987.555 340.952V336.984H1007.4V340.952H987.555ZM1006.74 340.952V336.984H1024.66V340.952H1006.74ZM1031.11 338.584L1027.16 336.776L1040.62 308.856L1044.54 310.664L1031.11 338.584ZM1046.35 310.664L1050.3 308.856L1063.73 336.776L1059.77 338.584L1046.35 310.664ZM1065.54 310.664L1069.49 308.856L1082.91 336.776L1078.96 338.584L1065.54 310.664ZM1084.72 310.664L1088.68 308.856L1102.1 336.776L1098.15 338.584L1084.72 310.664ZM1103.91 310.664L1107.86 308.856L1121.29 336.776L1117.34 338.584L1103.91 310.664ZM1123.1 310.664L1127.05 308.856L1140.48 336.776L1136.52 338.584L1123.1 310.664ZM1142.29 310.664L1146.24 308.856L1159.66 336.776L1155.71 338.584L1142.29 310.664ZM1161.47 310.664L1165.43 308.856L1178.85 336.776L1174.9 338.584L1161.47 310.664ZM1181.35 340.952V336.984H1199.27V340.952H1181.35ZM1198.62 340.952V336.984H1218.46V340.952H1198.62ZM1217.8 340.952V336.984H1237.65V340.952H1217.8ZM1236.99 340.952V336.984H1256.83V340.952H1236.99ZM1256.18 340.952V336.984H1276.02V340.952H1256.18ZM1275.37 340.952V336.984H1295.21V340.952H1275.37ZM1294.55 340.952V336.984H1314.4V340.952H1294.55ZM1313.74 340.952V336.984H1333.58V340.952H1313.74ZM1332.93 340.952V336.984H1352.77V340.952H1332.93ZM1352.12 340.952V336.984H1371.96V340.952H1352.12ZM1371.3 340.952V336.984H1391.15V340.952H1371.3ZM1390.49 340.952V336.984H1410.33V340.952H1390.49ZM1409.68 340.952V336.984H1429.52V340.952H1409.68ZM1428.87 340.952V336.984H1448.71V340.952H1428.87ZM1448.05 340.952V336.984H1465.98V340.952H1448.05ZM1468.47 310.664L1472.43 308.856L1485.85 336.776L1481.9 338.584L1468.47 310.664ZM1493.2 338.584L1489.25 336.776L1502.71 308.856L1506.63 310.664L1493.2 338.584ZM1509.2 338.584L1505.25 336.776L1518.71 308.856L1522.63 310.664L1509.2 338.584ZM1526.04 310.664L1529.99 308.856L1543.41 336.776L1539.46 338.584L1526.04 310.664ZM1545.22 310.664L1549.18 308.856L1562.6 336.776L1558.65 338.584L1545.22 310.664ZM1564.41 310.664L1568.36 308.856L1581.79 336.776L1577.84 338.584L1564.41 310.664ZM1583.6 310.664L1587.55 308.856L1600.98 336.776L1597.02 338.584L1583.6 310.664ZM1602.79 310.664L1606.74 308.856L1620.16 336.776L1616.21 338.584L1602.79 310.664ZM1622.66 340.952V336.984H1640.58V340.952H1622.66ZM1639.93 340.952V336.984H1659.77V340.952H1639.93ZM1659.12 340.952V336.984H1678.96V340.952H1659.12ZM1678.3 340.952V336.984H1698.15V340.952H1678.3ZM1697.49 340.952V336.984H1717.33V340.952H1697.49ZM1716.68 340.952V336.984H1736.52V340.952H1716.68ZM1735.87 340.952V336.984H1755.71V340.952H1735.87ZM1755.05 340.952V336.984H1774.9V340.952H1755.05ZM1774.24 340.952V336.984H1792.16V340.952H1774.24ZM1798.61 338.584L1794.66 336.776L1808.12 308.856L1812.04 310.664L1798.61 338.584ZM1813.85 310.664L1817.8 308.856L1831.23 336.776L1827.27 338.584L1813.85 310.664ZM1833.04 310.664L1836.99 308.856L1850.41 336.776L1846.46 338.584L1833.04 310.664ZM1852.22 310.664L1856.18 308.856L1869.6 336.776L1865.65 338.584L1852.22 310.664ZM1875.36 338.584L1871.41 336.776L1884.87 308.856L1888.79 310.664L1875.36 338.584ZM1894.55 338.584L1890.6 336.776L1904.06 308.856L1907.98 310.664L1894.55 338.584ZM1913.74 338.584L1909.79 336.776L1923.24 308.856L1927.16 310.664L1913.74 338.584ZM1932.93 338.584L1928.97 336.776L1942.43 308.856L1946.35 310.664L1932.93 338.584ZM1952.11 338.584L1948.16 336.776L1961.62 308.856L1965.54 310.664L1952.11 338.584ZM1967.35 310.664L1971.3 308.856L1984.73 336.776L1980.77 338.584L1967.35 310.664ZM1986.54 310.664L1990.49 308.856L2003.91 336.776L1999.96 338.584L1986.54 310.664ZM2005.72 310.664L2009.68 308.856L2023.1 336.776L2019.15 338.584L2005.72 310.664ZM2025.6 340.952V336.984H2041.6V340.952H2025.6ZM2044.1 310.664L2048.05 308.856L2061.48 336.776L2057.52 338.584L2044.1 310.664ZM2068.83 338.584L2064.87 336.776L2078.33 308.856L2082.25 310.664L2068.83 338.584ZM2084.83 338.584L2080.87 336.776L2094.33 308.856L2098.25 310.664L2084.83 338.584ZM2101.66 310.664L2105.61 308.856L2119.04 336.776L2115.09 338.584L2101.66 310.664ZM2120.85 310.664L2124.8 308.856L2138.23 336.776L2134.27 338.584L2120.85 310.664ZM2140.04 310.664L2143.99 308.856L2157.41 336.776L2153.46 338.584L2140.04 310.664ZM2163.18 338.584L2159.22 336.776L2172.68 308.856L2176.6 310.664L2163.18 338.584ZM2178.41 310.664L2182.36 308.856L2195.79 336.776L2191.84 338.584L2178.41 310.664ZM2197.6 310.664L2201.55 308.856L2214.98 336.776L2211.02 338.584L2197.6 310.664ZM2216.79 310.664L2220.74 308.856L2234.16 336.776L2230.21 338.584L2216.79 310.664ZM2236.66 340.952V336.984H2252.66V340.952H2236.66ZM2255.16 310.664L2259.11 308.856L2272.54 336.776L2268.59 338.584L2255.16 310.664ZM2278.3 338.584L2274.35 336.776L2287.81 308.856L2291.73 310.664L2278.3 338.584ZM2293.54 310.664L2297.49 308.856L2310.91 336.776L2306.96 338.584L2293.54 310.664ZM2312.72 310.664L2316.68 308.856L2330.1 336.776L2326.15 338.584L2312.72 310.664ZM2331.91 310.664L2335.86 308.856L2349.29 336.776L2345.34 338.584L2331.91 310.664ZM2355.05 338.584L2351.1 336.776L2364.56 308.856L2368.48 310.664L2355.05 338.584ZM2374.24 338.584L2370.29 336.776L2383.74 308.856L2387.66 310.664L2374.24 338.584ZM2393.43 338.584L2389.47 336.776L2402.93 308.856L2406.85 310.664L2393.43 338.584ZM2412.61 338.584L2408.66 336.776L2422.12 308.856L2426.04 310.664L2412.61 338.584ZM2427.85 310.664L2431.8 308.856L2445.23 336.776L2441.27 338.584L2427.85 310.664ZM2447.04 310.664L2450.99 308.856L2464.41 336.776L2460.46 338.584L2447.04 310.664ZM2466.22 310.664L2470.18 308.856L2483.6 336.776L2479.65 338.584L2466.22 310.664ZM2486.1 340.952V336.984H2504.02V340.952H2486.1ZM2503.37 340.952V336.984H2521.29V340.952H2503.37ZM2523.79 310.664L2527.74 308.856L2541.16 336.776L2537.21 338.584L2523.79 310.664ZM2546.93 338.584L2542.97 336.776L2556.43 308.856L2560.35 310.664L2546.93 338.584ZM2562.16 310.664L2566.11 308.856L2579.54 336.776L2575.59 338.584L2562.16 310.664ZM2581.35 310.664L2585.3 308.856L2598.73 336.776L2594.77 338.584L2581.35 310.664ZM2600.54 310.664L2604.49 308.856L2617.91 336.776L2613.96 338.584L2600.54 310.664ZM2623.68 338.584L2619.72 336.776L2633.18 308.856L2637.1 310.664L2623.68 338.584ZM2642.86 338.584L2638.91 336.776L2652.37 308.856L2656.29 310.664L2642.86 338.584ZM2662.05 338.584L2658.1 336.776L2671.56 308.856L2675.48 310.664L2662.05 338.584ZM2681.24 338.584L2677.29 336.776L2690.74 308.856L2694.66 310.664L2681.24 338.584ZM2696.47 310.664L2700.43 308.856L2713.85 336.776L2709.9 338.584L2696.47 310.664ZM2715.66 310.664L2719.61 308.856L2733.04 336.776L2729.09 338.584L2715.66 310.664ZM2734.85 310.664L2738.8 308.856L2752.23 336.776L2748.27 338.584L2734.85 310.664ZM2754.73 340.952V336.984H2772.65V340.952H2754.73ZM2771.99 340.952V336.984H2789.91V340.952H2771.99ZM2792.41 310.664L2796.36 308.856L2809.79 336.776L2805.84 338.584L2792.41 310.664ZM2815.55 338.584L2811.6 336.776L2825.06 308.856L2828.98 310.664L2815.55 338.584ZM2830.79 310.664L2834.74 308.856L2848.16 336.776L2844.21 338.584L2830.79 310.664ZM2849.97 310.664L2853.93 308.856L2867.35 336.776L2863.4 338.584L2849.97 310.664ZM2869.16 310.664L2873.11 308.856L2886.54 336.776L2882.59 338.584L2869.16 310.664ZM2892.3 338.584L2888.35 336.776L2901.81 308.856L2905.73 310.664L2892.3 338.584ZM2911.49 338.584L2907.54 336.776L2920.99 308.856L2924.91 310.664L2911.49 338.584ZM2930.68 338.584L2926.72 336.776L2940.18 308.856L2944.1 310.664L2930.68 338.584ZM2949.86 338.584L2945.91 336.776L2959.37 308.856L2963.29 310.664L2949.86 338.584ZM2965.1 310.664L2969.05 308.856L2982.48 336.776L2978.52 338.584L2965.1 310.664ZM2984.29 310.664L2988.24 308.856L3001.66 336.776L2997.71 338.584L2984.29 310.664ZM3003.47 310.664L3007.43 308.856L3020.85 336.776L3016.9 338.584L3003.47 310.664ZM3023.35 340.952V336.984H3041.27V340.952H3023.35ZM3040.62 340.952V336.984H3060.46V340.952H3040.62ZM3059.8 340.952V336.984H3079.65V340.952H3059.8ZM3078.99 340.952V336.984H3098.83V340.952H3078.99ZM3098.18 340.952V336.984H3118.02V340.952H3098.18ZM3117.37 340.952V336.984H3137.21V340.952H3117.37ZM3136.55 340.952V336.984H3154.48V340.952H3136.55ZM3156.97 310.664L3160.93 308.856L3174.35 336.776L3170.4 338.584L3156.97 310.664ZM892.85 352.664L896.802 350.856L910.226 378.776L906.274 380.584L892.85 352.664ZM912.725 382.952V378.984H930.645V382.952H912.725ZM929.992 382.952V378.984H949.833V382.952H929.992ZM949.18 382.952V378.984H969.02V382.952H949.18ZM968.367 382.952V378.984H988.208V382.952H968.367ZM987.555 382.952V378.984H1005.48V382.952H987.555ZM1011.93 380.584L1007.97 378.776L1021.43 350.856L1025.35 352.664L1011.93 380.584ZM1027.16 352.664L1031.11 350.856L1044.54 378.776L1040.59 380.584L1027.16 352.664ZM1046.35 352.664L1050.3 350.856L1063.73 378.776L1059.77 380.584L1046.35 352.664ZM1065.54 352.664L1069.49 350.856L1082.91 378.776L1078.96 380.584L1065.54 352.664ZM1085.41 382.952V378.984H1103.33V382.952H1085.41ZM1102.68 382.952V378.984H1120.6V382.952H1102.68ZM1127.05 380.584L1123.1 378.776L1136.56 350.856L1140.48 352.664L1127.05 380.584ZM1142.29 352.664L1146.24 350.856L1159.66 378.776L1155.71 380.584L1142.29 352.664ZM1161.47 352.664L1165.43 350.856L1178.85 378.776L1174.9 380.584L1161.47 352.664ZM1180.66 352.664L1184.61 350.856L1198.04 378.776L1194.09 380.584L1180.66 352.664ZM1199.85 352.664L1203.8 350.856L1217.23 378.776L1213.27 380.584L1199.85 352.664ZM1219.04 352.664L1222.99 350.856L1236.41 378.776L1232.46 380.584L1219.04 352.664ZM1238.22 352.664L1242.18 350.856L1255.6 378.776L1251.65 380.584L1238.22 352.664ZM1257.41 352.664L1261.36 350.856L1274.79 378.776L1270.84 380.584L1257.41 352.664ZM1277.29 382.952V378.984H1295.21V382.952H1277.29ZM1294.55 382.952V378.984H1314.4V382.952H1294.55ZM1313.74 382.952V378.984H1333.58V382.952H1313.74ZM1332.93 382.952V378.984H1352.77V382.952H1332.93ZM1352.12 382.952V378.984H1371.96V382.952H1352.12ZM1371.3 382.952V378.984H1391.15V382.952H1371.3ZM1390.49 382.952V378.984H1410.33V382.952H1390.49ZM1409.68 382.952V378.984H1429.52V382.952H1409.68ZM1428.87 382.952V378.984H1448.71V382.952H1428.87ZM1448.05 382.952V378.984H1467.9V382.952H1448.05ZM1467.24 382.952V378.984H1487.08V382.952H1467.24ZM1486.43 382.952V378.984H1506.27V382.952H1486.43ZM1505.62 382.952V378.984H1523.54V382.952H1505.62ZM1526.04 352.664L1529.99 350.856L1543.41 378.776L1539.46 380.584L1526.04 352.664ZM1584.35 380.584L1580.4 378.776L1593.86 350.856L1597.78 352.664L1584.35 380.584ZM1552.35 380.584L1548.4 378.776L1561.86 350.856L1565.78 352.664L1552.35 380.584ZM1568.35 380.584L1564.4 378.776L1577.86 350.856L1581.78 352.664L1568.35 380.584ZM1602.79 352.664L1606.74 350.856L1620.16 378.776L1616.21 380.584L1602.79 352.664ZM1621.97 352.664L1625.93 350.856L1639.35 378.776L1635.4 380.584L1621.97 352.664ZM1641.16 352.664L1645.11 350.856L1658.54 378.776L1654.59 380.584L1641.16 352.664ZM1660.35 352.664L1664.3 350.856L1677.73 378.776L1673.77 380.584L1660.35 352.664ZM1679.54 352.664L1683.49 350.856L1696.91 378.776L1692.96 380.584L1679.54 352.664ZM1698.72 352.664L1702.68 350.856L1716.1 378.776L1712.15 380.584L1698.72 352.664ZM1718.6 382.952V378.984H1736.52V382.952H1718.6ZM1735.87 382.952V378.984H1755.71V382.952H1735.87ZM1755.05 382.952V378.984H1774.9V382.952H1755.05ZM1774.24 382.952V378.984H1792.16V382.952H1774.24ZM1794.66 352.664L1798.61 350.856L1812.04 378.776L1808.09 380.584L1794.66 352.664ZM1817.8 380.584L1813.85 378.776L1827.31 350.856L1831.23 352.664L1817.8 380.584ZM1833.04 352.664L1836.99 350.856L1850.41 378.776L1846.46 380.584L1833.04 352.664ZM1852.22 352.664L1856.18 350.856L1869.6 378.776L1865.65 380.584L1852.22 352.664ZM1871.41 352.664L1875.36 350.856L1888.79 378.776L1884.84 380.584L1871.41 352.664ZM1890.6 352.664L1894.55 350.856L1907.98 378.776L1904.02 380.584L1890.6 352.664ZM1909.79 352.664L1913.74 350.856L1927.16 378.776L1923.21 380.584L1909.79 352.664ZM1928.97 352.664L1932.93 350.856L1946.35 378.776L1942.4 380.584L1928.97 352.664ZM1948.16 352.664L1952.11 350.856L1965.54 378.776L1961.59 380.584L1948.16 352.664ZM1967.35 352.664L1971.3 350.856L1984.73 378.776L1980.77 380.584L1967.35 352.664ZM1986.54 352.664L1990.49 350.856L2003.91 378.776L1999.96 380.584L1986.54 352.664ZM2005.72 352.664L2009.68 350.856L2023.1 378.776L2019.15 380.584L2005.72 352.664ZM2025.6 382.952V378.984H2043.52V382.952H2025.6ZM2042.87 382.952V378.984H2062.71V382.952H2042.87ZM2062.05 382.952V378.984H2079.98V382.952H2062.05ZM2082.47 352.664L2086.43 350.856L2099.85 378.776L2095.9 380.584L2082.47 352.664ZM2107.2 380.584L2103.25 378.776L2116.71 350.856L2120.63 352.664L2107.2 380.584ZM2123.2 380.584L2119.25 378.776L2132.71 350.856L2136.63 352.664L2123.2 380.584ZM2140.04 352.664L2143.99 350.856L2157.41 378.776L2153.46 380.584L2140.04 352.664ZM2159.22 352.664L2163.18 350.856L2176.6 378.776L2172.65 380.584L2159.22 352.664ZM2178.41 352.664L2182.36 350.856L2195.79 378.776L2191.84 380.584L2178.41 352.664ZM2197.6 352.664L2201.55 350.856L2214.98 378.776L2211.02 380.584L2197.6 352.664ZM2216.79 352.664L2220.74 350.856L2234.16 378.776L2230.21 380.584L2216.79 352.664ZM2236.66 382.952V378.984H2254.58V382.952H2236.66ZM2253.93 382.952V378.984H2271.85V382.952H2253.93ZM2274.35 352.664L2278.3 350.856L2291.73 378.776L2287.77 380.584L2274.35 352.664ZM2297.49 380.584L2293.54 378.776L2306.99 350.856L2310.91 352.664L2297.49 380.584ZM2312.72 352.664L2316.68 350.856L2330.1 378.776L2326.15 380.584L2312.72 352.664ZM2331.91 352.664L2335.86 350.856L2349.29 378.776L2345.34 380.584L2331.91 352.664ZM2351.1 352.664L2355.05 350.856L2368.48 378.776L2364.52 380.584L2351.1 352.664ZM2370.98 382.952V378.984H2388.9V382.952H2370.98ZM2388.24 382.952V378.984H2406.16V382.952H2388.24ZM2408.66 352.664L2412.61 350.856L2426.04 378.776L2422.09 380.584L2408.66 352.664ZM2431.8 380.584L2427.85 378.776L2441.31 350.856L2445.23 352.664L2431.8 380.584ZM2447.04 352.664L2450.99 350.856L2464.41 378.776L2460.46 380.584L2447.04 352.664ZM2466.22 352.664L2470.18 350.856L2483.6 378.776L2479.65 380.584L2466.22 352.664ZM2485.41 352.664L2489.36 350.856L2502.79 378.776L2498.84 380.584L2485.41 352.664ZM2505.29 382.952V378.984H2523.21V382.952H2505.29ZM2522.55 382.952V378.984H2540.48V382.952H2522.55ZM2542.97 352.664L2546.93 350.856L2560.35 378.776L2556.4 380.584L2542.97 352.664ZM2566.11 380.584L2562.16 378.776L2575.62 350.856L2579.54 352.664L2566.11 380.584ZM2581.35 352.664L2585.3 350.856L2598.73 378.776L2594.77 380.584L2581.35 352.664ZM2600.54 352.664L2604.49 350.856L2617.91 378.776L2613.96 380.584L2600.54 352.664ZM2619.72 352.664L2623.68 350.856L2637.1 378.776L2633.15 380.584L2619.72 352.664ZM2639.6 382.952V378.984H2657.52V382.952H2639.6ZM2656.87 382.952V378.984H2674.79V382.952H2656.87ZM2677.29 352.664L2681.24 350.856L2694.66 378.776L2690.71 380.584L2677.29 352.664ZM2700.43 380.584L2696.47 378.776L2709.93 350.856L2713.85 352.664L2700.43 380.584ZM2715.66 352.664L2719.61 350.856L2733.04 378.776L2729.09 380.584L2715.66 352.664ZM2734.85 352.664L2738.8 350.856L2752.23 378.776L2748.27 380.584L2734.85 352.664ZM2754.04 352.664L2757.99 350.856L2771.41 378.776L2767.46 380.584L2754.04 352.664ZM2773.91 382.952V378.984H2791.83V382.952H2773.91ZM2791.18 382.952V378.984H2809.1V382.952H2791.18ZM2811.6 352.664L2815.55 350.856L2828.98 378.776L2825.02 380.584L2811.6 352.664ZM2834.74 380.584L2830.79 378.776L2844.24 350.856L2848.16 352.664L2834.74 380.584ZM2849.97 352.664L2853.93 350.856L2867.35 378.776L2863.4 380.584L2849.97 352.664ZM2869.16 352.664L2873.11 350.856L2886.54 378.776L2882.59 380.584L2869.16 352.664ZM2888.35 352.664L2892.3 350.856L2905.73 378.776L2901.77 380.584L2888.35 352.664ZM2908.23 382.952V378.984H2926.15V382.952H2908.23ZM2925.49 382.952V378.984H2943.41V382.952H2925.49ZM2945.91 352.664L2949.86 350.856L2963.29 378.776L2959.34 380.584L2945.91 352.664ZM2969.05 380.584L2965.1 378.776L2978.56 350.856L2982.48 352.664L2969.05 380.584ZM2984.29 352.664L2988.24 350.856L3001.66 378.776L2997.71 380.584L2984.29 352.664ZM3003.47 352.664L3007.43 350.856L3020.85 378.776L3016.9 380.584L3003.47 352.664ZM3022.66 352.664L3026.61 350.856L3040.04 378.776L3036.09 380.584L3022.66 352.664ZM3042.54 382.952V378.984H3060.46V382.952H3042.54ZM3059.8 382.952V378.984H3079.65V382.952H3059.8ZM3078.99 382.952V378.984H3098.83V382.952H3078.99ZM3098.18 382.952V378.984H3118.02V382.952H3098.18ZM3117.37 382.952V378.984H3137.21V382.952H3117.37ZM3136.55 382.952V378.984H3156.4V382.952H3136.55ZM3155.74 382.952V378.984H3173.66V382.952H3155.74ZM3176.16 352.664L3180.11 350.856L3193.54 378.776L3189.59 380.584L3176.16 352.664ZM912.037 394.664L915.989 392.856L929.413 420.776L925.461 422.584L912.037 394.664ZM931.913 424.952V420.984H949.833V424.952H931.913ZM949.18 424.952V420.984H969.02V424.952H949.18ZM968.367 424.952V420.984H988.208V424.952H968.367ZM987.555 424.952V420.984H1005.48V424.952H987.555ZM1011.93 422.584L1007.97 420.776L1021.43 392.856L1025.35 394.664L1011.93 422.584ZM1027.16 394.664L1031.11 392.856L1044.54 420.776L1040.59 422.584L1027.16 394.664ZM1046.35 394.664L1050.3 392.856L1063.73 420.776L1059.77 422.584L1046.35 394.664ZM1066.23 424.952V420.984H1084.15V424.952H1066.23ZM1083.49 424.952V420.984H1101.41V424.952H1083.49ZM1107.86 422.584L1103.91 420.776L1117.37 392.856L1121.29 394.664L1107.86 422.584ZM1123.1 394.664L1127.05 392.856L1140.48 420.776L1136.52 422.584L1123.1 394.664ZM1142.29 394.664L1146.24 392.856L1159.66 420.776L1155.71 422.584L1142.29 394.664ZM1161.47 394.664L1165.43 392.856L1178.85 420.776L1174.9 422.584L1161.47 394.664ZM1180.66 394.664L1184.61 392.856L1198.04 420.776L1194.09 422.584L1180.66 394.664ZM1199.85 394.664L1203.8 392.856L1217.23 420.776L1213.27 422.584L1199.85 394.664ZM1219.04 394.664L1222.99 392.856L1236.41 420.776L1232.46 422.584L1219.04 394.664ZM1242.18 422.584L1238.22 420.776L1251.68 392.856L1255.6 394.664L1242.18 422.584ZM1257.41 394.664L1261.36 392.856L1274.79 420.776L1270.84 422.584L1257.41 394.664ZM1276.6 394.664L1280.55 392.856L1293.98 420.776L1290.02 422.584L1276.6 394.664ZM1295.79 394.664L1299.74 392.856L1313.16 420.776L1309.21 422.584L1295.79 394.664ZM1315.66 424.952V420.984H1333.58V424.952H1315.66ZM1332.93 424.952V420.984H1352.77V424.952H1332.93ZM1352.12 424.952V420.984H1371.96V424.952H1352.12ZM1371.3 424.952V420.984H1391.15V424.952H1371.3ZM1390.49 424.952V420.984H1410.33V424.952H1390.49ZM1409.68 424.952V420.984H1429.52V424.952H1409.68ZM1428.87 424.952V420.984H1448.71V424.952H1428.87ZM1448.05 424.952V420.984H1467.9V424.952H1448.05ZM1467.24 424.952V420.984H1487.08V424.952H1467.24ZM1486.43 424.952V420.984H1506.27V424.952H1486.43ZM1505.62 424.952V420.984H1525.46V424.952H1505.62ZM1524.8 424.952V420.984H1544.65V424.952H1524.8ZM1543.99 424.952V420.984H1563.83V424.952H1543.99ZM1563.18 424.952V420.984H1581.1V424.952H1563.18ZM1583.6 394.664L1587.55 392.856L1600.98 420.776L1597.02 422.584L1583.6 394.664ZM1606.74 422.584L1602.79 420.776L1616.24 392.856L1620.16 394.664L1606.74 422.584ZM1625.93 422.584L1621.97 420.776L1635.43 392.856L1639.35 394.664L1625.93 422.584ZM1645.11 422.584L1641.16 420.776L1654.62 392.856L1658.54 394.664L1645.11 422.584ZM1664.3 422.584L1660.35 420.776L1673.81 392.856L1677.73 394.664L1664.3 422.584ZM1683.49 422.584L1679.54 420.776L1692.99 392.856L1696.91 394.664L1683.49 422.584ZM1698.72 394.664L1702.68 392.856L1716.1 420.776L1712.15 422.584L1698.72 394.664ZM1717.91 394.664L1721.86 392.856L1735.29 420.776L1731.34 422.584L1717.91 394.664ZM1737.1 394.664L1741.05 392.856L1754.48 420.776L1750.52 422.584L1737.1 394.664ZM1756.29 394.664L1760.24 392.856L1773.66 420.776L1769.71 422.584L1756.29 394.664ZM1776.16 424.952V420.984H1794.08V424.952H1776.16ZM1793.43 424.952V420.984H1811.35V424.952H1793.43ZM1813.85 394.664L1817.8 392.856L1831.23 420.776L1827.27 422.584L1813.85 394.664ZM1836.99 422.584L1833.04 420.776L1846.49 392.856L1850.41 394.664L1836.99 422.584ZM1852.22 394.664L1856.18 392.856L1869.6 420.776L1865.65 422.584L1852.22 394.664ZM1871.41 394.664L1875.36 392.856L1888.79 420.776L1884.84 422.584L1871.41 394.664ZM1890.6 394.664L1894.55 392.856L1907.98 420.776L1904.02 422.584L1890.6 394.664ZM1913.74 422.584L1909.79 420.776L1923.24 392.856L1927.16 394.664L1913.74 422.584ZM1932.93 422.584L1928.97 420.776L1942.43 392.856L1946.35 394.664L1932.93 422.584ZM1952.11 422.584L1948.16 420.776L1961.62 392.856L1965.54 394.664L1952.11 422.584ZM1971.3 422.584L1967.35 420.776L1980.81 392.856L1984.73 394.664L1971.3 422.584ZM1990.49 422.584L1986.54 420.776L1999.99 392.856L2003.91 394.664L1990.49 422.584ZM2006.41 424.952V420.984H2024.33V424.952H2006.41ZM2023.68 424.952V420.984H2043.52V424.952H2023.68ZM2042.87 424.952V420.984H2062.71V424.952H2042.87ZM2062.05 424.952V420.984H2081.9V424.952H2062.05ZM2081.24 424.952V420.984H2101.08V424.952H2081.24ZM2100.43 424.952V420.984H2118.35V424.952H2100.43ZM2120.85 394.664L2124.8 392.856L2138.23 420.776L2134.27 422.584L2120.85 394.664ZM2145.58 422.584L2141.62 420.776L2155.08 392.856L2159 394.664L2145.58 422.584ZM2161.58 422.584L2157.62 420.776L2171.08 392.856L2175 394.664L2161.58 422.584ZM2178.41 394.664L2182.36 392.856L2195.79 420.776L2191.84 422.584L2178.41 394.664ZM2197.6 394.664L2201.55 392.856L2214.98 420.776L2211.02 422.584L2197.6 394.664ZM2216.79 394.664L2220.74 392.856L2234.16 420.776L2230.21 422.584L2216.79 394.664ZM2236.66 424.952V420.984H2254.58V424.952H2236.66ZM2253.93 424.952V420.984H2273.77V424.952H2253.93ZM2273.12 424.952V420.984H2291.04V424.952H2273.12ZM2293.54 394.664L2297.49 392.856L2310.91 420.776L2306.96 422.584L2293.54 394.664ZM2316.68 422.584L2312.72 420.776L2326.18 392.856L2330.1 394.664L2316.68 422.584ZM2331.91 394.664L2335.86 392.856L2349.29 420.776L2345.34 422.584L2331.91 394.664ZM2351.1 394.664L2355.05 392.856L2368.48 420.776L2364.52 422.584L2351.1 394.664ZM2370.29 394.664L2374.24 392.856L2387.66 420.776L2383.71 422.584L2370.29 394.664ZM2390.16 424.952V420.984H2408.08V424.952H2390.16ZM2407.43 424.952V420.984H2427.27V424.952H2407.43ZM2426.62 424.952V420.984H2444.54V424.952H2426.62ZM2447.04 394.664L2450.99 392.856L2464.41 420.776L2460.46 422.584L2447.04 394.664ZM2471.76 422.584L2467.81 420.776L2481.27 392.856L2485.19 394.664L2471.76 422.584ZM2487.76 422.584L2483.81 420.776L2497.27 392.856L2501.19 394.664L2487.76 422.584ZM2504.6 394.664L2508.55 392.856L2521.98 420.776L2518.02 422.584L2504.6 394.664ZM2523.79 394.664L2527.74 392.856L2541.16 420.776L2537.21 422.584L2523.79 394.664ZM2543.66 424.952V420.984H2559.66V424.952H2543.66ZM2562.16 394.664L2566.11 392.856L2579.54 420.776L2575.59 422.584L2562.16 394.664ZM2585.3 422.584L2581.35 420.776L2594.81 392.856L2598.73 394.664L2585.3 422.584ZM2600.54 394.664L2604.49 392.856L2617.91 420.776L2613.96 422.584L2600.54 394.664ZM2619.72 394.664L2623.68 392.856L2637.1 420.776L2633.15 422.584L2619.72 394.664ZM2638.91 394.664L2642.86 392.856L2656.29 420.776L2652.34 422.584L2638.91 394.664ZM2658.79 424.952V420.984H2676.71V424.952H2658.79ZM2676.05 424.952V420.984H2695.9V424.952H2676.05ZM2695.24 424.952V420.984H2713.16V424.952H2695.24ZM2715.66 394.664L2719.61 392.856L2733.04 420.776L2729.09 422.584L2715.66 394.664ZM2740.39 422.584L2736.44 420.776L2749.89 392.856L2753.81 394.664L2740.39 422.584ZM2756.39 422.584L2752.44 420.776L2765.89 392.856L2769.81 394.664L2756.39 422.584ZM2773.22 394.664L2777.18 392.856L2790.6 420.776L2786.65 422.584L2773.22 394.664ZM2792.41 394.664L2796.36 392.856L2809.79 420.776L2805.84 422.584L2792.41 394.664ZM2812.29 424.952V420.984H2828.29V424.952H2812.29ZM2830.79 394.664L2834.74 392.856L2848.16 420.776L2844.21 422.584L2830.79 394.664ZM2853.93 422.584L2849.97 420.776L2863.43 392.856L2867.35 394.664L2853.93 422.584ZM2869.16 394.664L2873.11 392.856L2886.54 420.776L2882.59 422.584L2869.16 394.664ZM2888.35 394.664L2892.3 392.856L2905.73 420.776L2901.77 422.584L2888.35 394.664ZM2907.54 394.664L2911.49 392.856L2924.91 420.776L2920.96 422.584L2907.54 394.664ZM2927.41 424.952V420.984H2945.33V424.952H2927.41ZM2944.68 424.952V420.984H2964.52V424.952H2944.68ZM2963.87 424.952V420.984H2981.79V424.952H2963.87ZM2984.29 394.664L2988.24 392.856L3001.66 420.776L2997.71 422.584L2984.29 394.664ZM3009.01 422.584L3005.06 420.776L3018.52 392.856L3022.44 394.664L3009.01 422.584ZM3025.01 422.584L3021.06 420.776L3034.52 392.856L3038.44 394.664L3025.01 422.584ZM3041.85 394.664L3045.8 392.856L3059.23 420.776L3055.27 422.584L3041.85 394.664ZM3061.04 394.664L3064.99 392.856L3078.41 420.776L3074.46 422.584L3061.04 394.664ZM3080.91 424.952V420.984H3098.83V424.952H3080.91ZM3098.18 424.952V420.984H3118.02V424.952H3098.18ZM3117.37 424.952V420.984H3137.21V424.952H3117.37ZM3136.55 424.952V420.984H3156.4V424.952H3136.55ZM3155.74 424.952V420.984H3175.58V424.952H3155.74ZM3174.93 424.952V420.984H3192.85V424.952H3174.93ZM3195.35 394.664L3199.3 392.856L3212.73 420.776L3208.77 422.584L3195.35 394.664ZM931.225 436.664L935.177 434.856L948.601 462.776L944.649 464.584L931.225 436.664ZM951.1 466.952V462.984H969.02V466.952H951.1ZM968.367 466.952V462.984H988.208V466.952H968.367ZM987.555 466.952V462.984H1005.48V466.952H987.555ZM1007.97 436.664L1011.93 434.856L1025.35 462.776L1021.4 464.584L1007.97 436.664ZM1031.11 464.584L1027.16 462.776L1040.62 434.856L1044.54 436.664L1031.11 464.584ZM1046.35 436.664L1050.3 434.856L1063.73 462.776L1059.77 464.584L1046.35 436.664ZM1065.54 436.664L1069.49 434.856L1082.91 462.776L1078.96 464.584L1065.54 436.664ZM1084.72 436.664L1088.68 434.856L1102.1 462.776L1098.15 464.584L1084.72 436.664ZM1103.91 436.664L1107.86 434.856L1121.29 462.776L1117.34 464.584L1103.91 436.664ZM1127.05 464.584L1123.1 462.776L1136.56 434.856L1140.48 436.664L1127.05 464.584ZM1146.24 464.584L1142.29 462.776L1155.74 434.856L1159.66 436.664L1146.24 464.584ZM1165.43 464.584L1161.47 462.776L1174.93 434.856L1178.85 436.664L1165.43 464.584ZM1184.61 464.584L1180.66 462.776L1194.12 434.856L1198.04 436.664L1184.61 464.584ZM1199.85 436.664L1203.8 434.856L1217.23 462.776L1213.27 464.584L1199.85 436.664ZM1219.04 436.664L1222.99 434.856L1236.41 462.776L1232.46 464.584L1219.04 436.664ZM1238.22 436.664L1242.18 434.856L1255.6 462.776L1251.65 464.584L1238.22 436.664ZM1261.36 464.584L1257.41 462.776L1270.87 434.856L1274.79 436.664L1261.36 464.584ZM1276.6 436.664L1280.55 434.856L1293.98 462.776L1290.02 464.584L1276.6 436.664ZM1295.79 436.664L1299.74 434.856L1313.16 462.776L1309.21 464.584L1295.79 436.664ZM1315.66 466.952V462.984H1333.58V466.952H1315.66ZM1332.93 466.952V462.984H1352.77V466.952H1332.93ZM1352.12 466.952V462.984H1371.96V466.952H1352.12ZM1371.3 466.952V462.984H1391.15V466.952H1371.3ZM1390.49 466.952V462.984H1410.33V466.952H1390.49ZM1409.68 466.952V462.984H1429.52V466.952H1409.68ZM1428.87 466.952V462.984H1448.71V466.952H1428.87ZM1448.05 466.952V462.984H1467.9V466.952H1448.05ZM1467.24 466.952V462.984H1487.08V466.952H1467.24ZM1486.43 466.952V462.984H1504.35V466.952H1486.43ZM1510.8 464.584L1506.85 462.776L1520.31 434.856L1524.23 436.664L1510.8 464.584ZM1526.04 436.664L1529.99 434.856L1543.41 462.776L1539.46 464.584L1526.04 436.664ZM1545.22 436.664L1549.18 434.856L1562.6 462.776L1558.65 464.584L1545.22 436.664ZM1564.41 436.664L1568.36 434.856L1581.79 462.776L1577.84 464.584L1564.41 436.664ZM1584.29 466.952V462.984H1602.21V466.952H1584.29ZM1601.55 466.952V462.984H1621.4V466.952H1601.55ZM1620.74 466.952V462.984H1640.58V466.952H1620.74ZM1639.93 466.952V462.984H1659.77V466.952H1639.93ZM1659.12 466.952V462.984H1677.04V466.952H1659.12ZM1685.08 464.584L1681.12 462.776L1694.58 434.856L1698.5 436.664L1685.08 464.584ZM1701.08 464.584L1697.12 462.776L1710.58 434.856L1714.5 436.664L1701.08 464.584ZM1717.91 436.664L1721.86 434.856L1735.29 462.776L1731.34 464.584L1717.91 436.664ZM1737.1 436.664L1741.05 434.856L1754.48 462.776L1750.52 464.584L1737.1 436.664ZM1756.29 436.664L1760.24 434.856L1773.66 462.776L1769.71 464.584L1756.29 436.664ZM1775.47 436.664L1779.43 434.856L1792.85 462.776L1788.9 464.584L1775.47 436.664ZM1794.66 436.664L1798.61 434.856L1812.04 462.776L1808.09 464.584L1794.66 436.664ZM1814.54 466.952V462.984H1830.54V466.952H1814.54ZM1833.04 436.664L1836.99 434.856L1850.41 462.776L1846.46 464.584L1833.04 436.664ZM1856.18 464.584L1852.22 462.776L1865.68 434.856L1869.6 436.664L1856.18 464.584ZM1871.41 436.664L1875.36 434.856L1888.79 462.776L1884.84 464.584L1871.41 436.664ZM1890.6 436.664L1894.55 434.856L1907.98 462.776L1904.02 464.584L1890.6 436.664ZM1909.79 436.664L1913.74 434.856L1927.16 462.776L1923.21 464.584L1909.79 436.664ZM1929.66 466.952V462.984H1947.58V466.952H1929.66ZM1946.93 466.952V462.984H1966.77V466.952H1946.93ZM1966.12 466.952V462.984H1985.96V466.952H1966.12ZM1985.3 466.952V462.984H2005.15V466.952H1985.3ZM2004.49 466.952V462.984H2024.33V466.952H2004.49ZM2023.68 466.952V462.984H2043.52V466.952H2023.68ZM2042.87 466.952V462.984H2062.71V466.952H2042.87ZM2062.05 466.952V462.984H2079.98V466.952H2062.05ZM2086.43 464.584L2082.47 462.776L2095.93 434.856L2099.85 436.664L2086.43 464.584ZM2101.66 436.664L2105.61 434.856L2119.04 462.776L2115.09 464.584L2101.66 436.664ZM2120.85 436.664L2124.8 434.856L2138.23 462.776L2134.27 464.584L2120.85 436.664ZM2140.73 466.952V462.984H2156.73V466.952H2140.73ZM2163.18 464.584L2159.22 462.776L2172.68 434.856L2176.6 436.664L2163.18 464.584ZM2178.41 436.664L2182.36 434.856L2195.79 462.776L2191.84 464.584L2178.41 436.664ZM2197.6 436.664L2201.55 434.856L2214.98 462.776L2211.02 464.584L2197.6 436.664ZM2216.79 436.664L2220.74 434.856L2234.16 462.776L2230.21 464.584L2216.79 436.664ZM2236.66 466.952V462.984H2254.58V466.952H2236.66ZM2253.93 466.952V462.984H2273.77V466.952H2253.93ZM2273.12 466.952V462.984H2292.96V466.952H2273.12ZM2292.3 466.952V462.984H2310.23V466.952H2292.3ZM2312.72 436.664L2316.68 434.856L2330.1 462.776L2326.15 464.584L2312.72 436.664ZM2335.86 464.584L2331.91 462.776L2345.37 434.856L2349.29 436.664L2335.86 464.584ZM2351.1 436.664L2355.05 434.856L2368.48 462.776L2364.52 464.584L2351.1 436.664ZM2370.29 436.664L2374.24 434.856L2387.66 462.776L2383.71 464.584L2370.29 436.664ZM2389.47 436.664L2393.43 434.856L2406.85 462.776L2402.9 464.584L2389.47 436.664ZM2409.35 466.952V462.984H2427.27V466.952H2409.35ZM2426.62 466.952V462.984H2446.46V466.952H2426.62ZM2445.8 466.952V462.984H2463.73V466.952H2445.8ZM2466.22 436.664L2470.18 434.856L2483.6 462.776L2479.65 464.584L2466.22 436.664ZM2489.36 464.584L2485.41 462.776L2498.87 434.856L2502.79 436.664L2489.36 464.584ZM2504.6 436.664L2508.55 434.856L2521.98 462.776L2518.02 464.584L2504.6 436.664ZM2523.79 436.664L2527.74 434.856L2541.16 462.776L2537.21 464.584L2523.79 436.664ZM2542.97 436.664L2546.93 434.856L2560.35 462.776L2556.4 464.584L2542.97 436.664ZM2562.85 466.952V462.984H2578.85V466.952H2562.85ZM2581.35 436.664L2585.3 434.856L2598.73 462.776L2594.77 464.584L2581.35 436.664ZM2604.49 464.584L2600.54 462.776L2613.99 434.856L2617.91 436.664L2604.49 464.584ZM2619.72 436.664L2623.68 434.856L2637.1 462.776L2633.15 464.584L2619.72 436.664ZM2638.91 436.664L2642.86 434.856L2656.29 462.776L2652.34 464.584L2638.91 436.664ZM2658.1 436.664L2662.05 434.856L2675.48 462.776L2671.52 464.584L2658.1 436.664ZM2677.98 466.952V462.984H2695.9V466.952H2677.98ZM2695.24 466.952V462.984H2715.08V466.952H2695.24ZM2714.43 466.952V462.984H2732.35V466.952H2714.43ZM2734.85 436.664L2738.8 434.856L2752.23 462.776L2748.27 464.584L2734.85 436.664ZM2757.99 464.584L2754.04 462.776L2767.49 434.856L2771.41 436.664L2757.99 464.584ZM2773.22 436.664L2777.18 434.856L2790.6 462.776L2786.65 464.584L2773.22 436.664ZM2792.41 436.664L2796.36 434.856L2809.79 462.776L2805.84 464.584L2792.41 436.664ZM2811.6 436.664L2815.55 434.856L2828.98 462.776L2825.02 464.584L2811.6 436.664ZM2831.48 466.952V462.984H2847.48V466.952H2831.48ZM2849.97 436.664L2853.93 434.856L2867.35 462.776L2863.4 464.584L2849.97 436.664ZM2873.11 464.584L2869.16 462.776L2882.62 434.856L2886.54 436.664L2873.11 464.584ZM2888.35 436.664L2892.3 434.856L2905.73 462.776L2901.77 464.584L2888.35 436.664ZM2907.54 436.664L2911.49 434.856L2924.91 462.776L2920.96 464.584L2907.54 436.664ZM2926.72 436.664L2930.68 434.856L2944.1 462.776L2940.15 464.584L2926.72 436.664ZM2946.6 466.952V462.984H2964.52V466.952H2946.6ZM2963.87 466.952V462.984H2983.71V466.952H2963.87ZM2983.05 466.952V462.984H3000.98V466.952H2983.05ZM3003.47 436.664L3007.43 434.856L3020.85 462.776L3016.9 464.584L3003.47 436.664ZM3026.61 464.584L3022.66 462.776L3036.12 434.856L3040.04 436.664L3026.61 464.584ZM3041.85 436.664L3045.8 434.856L3059.23 462.776L3055.27 464.584L3041.85 436.664ZM3061.04 436.664L3064.99 434.856L3078.41 462.776L3074.46 464.584L3061.04 436.664ZM3080.22 436.664L3084.18 434.856L3097.6 462.776L3093.65 464.584L3080.22 436.664ZM3100.1 466.952V462.984H3118.02V466.952H3100.1ZM3117.37 466.952V462.984H3137.21V466.952H3117.37ZM3136.55 466.952V462.984H3156.4V466.952H3136.55ZM3155.74 466.952V462.984H3175.58V466.952H3155.74ZM3174.93 466.952V462.984H3194.77V466.952H3174.93ZM3194.12 466.952V462.984H3212.04V466.952H3194.12ZM3214.54 436.664L3218.49 434.856L3231.91 462.776L3227.96 464.584L3214.54 436.664ZM950.412 478.664L954.364 476.856L967.788 504.776L963.836 506.584L950.412 478.664ZM970.288 508.952V504.984H988.208V508.952H970.288ZM987.555 508.952V504.984H1007.4V508.952H987.555ZM1006.74 508.952V504.984H1024.66V508.952H1006.74ZM1027.16 478.664L1031.11 476.856L1044.54 504.776L1040.59 506.584L1027.16 478.664ZM1051.89 506.584L1047.94 504.776L1061.39 476.856L1065.31 478.664L1051.89 506.584ZM1067.89 506.584L1063.94 504.776L1077.39 476.856L1081.31 478.664L1067.89 506.584ZM1084.72 478.664L1088.68 476.856L1102.1 504.776L1098.15 506.584L1084.72 478.664ZM1103.91 478.664L1107.86 476.856L1121.29 504.776L1117.34 506.584L1103.91 478.664ZM1123.1 478.664L1127.05 476.856L1140.48 504.776L1136.52 506.584L1123.1 478.664ZM1142.29 478.664L1146.24 476.856L1159.66 504.776L1155.71 506.584L1142.29 478.664ZM1161.47 478.664L1165.43 476.856L1178.85 504.776L1174.9 506.584L1161.47 478.664ZM1180.66 478.664L1184.61 476.856L1198.04 504.776L1194.09 506.584L1180.66 478.664ZM1199.85 478.664L1203.8 476.856L1217.23 504.776L1213.27 506.584L1199.85 478.664ZM1219.04 478.664L1222.99 476.856L1236.41 504.776L1232.46 506.584L1219.04 478.664ZM1238.22 478.664L1242.18 476.856L1255.6 504.776L1251.65 506.584L1238.22 478.664ZM1257.41 478.664L1261.36 476.856L1274.79 504.776L1270.84 506.584L1257.41 478.664ZM1276.6 478.664L1280.55 476.856L1293.98 504.776L1290.02 506.584L1276.6 478.664ZM1299.74 506.584L1295.79 504.776L1309.24 476.856L1313.16 478.664L1299.74 506.584ZM1315.66 508.952V504.984H1333.58V508.952H1315.66ZM1332.93 508.952V504.984H1352.77V508.952H1332.93ZM1352.12 508.952V504.984H1371.96V508.952H1352.12ZM1371.3 508.952V504.984H1391.15V508.952H1371.3ZM1390.49 508.952V504.984H1410.33V508.952H1390.49ZM1409.68 508.952V504.984H1429.52V508.952H1409.68ZM1428.87 508.952V504.984H1448.71V508.952H1428.87ZM1448.05 508.952V504.984H1467.9V508.952H1448.05ZM1467.24 508.952V504.984H1487.08V508.952H1467.24ZM1486.43 508.952V504.984H1504.35V508.952H1486.43ZM1506.85 478.664L1510.8 476.856L1524.23 504.776L1520.27 506.584L1506.85 478.664ZM1531.58 506.584L1527.62 504.776L1541.08 476.856L1545 478.664L1531.58 506.584ZM1547.58 506.584L1543.62 504.776L1557.08 476.856L1561 478.664L1547.58 506.584ZM1564.41 478.664L1568.36 476.856L1581.79 504.776L1577.84 506.584L1564.41 478.664ZM1583.6 478.664L1587.55 476.856L1600.98 504.776L1597.02 506.584L1583.6 478.664ZM1602.79 478.664L1606.74 476.856L1620.16 504.776L1616.21 506.584L1602.79 478.664ZM1621.97 478.664L1625.93 476.856L1639.35 504.776L1635.4 506.584L1621.97 478.664ZM1641.16 478.664L1645.11 476.856L1658.54 504.776L1654.59 506.584L1641.16 478.664ZM1660.35 478.664L1664.3 476.856L1677.73 504.776L1673.77 506.584L1660.35 478.664ZM1679.54 478.664L1683.49 476.856L1696.91 504.776L1692.96 506.584L1679.54 478.664ZM1698.72 478.664L1702.68 476.856L1716.1 504.776L1712.15 506.584L1698.72 478.664ZM1717.91 478.664L1721.86 476.856L1735.29 504.776L1731.34 506.584L1717.91 478.664ZM1737.1 478.664L1741.05 476.856L1754.48 504.776L1750.52 506.584L1737.1 478.664ZM1756.29 478.664L1760.24 476.856L1773.66 504.776L1769.71 506.584L1756.29 478.664ZM1775.47 478.664L1779.43 476.856L1792.85 504.776L1788.9 506.584L1775.47 478.664ZM1798.61 506.584L1794.66 504.776L1808.12 476.856L1812.04 478.664L1798.61 506.584ZM1814.54 508.952V504.984H1832.46V508.952H1814.54ZM1831.8 508.952V504.984H1849.73V508.952H1831.8ZM1852.22 478.664L1856.18 476.856L1869.6 504.776L1865.65 506.584L1852.22 478.664ZM1875.36 506.584L1871.41 504.776L1884.87 476.856L1888.79 478.664L1875.36 506.584ZM1890.6 478.664L1894.55 476.856L1907.98 504.776L1904.02 506.584L1890.6 478.664ZM1909.79 478.664L1913.74 476.856L1927.16 504.776L1923.21 506.584L1909.79 478.664ZM1928.97 478.664L1932.93 476.856L1946.35 504.776L1942.4 506.584L1928.97 478.664ZM1948.85 508.952V504.984H1966.77V508.952H1948.85ZM1966.12 508.952V504.984H1985.96V508.952H1966.12ZM1985.3 508.952V504.984H2005.15V508.952H1985.3ZM2004.49 508.952V504.984H2024.33V508.952H2004.49ZM2023.68 508.952V504.984H2043.52V508.952H2023.68ZM2042.87 508.952V504.984H2062.71V508.952H2042.87ZM2062.05 508.952V504.984H2079.98V508.952H2062.05ZM2082.47 478.664L2086.43 476.856L2099.85 504.776L2095.9 506.584L2082.47 478.664ZM2107.2 506.584L2103.25 504.776L2116.71 476.856L2120.63 478.664L2107.2 506.584ZM2123.2 506.584L2119.25 504.776L2132.71 476.856L2136.63 478.664L2123.2 506.584ZM2140.04 478.664L2143.99 476.856L2157.41 504.776L2153.46 506.584L2140.04 478.664ZM2159.22 478.664L2163.18 476.856L2176.6 504.776L2172.65 506.584L2159.22 478.664ZM2178.41 478.664L2182.36 476.856L2195.79 504.776L2191.84 506.584L2178.41 478.664ZM2197.6 478.664L2201.55 476.856L2214.98 504.776L2211.02 506.584L2197.6 478.664ZM2220.74 506.584L2216.79 504.776L2230.24 476.856L2234.16 478.664L2220.74 506.584ZM2236.66 508.952V504.984H2254.58V508.952H2236.66ZM2253.93 508.952V504.984H2273.77V508.952H2253.93ZM2273.12 508.952V504.984H2292.96V508.952H2273.12ZM2292.3 508.952V504.984H2312.15V508.952H2292.3ZM2311.49 508.952V504.984H2329.41V508.952H2311.49ZM2331.91 478.664L2335.86 476.856L2349.29 504.776L2345.34 506.584L2331.91 478.664ZM2355.05 506.584L2351.1 504.776L2364.56 476.856L2368.48 478.664L2355.05 506.584ZM2370.29 478.664L2374.24 476.856L2387.66 504.776L2383.71 506.584L2370.29 478.664ZM2389.47 478.664L2393.43 476.856L2406.85 504.776L2402.9 506.584L2389.47 478.664ZM2408.66 478.664L2412.61 476.856L2426.04 504.776L2422.09 506.584L2408.66 478.664ZM2428.54 508.952V504.984H2446.46V508.952H2428.54ZM2445.8 508.952V504.984H2465.65V508.952H2445.8ZM2464.99 508.952V504.984H2482.91V508.952H2464.99ZM2485.41 478.664L2489.36 476.856L2502.79 504.776L2498.84 506.584L2485.41 478.664ZM2508.55 506.584L2504.6 504.776L2518.06 476.856L2521.98 478.664L2508.55 506.584ZM2523.79 478.664L2527.74 476.856L2541.16 504.776L2537.21 506.584L2523.79 478.664ZM2542.97 478.664L2546.93 476.856L2560.35 504.776L2556.4 506.584L2542.97 478.664ZM2562.16 478.664L2566.11 476.856L2579.54 504.776L2575.59 506.584L2562.16 478.664ZM2582.04 508.952V504.984H2598.04V508.952H2582.04ZM2600.54 478.664L2604.49 476.856L2617.91 504.776L2613.96 506.584L2600.54 478.664ZM2623.68 506.584L2619.72 504.776L2633.18 476.856L2637.1 478.664L2623.68 506.584ZM2638.91 478.664L2642.86 476.856L2656.29 504.776L2652.34 506.584L2638.91 478.664ZM2658.1 478.664L2662.05 476.856L2675.48 504.776L2671.52 506.584L2658.1 478.664ZM2677.29 478.664L2681.24 476.856L2694.66 504.776L2690.71 506.584L2677.29 478.664ZM2697.16 508.952V504.984H2715.08V508.952H2697.16ZM2714.43 508.952V504.984H2734.27V508.952H2714.43ZM2733.62 508.952V504.984H2751.54V508.952H2733.62ZM2754.04 478.664L2757.99 476.856L2771.41 504.776L2767.46 506.584L2754.04 478.664ZM2777.18 506.584L2773.22 504.776L2786.68 476.856L2790.6 478.664L2777.18 506.584ZM2792.41 478.664L2796.36 476.856L2809.79 504.776L2805.84 506.584L2792.41 478.664ZM2811.6 478.664L2815.55 476.856L2828.98 504.776L2825.02 506.584L2811.6 478.664ZM2830.79 478.664L2834.74 476.856L2848.16 504.776L2844.21 506.584L2830.79 478.664ZM2850.66 508.952V504.984H2866.66V508.952H2850.66ZM2869.16 478.664L2873.11 476.856L2886.54 504.776L2882.59 506.584L2869.16 478.664ZM2892.3 506.584L2888.35 504.776L2901.81 476.856L2905.73 478.664L2892.3 506.584ZM2907.54 478.664L2911.49 476.856L2924.91 504.776L2920.96 506.584L2907.54 478.664ZM2926.72 478.664L2930.68 476.856L2944.1 504.776L2940.15 506.584L2926.72 478.664ZM2945.91 478.664L2949.86 476.856L2963.29 504.776L2959.34 506.584L2945.91 478.664ZM2965.79 508.952V504.984H2983.71V508.952H2965.79ZM2983.05 508.952V504.984H3002.9V508.952H2983.05ZM3002.24 508.952V504.984H3020.16V508.952H3002.24ZM3022.66 478.664L3026.61 476.856L3040.04 504.776L3036.09 506.584L3022.66 478.664ZM3045.8 506.584L3041.85 504.776L3055.31 476.856L3059.23 478.664L3045.8 506.584ZM3061.04 478.664L3064.99 476.856L3078.41 504.776L3074.46 506.584L3061.04 478.664ZM3080.22 478.664L3084.18 476.856L3097.6 504.776L3093.65 506.584L3080.22 478.664ZM3099.41 478.664L3103.36 476.856L3116.79 504.776L3112.84 506.584L3099.41 478.664ZM3119.29 508.952V504.984H3137.21V508.952H3119.29ZM3136.55 508.952V504.984H3156.4V508.952H3136.55ZM3155.74 508.952V504.984H3175.58V508.952H3155.74ZM3174.93 508.952V504.984H3194.77V508.952H3174.93ZM3194.12 508.952V504.984H3213.96V508.952H3194.12ZM3213.3 508.952V504.984H3231.23V508.952H3213.3ZM3233.72 478.664L3237.68 476.856L3251.1 504.776L3247.15 506.584L3233.72 478.664ZM969.6 520.664L973.552 518.856L986.976 546.776L983.024 548.584L969.6 520.664ZM989.475 550.952V546.984H1007.4V550.952H989.475ZM1006.74 550.952V546.984H1026.58V550.952H1006.74ZM1025.93 550.952V546.984H1045.77V550.952H1025.93ZM1045.12 550.952V546.984H1063.04V550.952H1045.12ZM1065.54 520.664L1069.49 518.856L1082.91 546.776L1078.96 548.584L1065.54 520.664ZM1088.68 548.584L1084.72 546.776L1098.18 518.856L1102.1 520.664L1088.68 548.584ZM1107.86 548.584L1103.91 546.776L1117.37 518.856L1121.29 520.664L1107.86 548.584ZM1127.05 548.584L1123.1 546.776L1136.56 518.856L1140.48 520.664L1127.05 548.584ZM1146.24 548.584L1142.29 546.776L1155.74 518.856L1159.66 520.664L1146.24 548.584ZM1165.43 548.584L1161.47 546.776L1174.93 518.856L1178.85 520.664L1165.43 548.584ZM1184.61 548.584L1180.66 546.776L1194.12 518.856L1198.04 520.664L1184.61 548.584ZM1203.8 548.584L1199.85 546.776L1213.31 518.856L1217.23 520.664L1203.8 548.584ZM1222.99 548.584L1219.04 546.776L1232.49 518.856L1236.41 520.664L1222.99 548.584ZM1238.22 520.664L1242.18 518.856L1255.6 546.776L1251.65 548.584L1238.22 520.664ZM1257.41 520.664L1261.36 518.856L1274.79 546.776L1270.84 548.584L1257.41 520.664ZM1276.6 520.664L1280.55 518.856L1293.98 546.776L1290.02 548.584L1276.6 520.664ZM1296.48 550.952V546.984H1314.4V550.952H1296.48ZM1313.74 550.952V546.984H1333.58V550.952H1313.74ZM1332.93 550.952V546.984H1352.77V550.952H1332.93ZM1352.12 550.952V546.984H1371.96V550.952H1352.12ZM1371.3 550.952V546.984H1391.15V550.952H1371.3ZM1390.49 550.952V546.984H1410.33V550.952H1390.49ZM1409.68 550.952V546.984H1429.52V550.952H1409.68ZM1428.87 550.952V546.984H1448.71V550.952H1428.87ZM1448.05 550.952V546.984H1467.9V550.952H1448.05ZM1467.24 550.952V546.984H1487.08V550.952H1467.24ZM1486.43 550.952V546.984H1506.27V550.952H1486.43ZM1505.62 550.952V546.984H1525.46V550.952H1505.62ZM1524.8 550.952V546.984H1542.73V550.952H1524.8ZM1545.22 520.664L1549.18 518.856L1562.6 546.776L1558.65 548.584L1545.22 520.664ZM1568.36 548.584L1564.41 546.776L1577.87 518.856L1581.79 520.664L1568.36 548.584ZM1587.55 548.584L1583.6 546.776L1597.06 518.856L1600.98 520.664L1587.55 548.584ZM1606.74 548.584L1602.79 546.776L1616.24 518.856L1620.16 520.664L1606.74 548.584ZM1625.93 548.584L1621.97 546.776L1635.43 518.856L1639.35 520.664L1625.93 548.584ZM1645.11 548.584L1641.16 546.776L1654.62 518.856L1658.54 520.664L1645.11 548.584ZM1664.3 548.584L1660.35 546.776L1673.81 518.856L1677.73 520.664L1664.3 548.584ZM1683.49 548.584L1679.54 546.776L1692.99 518.856L1696.91 520.664L1683.49 548.584ZM1702.68 548.584L1698.72 546.776L1712.18 518.856L1716.1 520.664L1702.68 548.584ZM1721.86 548.584L1717.91 546.776L1731.37 518.856L1735.29 520.664L1721.86 548.584ZM1741.05 548.584L1737.1 546.776L1750.56 518.856L1754.48 520.664L1741.05 548.584ZM1760.24 548.584L1756.29 546.776L1769.74 518.856L1773.66 520.664L1760.24 548.584ZM1779.43 548.584L1775.47 546.776L1788.93 518.856L1792.85 520.664L1779.43 548.584ZM1795.35 550.952V546.984H1813.27V550.952H1795.35ZM1812.62 550.952V546.984H1832.46V550.952H1812.62ZM1831.8 550.952V546.984H1851.65V550.952H1831.8ZM1850.99 550.952V546.984H1868.91V550.952H1850.99ZM1871.41 520.664L1875.36 518.856L1888.79 546.776L1884.84 548.584L1871.41 520.664ZM1929.73 548.584L1925.77 546.776L1939.23 518.856L1943.15 520.664L1929.73 548.584ZM1897.73 548.584L1893.77 546.776L1907.23 518.856L1911.15 520.664L1897.73 548.584ZM1913.73 548.584L1909.77 546.776L1923.23 518.856L1927.15 520.664L1913.73 548.584ZM1948.85 550.952V546.984H1966.77V550.952H1948.85ZM1966.12 550.952V546.984H1985.96V550.952H1966.12ZM1985.3 550.952V546.984H2005.15V550.952H1985.3ZM2004.49 550.952V546.984H2024.33V550.952H2004.49ZM2023.68 550.952V546.984H2043.52V550.952H2023.68ZM2042.87 550.952V546.984H2062.71V550.952H2042.87ZM2062.05 550.952V546.984H2081.9V550.952H2062.05ZM2081.24 550.952V546.984H2101.08V550.952H2081.24ZM2100.43 550.952V546.984H2118.35V550.952H2100.43ZM2120.85 520.664L2124.8 518.856L2138.23 546.776L2134.27 548.584L2120.85 520.664ZM2143.99 548.584L2140.04 546.776L2153.49 518.856L2157.41 520.664L2143.99 548.584ZM2163.18 548.584L2159.22 546.776L2172.68 518.856L2176.6 520.664L2163.18 548.584ZM2182.36 548.584L2178.41 546.776L2191.87 518.856L2195.79 520.664L2182.36 548.584ZM2201.55 548.584L2197.6 546.776L2211.06 518.856L2214.98 520.664L2201.55 548.584ZM2217.48 550.952V546.984H2235.4V550.952H2217.48ZM2234.74 550.952V546.984H2254.58V550.952H2234.74ZM2253.93 550.952V546.984H2273.77V550.952H2253.93ZM2273.12 550.952V546.984H2292.96V550.952H2273.12ZM2292.3 550.952V546.984H2312.15V550.952H2292.3ZM2311.49 550.952V546.984H2331.33V550.952H2311.49ZM2330.68 550.952V546.984H2348.6V550.952H2330.68ZM2351.1 520.664L2355.05 518.856L2368.48 546.776L2364.52 548.584L2351.1 520.664ZM2409.41 548.584L2405.46 546.776L2418.92 518.856L2422.84 520.664L2409.41 548.584ZM2377.41 548.584L2373.46 546.776L2386.92 518.856L2390.84 520.664L2377.41 548.584ZM2393.41 548.584L2389.46 546.776L2402.92 518.856L2406.84 520.664L2393.41 548.584ZM2428.54 550.952V546.984H2446.46V550.952H2428.54ZM2445.8 550.952V546.984H2465.65V550.952H2445.8ZM2464.99 550.952V546.984H2484.83V550.952H2464.99ZM2484.18 550.952V546.984H2502.1V550.952H2484.18ZM2504.6 520.664L2508.55 518.856L2521.98 546.776L2518.02 548.584L2504.6 520.664ZM2562.91 548.584L2558.96 546.776L2572.42 518.856L2576.34 520.664L2562.91 548.584ZM2530.91 548.584L2526.96 546.776L2540.42 518.856L2544.34 520.664L2530.91 548.584ZM2546.91 548.584L2542.96 546.776L2556.42 518.856L2560.34 520.664L2546.91 548.584ZM2582.04 550.952V546.984H2599.96V550.952H2582.04ZM2599.3 550.952V546.984H2617.23V550.952H2599.3ZM2619.72 520.664L2623.68 518.856L2637.1 546.776L2633.15 548.584L2619.72 520.664ZM2678.04 548.584L2674.09 546.776L2687.54 518.856L2691.46 520.664L2678.04 548.584ZM2646.04 548.584L2642.09 546.776L2655.54 518.856L2659.46 520.664L2646.04 548.584ZM2662.04 548.584L2658.09 546.776L2671.54 518.856L2675.46 520.664L2662.04 548.584ZM2697.16 550.952V546.984H2715.08V550.952H2697.16ZM2714.43 550.952V546.984H2734.27V550.952H2714.43ZM2733.62 550.952V546.984H2753.46V550.952H2733.62ZM2752.8 550.952V546.984H2770.73V550.952H2752.8ZM2773.22 520.664L2777.18 518.856L2790.6 546.776L2786.65 548.584L2773.22 520.664ZM2831.54 548.584L2827.59 546.776L2841.04 518.856L2844.96 520.664L2831.54 548.584ZM2799.54 548.584L2795.59 546.776L2809.04 518.856L2812.96 520.664L2799.54 548.584ZM2815.54 548.584L2811.59 546.776L2825.04 518.856L2828.96 520.664L2815.54 548.584ZM2850.66 550.952V546.984H2868.58V550.952H2850.66ZM2867.93 550.952V546.984H2885.85V550.952H2867.93ZM2888.35 520.664L2892.3 518.856L2905.73 546.776L2901.77 548.584L2888.35 520.664ZM2946.66 548.584L2942.71 546.776L2956.17 518.856L2960.09 520.664L2946.66 548.584ZM2914.66 548.584L2910.71 546.776L2924.17 518.856L2928.09 520.664L2914.66 548.584ZM2930.66 548.584L2926.71 546.776L2940.17 518.856L2944.09 520.664L2930.66 548.584ZM2965.79 550.952V546.984H2983.71V550.952H2965.79ZM2983.05 550.952V546.984H3002.9V550.952H2983.05ZM3002.24 550.952V546.984H3022.08V550.952H3002.24ZM3021.43 550.952V546.984H3039.35V550.952H3021.43ZM3041.85 520.664L3045.8 518.856L3059.23 546.776L3055.27 548.584L3041.85 520.664ZM3100.16 548.584L3096.21 546.776L3109.67 518.856L3113.59 520.664L3100.16 548.584ZM3068.16 548.584L3064.21 546.776L3077.67 518.856L3081.59 520.664L3068.16 548.584ZM3084.16 548.584L3080.21 546.776L3093.67 518.856L3097.59 520.664L3084.16 548.584ZM3119.29 550.952V546.984H3137.21V550.952H3119.29ZM3136.55 550.952V546.984H3156.4V550.952H3136.55ZM3155.74 550.952V546.984H3175.58V550.952H3155.74ZM3174.93 550.952V546.984H3194.77V550.952H3174.93ZM3194.12 550.952V546.984H3213.96V550.952H3194.12ZM3213.3 550.952V546.984H3233.15V550.952H3213.3ZM3232.49 550.952V546.984H3250.41V550.952H3232.49ZM3252.91 520.664L3256.86 518.856L3270.29 546.776L3266.34 548.584L3252.91 520.664ZM1127.05 590.584L1123.1 588.776L1136.56 560.856L1140.48 562.664L1127.05 590.584ZM1142.29 562.664L1146.24 560.856L1159.66 588.776L1155.71 590.584L1142.29 562.664ZM1161.47 562.664L1165.43 560.856L1178.85 588.776L1174.9 590.584L1161.47 562.664ZM1180.66 562.664L1184.61 560.856L1198.04 588.776L1194.09 590.584L1180.66 562.664ZM1219.04 562.664L1222.99 560.856L1236.41 588.776L1232.46 590.584L1219.04 562.664ZM1242.18 590.584L1238.22 588.776L1251.68 560.856L1255.6 562.664L1242.18 590.584ZM1257.41 562.664L1261.36 560.856L1274.79 588.776L1270.84 590.584L1257.41 562.664ZM1276.6 562.664L1280.55 560.856L1293.98 588.776L1290.02 590.584L1276.6 562.664ZM1295.79 562.664L1299.74 560.856L1313.16 588.776L1309.21 590.584L1295.79 562.664ZM1107.86 632.584L1103.91 630.776L1117.37 602.856L1121.29 604.664L1107.86 632.584ZM1123.1 604.664L1127.05 602.856L1140.48 630.776L1136.52 632.584L1123.1 604.664ZM1142.29 604.664L1146.24 602.856L1159.66 630.776L1155.71 632.584L1142.29 604.664ZM1161.47 604.664L1165.43 602.856L1178.85 630.776L1174.9 632.584L1161.47 604.664ZM1180.66 604.664L1184.61 602.856L1198.04 630.776L1194.09 632.584L1180.66 604.664ZM1199.85 604.664L1203.8 602.856L1217.23 630.776L1213.27 632.584L1199.85 604.664ZM1219.04 604.664L1222.99 602.856L1236.41 630.776L1232.46 632.584L1219.04 604.664ZM1238.22 604.664L1242.18 602.856L1255.6 630.776L1251.65 632.584L1238.22 604.664ZM1257.41 604.664L1261.36 602.856L1274.79 630.776L1270.84 632.584L1257.41 604.664ZM1276.6 604.664L1280.55 602.856L1293.98 630.776L1290.02 632.584L1276.6 604.664ZM1295.79 604.664L1299.74 602.856L1313.16 630.776L1309.21 632.584L1295.79 604.664ZM1103.91 646.664L1107.86 644.856L1121.29 672.776L1117.34 674.584L1103.91 646.664ZM1127.05 674.584L1123.1 672.776L1136.56 644.856L1140.48 646.664L1127.05 674.584ZM1142.29 646.664L1146.24 644.856L1159.66 672.776L1155.71 674.584L1142.29 646.664ZM1161.47 646.664L1165.43 644.856L1178.85 672.776L1174.9 674.584L1161.47 646.664ZM1180.66 646.664L1184.61 644.856L1198.04 672.776L1194.09 674.584L1180.66 646.664ZM1199.85 646.664L1203.8 644.856L1217.23 672.776L1213.27 674.584L1199.85 646.664ZM1219.04 646.664L1222.99 644.856L1236.41 672.776L1232.46 674.584L1219.04 646.664ZM1277.35 674.584L1273.4 672.776L1286.86 644.856L1290.78 646.664L1277.35 674.584ZM1245.35 674.584L1241.4 672.776L1254.86 644.856L1258.78 646.664L1245.35 674.584ZM1261.35 674.584L1257.4 672.776L1270.86 644.856L1274.78 646.664L1261.35 674.584ZM1123.1 688.664L1127.05 686.856L1140.48 714.776L1136.52 716.584L1123.1 688.664ZM1146.24 716.584L1142.29 714.776L1155.74 686.856L1159.66 688.664L1146.24 716.584ZM1165.43 716.584L1161.47 714.776L1174.93 686.856L1178.85 688.664L1165.43 716.584ZM1184.61 716.584L1180.66 714.776L1194.12 686.856L1198.04 688.664L1184.61 716.584ZM1203.8 716.584L1199.85 714.776L1213.31 686.856L1217.23 688.664L1203.8 716.584ZM1222.99 716.584L1219.04 714.776L1232.49 686.856L1236.41 688.664L1222.99 716.584Z" fill="white"/>
</svg>
