<svg width="3548" height="775" viewBox="0 0 3548 775" fill="none" xmlns="http://www.w3.org/2000/svg">
<rect width="3548" height="775" fill="#030303"/>
<path d="M800.489 86.584L796.537 84.776L809.993 56.856L813.913 58.664L800.489 86.584ZM815.725 58.664L819.677 56.856L833.101 84.776L829.149 86.584L815.725 58.664ZM834.912 58.664L838.864 56.856L852.288 84.776L848.336 86.584L834.912 58.664ZM2995.19 64.84V83H2989.94V64.84H2983.72V60.824H3001.67L3001.13 64.84H2995.19ZM3019.58 60.824L3020.83 83H3016.25L3015.98 73.512C3015.96 72.6267 3015.95 71.8373 3015.95 71.144C3015.96 70.4507 3015.97 69.8 3016 69.192C3016.02 68.5733 3016.05 67.9547 3016.09 67.336C3016.14 66.7067 3016.2 66.024 3016.25 65.288L3013.76 79.224H3009.79L3007.1 65.288C3007.16 65.992 3007.22 66.6587 3007.26 67.288C3007.31 67.9067 3007.35 68.5307 3007.37 69.16C3007.39 69.7893 3007.41 70.4667 3007.42 71.192C3007.43 71.9067 3007.42 72.7067 3007.4 73.592L3007.24 83H3002.75L3004 60.824H3009.39L3011.85 75.16L3014.19 60.824H3019.58ZM800.489 128.584L796.537 126.776L809.993 98.856L813.913 100.664L800.489 128.584ZM815.725 100.664L819.677 98.856L833.101 126.776L829.149 128.584L815.725 100.664ZM834.912 100.664L838.864 98.856L852.288 126.776L848.336 128.584L834.912 100.664ZM854.1 100.664L858.052 98.856L871.476 126.776L867.524 128.584L854.1 100.664ZM873.287 100.664L877.239 98.856L890.663 126.776L886.711 128.584L873.287 100.664ZM800.489 170.584L796.537 168.776L809.993 140.856L813.913 142.664L800.489 170.584ZM815.725 142.664L819.677 140.856L833.101 168.776L829.149 170.584L815.725 142.664ZM834.912 142.664L838.864 140.856L852.288 168.776L848.336 170.584L834.912 142.664ZM854.1 142.664L858.052 140.856L871.476 168.776L867.524 170.584L854.1 142.664ZM877.239 170.584L873.287 168.776L886.743 140.856L890.663 142.664L877.239 170.584ZM892.475 142.664L896.427 140.856L909.851 168.776L905.899 170.584L892.475 142.664ZM911.662 142.664L915.614 140.856L929.038 168.776L925.086 170.584L911.662 142.664ZM566.975 214.952V210.984H584.895V214.952H566.975ZM584.242 214.952V210.984H604.083V214.952H584.242ZM603.43 214.952V210.984H623.27V214.952H603.43ZM622.617 214.952V210.984H642.458V214.952H622.617ZM641.805 214.952V210.984H661.645V214.952H641.805ZM660.992 214.952V210.984H680.833V214.952H660.992ZM680.18 214.952V210.984H700.02V214.952H680.18ZM699.367 214.952V210.984H719.208V214.952H699.367ZM718.555 214.952V210.984H738.395V214.952H718.555ZM737.742 214.952V210.984H757.583V214.952H737.742ZM756.93 214.952V210.984H776.77V214.952H756.93ZM776.117 214.952V210.984H794.038V214.952H776.117ZM796.537 184.664L800.489 182.856L813.913 210.776L809.961 212.584L796.537 184.664ZM819.677 212.584L815.725 210.776L829.181 182.856L833.101 184.664L819.677 212.584ZM834.912 184.664L838.864 182.856L852.288 210.776L848.336 212.584L834.912 184.664ZM854.1 184.664L858.052 182.856L871.476 210.776L867.524 212.584L854.1 184.664ZM873.287 184.664L877.239 182.856L890.663 210.776L886.711 212.584L873.287 184.664ZM896.427 212.584L892.475 210.776L905.931 182.856L909.851 184.664L896.427 212.584ZM911.662 184.664L915.614 182.856L929.038 210.776L925.086 212.584L911.662 184.664ZM930.85 184.664L934.802 182.856L948.226 210.776L944.274 212.584L930.85 184.664ZM950.725 214.952V210.984H968.645V214.952H950.725ZM967.992 214.952V210.984H987.833V214.952H967.992ZM987.18 214.952V210.984H1007.02V214.952H987.18ZM1006.37 214.952V210.984H1026.21V214.952H1006.37ZM1025.55 214.952V210.984H1045.4V214.952H1025.55ZM1044.74 214.952V210.984H1064.58V214.952H1044.74ZM1063.93 214.952V210.984H1083.77V214.952H1063.93ZM1083.12 214.952V210.984H1102.96V214.952H1083.12ZM1102.3 214.952V210.984H1122.15V214.952H1102.3ZM1121.49 214.952V210.984H1141.33V214.952H1121.49ZM1140.68 214.952V210.984H1160.52V214.952H1140.68ZM1159.87 214.952V210.984H1177.79V214.952H1159.87ZM1184.24 212.584L1180.29 210.776L1193.74 182.856L1197.66 184.664L1184.24 212.584ZM1199.47 184.664L1203.43 182.856L1216.85 210.776L1212.9 212.584L1199.47 184.664ZM1218.66 184.664L1222.61 182.856L1236.04 210.776L1232.09 212.584L1218.66 184.664ZM1237.85 184.664L1241.8 182.856L1255.23 210.776L1251.27 212.584L1237.85 184.664ZM1257.04 184.664L1260.99 182.856L1274.41 210.776L1270.46 212.584L1257.04 184.664ZM1276.22 184.664L1280.18 182.856L1293.6 210.776L1289.65 212.584L1276.22 184.664ZM1295.41 184.664L1299.36 182.856L1312.79 210.776L1308.84 212.584L1295.41 184.664ZM1314.6 184.664L1318.55 182.856L1331.98 210.776L1328.02 212.584L1314.6 184.664ZM1333.79 184.664L1337.74 182.856L1351.16 210.776L1347.21 212.584L1333.79 184.664ZM1352.97 184.664L1356.93 182.856L1370.35 210.776L1366.4 212.584L1352.97 184.664ZM1372.16 184.664L1376.11 182.856L1389.54 210.776L1385.59 212.584L1372.16 184.664ZM1391.35 184.664L1395.3 182.856L1408.73 210.776L1404.77 212.584L1391.35 184.664ZM1410.54 184.664L1414.49 182.856L1427.91 210.776L1423.96 212.584L1410.54 184.664ZM1430.41 214.952V210.984H1448.33V214.952H1430.41ZM1447.68 214.952V210.984H1467.52V214.952H1447.68ZM1466.87 214.952V210.984H1486.71V214.952H1466.87ZM1486.05 214.952V210.984H1505.9V214.952H1486.05ZM1505.24 214.952V210.984H1525.08V214.952H1505.24ZM1524.43 214.952V210.984H1544.27V214.952H1524.43ZM1543.62 214.952V210.984H1563.46V214.952H1543.62ZM1562.8 214.952V210.984H1582.65V214.952H1562.8ZM1581.99 214.952V210.984H1601.83V214.952H1581.99ZM1601.18 214.952V210.984H1621.02V214.952H1601.18ZM1620.37 214.952V210.984H1640.21V214.952H1620.37ZM1639.55 214.952V210.984H1659.4V214.952H1639.55ZM1658.74 214.952V210.984H1678.58V214.952H1658.74ZM1677.93 214.952V210.984H1697.77V214.952H1677.93ZM1697.12 214.952V210.984H1716.96V214.952H1697.12ZM1716.3 214.952V210.984H1736.15V214.952H1716.3ZM1735.49 214.952V210.984H1755.33V214.952H1735.49ZM1754.68 214.952V210.984H1774.52V214.952H1754.68ZM1773.87 214.952V210.984H1793.71V214.952H1773.87ZM1793.05 214.952V210.984H1812.9V214.952H1793.05ZM1812.24 214.952V210.984H1832.08V214.952H1812.24ZM1831.43 214.952V210.984H1851.27V214.952H1831.43ZM1850.62 214.952V210.984H1870.46V214.952H1850.62ZM1869.8 214.952V210.984H1889.65V214.952H1869.8ZM1888.99 214.952V210.984H1908.83V214.952H1888.99ZM1908.18 214.952V210.984H1928.02V214.952H1908.18ZM1927.37 214.952V210.984H1947.21V214.952H1927.37ZM1946.55 214.952V210.984H1966.4V214.952H1946.55ZM1965.74 214.952V210.984H1985.58V214.952H1965.74ZM1984.93 214.952V210.984H2004.77V214.952H1984.93ZM2004.12 214.952V210.984H2023.96V214.952H2004.12ZM2023.3 214.952V210.984H2043.15V214.952H2023.3ZM2042.49 214.952V210.984H2062.33V214.952H2042.49ZM2061.68 214.952V210.984H2081.52V214.952H2061.68ZM2080.87 214.952V210.984H2100.71V214.952H2080.87ZM2100.05 214.952V210.984H2119.9V214.952H2100.05ZM2119.24 214.952V210.984H2139.08V214.952H2119.24ZM2138.43 214.952V210.984H2158.27V214.952H2138.43ZM2157.62 214.952V210.984H2177.46V214.952H2157.62ZM2176.8 214.952V210.984H2196.65V214.952H2176.8ZM2195.99 214.952V210.984H2215.83V214.952H2195.99ZM2215.18 214.952V210.984H2235.02V214.952H2215.18ZM2234.37 214.952V210.984H2254.21V214.952H2234.37ZM2253.55 214.952V210.984H2273.4V214.952H2253.55ZM2272.74 214.952V210.984H2292.58V214.952H2272.74ZM2291.93 214.952V210.984H2311.77V214.952H2291.93ZM2311.12 214.952V210.984H2330.96V214.952H2311.12ZM2330.3 214.952V210.984H2350.15V214.952H2330.3ZM2349.49 214.952V210.984H2369.33V214.952H2349.49ZM2368.68 214.952V210.984H2388.52V214.952H2368.68ZM2387.87 214.952V210.984H2407.71V214.952H2387.87ZM2407.05 214.952V210.984H2426.9V214.952H2407.05ZM2426.24 214.952V210.984H2446.08V214.952H2426.24ZM2445.43 214.952V210.984H2465.27V214.952H2445.43ZM2464.62 214.952V210.984H2484.46V214.952H2464.62ZM2483.8 214.952V210.984H2503.65V214.952H2483.8ZM2502.99 214.952V210.984H2522.83V214.952H2502.99ZM2522.18 214.952V210.984H2542.02V214.952H2522.18ZM2541.37 214.952V210.984H2561.21V214.952H2541.37ZM2560.55 214.952V210.984H2580.4V214.952H2560.55ZM2579.74 214.952V210.984H2599.58V214.952H2579.74ZM2598.93 214.952V210.984H2618.77V214.952H2598.93ZM2618.12 214.952V210.984H2637.96V214.952H2618.12ZM2637.3 214.952V210.984H2657.15V214.952H2637.3ZM2656.49 214.952V210.984H2676.33V214.952H2656.49ZM2675.68 214.952V210.984H2695.52V214.952H2675.68ZM2694.87 214.952V210.984H2714.71V214.952H2694.87ZM2714.05 214.952V210.984H2733.9V214.952H2714.05ZM2733.24 214.952V210.984H2753.08V214.952H2733.24ZM2752.43 214.952V210.984H2772.27V214.952H2752.43ZM2771.62 214.952V210.984H2791.46V214.952H2771.62ZM2790.8 214.952V210.984H2810.65V214.952H2790.8ZM2809.99 214.952V210.984H2827.91V214.952H2809.99ZM566.287 226.664L570.239 224.856L583.663 252.776L579.711 254.584L566.287 226.664ZM586.163 256.952V252.984H604.083V256.952H586.163ZM603.43 256.952V252.984H623.27V256.952H603.43ZM622.617 256.952V252.984H642.458V256.952H622.617ZM641.805 256.952V252.984H661.645V256.952H641.805ZM660.992 256.952V252.984H680.833V256.952H660.992ZM680.18 256.952V252.984H700.02V256.952H680.18ZM699.367 256.952V252.984H719.208V256.952H699.367ZM718.555 256.952V252.984H738.395V256.952H718.555ZM737.742 256.952V252.984H757.583V256.952H737.742ZM756.93 256.952V252.984H776.77V256.952H756.93ZM776.117 256.952V252.984H794.038V256.952H776.117ZM796.537 226.664L800.489 224.856L813.913 252.776L809.961 254.584L796.537 226.664ZM819.677 254.584L815.725 252.776L829.181 224.856L833.101 226.664L819.677 254.584ZM834.912 226.664L838.864 224.856L852.288 252.776L848.336 254.584L834.912 226.664ZM854.1 226.664L858.052 224.856L871.476 252.776L867.524 254.584L854.1 226.664ZM877.239 254.584L873.287 252.776L886.743 224.856L890.663 226.664L877.239 254.584ZM892.475 226.664L896.427 224.856L909.851 252.776L905.899 254.584L892.475 226.664ZM911.662 226.664L915.614 224.856L929.038 252.776L925.086 254.584L911.662 226.664ZM931.538 256.952V252.984H949.458V256.952H931.538ZM948.805 256.952V252.984H968.645V256.952H948.805ZM967.992 256.952V252.984H987.833V256.952H967.992ZM987.18 256.952V252.984H1007.02V256.952H987.18ZM1006.37 256.952V252.984H1026.21V256.952H1006.37ZM1025.55 256.952V252.984H1045.4V256.952H1025.55ZM1044.74 256.952V252.984H1064.58V256.952H1044.74ZM1063.93 256.952V252.984H1083.77V256.952H1063.93ZM1083.12 256.952V252.984H1102.96V256.952H1083.12ZM1102.3 256.952V252.984H1122.15V256.952H1102.3ZM1121.49 256.952V252.984H1141.33V256.952H1121.49ZM1140.68 256.952V252.984H1158.6V256.952H1140.68ZM1165.05 254.584L1161.1 252.776L1174.56 224.856L1178.48 226.664L1165.05 254.584ZM1180.29 226.664L1184.24 224.856L1197.66 252.776L1193.71 254.584L1180.29 226.664ZM1199.47 226.664L1203.43 224.856L1216.85 252.776L1212.9 254.584L1199.47 226.664ZM1218.66 226.664L1222.61 224.856L1236.04 252.776L1232.09 254.584L1218.66 226.664ZM1237.85 226.664L1241.8 224.856L1255.23 252.776L1251.27 254.584L1237.85 226.664ZM1260.99 254.584L1257.04 252.776L1270.49 224.856L1274.41 226.664L1260.99 254.584ZM1280.18 254.584L1276.22 252.776L1289.68 224.856L1293.6 226.664L1280.18 254.584ZM1299.36 254.584L1295.41 252.776L1308.87 224.856L1312.79 226.664L1299.36 254.584ZM1318.55 254.584L1314.6 252.776L1328.06 224.856L1331.98 226.664L1318.55 254.584ZM1337.74 254.584L1333.79 252.776L1347.24 224.856L1351.16 226.664L1337.74 254.584ZM1356.93 254.584L1352.97 252.776L1366.43 224.856L1370.35 226.664L1356.93 254.584ZM1376.11 254.584L1372.16 252.776L1385.62 224.856L1389.54 226.664L1376.11 254.584ZM1395.3 254.584L1391.35 252.776L1404.81 224.856L1408.73 226.664L1395.3 254.584ZM1410.54 226.664L1414.49 224.856L1427.91 252.776L1423.96 254.584L1410.54 226.664ZM1429.72 226.664L1433.68 224.856L1447.1 252.776L1443.15 254.584L1429.72 226.664ZM1448.91 226.664L1452.86 224.856L1466.29 252.776L1462.34 254.584L1448.91 226.664ZM1468.79 256.952V252.984H1486.71V256.952H1468.79ZM1486.05 256.952V252.984H1505.9V256.952H1486.05ZM1505.24 256.952V252.984H1525.08V256.952H1505.24ZM1524.43 256.952V252.984H1544.27V256.952H1524.43ZM1543.62 256.952V252.984H1563.46V256.952H1543.62ZM1562.8 256.952V252.984H1582.65V256.952H1562.8ZM1581.99 256.952V252.984H1601.83V256.952H1581.99ZM1601.18 256.952V252.984H1621.02V256.952H1601.18ZM1620.37 256.952V252.984H1640.21V256.952H1620.37ZM1639.55 256.952V252.984H1659.4V256.952H1639.55ZM1658.74 256.952V252.984H1678.58V256.952H1658.74ZM1677.93 256.952V252.984H1697.77V256.952H1677.93ZM1697.12 256.952V252.984H1716.96V256.952H1697.12ZM1716.3 256.952V252.984H1736.15V256.952H1716.3ZM1735.49 256.952V252.984H1755.33V256.952H1735.49ZM1754.68 256.952V252.984H1774.52V256.952H1754.68ZM1773.87 256.952V252.984H1793.71V256.952H1773.87ZM1793.05 256.952V252.984H1812.9V256.952H1793.05ZM1812.24 256.952V252.984H1832.08V256.952H1812.24ZM1831.43 256.952V252.984H1851.27V256.952H1831.43ZM1850.62 256.952V252.984H1870.46V256.952H1850.62ZM1869.8 256.952V252.984H1889.65V256.952H1869.8ZM1888.99 256.952V252.984H1908.83V256.952H1888.99ZM1908.18 256.952V252.984H1928.02V256.952H1908.18ZM1927.37 256.952V252.984H1947.21V256.952H1927.37ZM1946.55 256.952V252.984H1966.4V256.952H1946.55ZM1965.74 256.952V252.984H1985.58V256.952H1965.74ZM1984.93 256.952V252.984H2004.77V256.952H1984.93ZM2004.12 256.952V252.984H2023.96V256.952H2004.12ZM2023.3 256.952V252.984H2043.15V256.952H2023.3ZM2042.49 256.952V252.984H2062.33V256.952H2042.49ZM2061.68 256.952V252.984H2081.52V256.952H2061.68ZM2080.87 256.952V252.984H2100.71V256.952H2080.87ZM2100.05 256.952V252.984H2119.9V256.952H2100.05ZM2119.24 256.952V252.984H2139.08V256.952H2119.24ZM2138.43 256.952V252.984H2158.27V256.952H2138.43ZM2157.62 256.952V252.984H2177.46V256.952H2157.62ZM2176.8 256.952V252.984H2196.65V256.952H2176.8ZM2195.99 256.952V252.984H2215.83V256.952H2195.99ZM2215.18 256.952V252.984H2235.02V256.952H2215.18ZM2234.37 256.952V252.984H2254.21V256.952H2234.37ZM2253.55 256.952V252.984H2273.4V256.952H2253.55ZM2272.74 256.952V252.984H2292.58V256.952H2272.74ZM2291.93 256.952V252.984H2311.77V256.952H2291.93ZM2311.12 256.952V252.984H2330.96V256.952H2311.12ZM2330.3 256.952V252.984H2350.15V256.952H2330.3ZM2349.49 256.952V252.984H2369.33V256.952H2349.49ZM2368.68 256.952V252.984H2388.52V256.952H2368.68ZM2387.87 256.952V252.984H2407.71V256.952H2387.87ZM2407.05 256.952V252.984H2426.9V256.952H2407.05ZM2426.24 256.952V252.984H2446.08V256.952H2426.24ZM2445.43 256.952V252.984H2465.27V256.952H2445.43ZM2464.62 256.952V252.984H2484.46V256.952H2464.62ZM2483.8 256.952V252.984H2503.65V256.952H2483.8ZM2502.99 256.952V252.984H2522.83V256.952H2502.99ZM2522.18 256.952V252.984H2542.02V256.952H2522.18ZM2541.37 256.952V252.984H2561.21V256.952H2541.37ZM2560.55 256.952V252.984H2580.4V256.952H2560.55ZM2579.74 256.952V252.984H2599.58V256.952H2579.74ZM2598.93 256.952V252.984H2618.77V256.952H2598.93ZM2618.12 256.952V252.984H2637.96V256.952H2618.12ZM2637.3 256.952V252.984H2657.15V256.952H2637.3ZM2656.49 256.952V252.984H2676.33V256.952H2656.49ZM2675.68 256.952V252.984H2695.52V256.952H2675.68ZM2694.87 256.952V252.984H2714.71V256.952H2694.87ZM2714.05 256.952V252.984H2733.9V256.952H2714.05ZM2733.24 256.952V252.984H2753.08V256.952H2733.24ZM2752.43 256.952V252.984H2772.27V256.952H2752.43ZM2771.62 256.952V252.984H2791.46V256.952H2771.62ZM2790.8 256.952V252.984H2810.65V256.952H2790.8ZM2809.99 256.952V252.984H2827.91V256.952H2809.99ZM2830.41 226.664L2834.36 224.856L2847.79 252.776L2843.84 254.584L2830.41 226.664ZM585.475 268.664L589.427 266.856L602.851 294.776L598.899 296.584L585.475 268.664ZM605.35 298.952V294.984H623.27V298.952H605.35ZM622.617 298.952V294.984H642.458V298.952H622.617ZM641.805 298.952V294.984H661.645V298.952H641.805ZM660.992 298.952V294.984H680.833V298.952H660.992ZM680.18 298.952V294.984H700.02V298.952H680.18ZM699.367 298.952V294.984H719.208V298.952H699.367ZM718.555 298.952V294.984H738.395V298.952H718.555ZM737.742 298.952V294.984H757.583V298.952H737.742ZM756.93 298.952V294.984H776.77V298.952H756.93ZM776.117 298.952V294.984H794.038V298.952H776.117ZM800.489 296.584L796.537 294.776L809.993 266.856L813.913 268.664L800.489 296.584ZM815.725 268.664L819.677 266.856L833.101 294.776L829.149 296.584L815.725 268.664ZM834.912 268.664L838.864 266.856L852.288 294.776L848.336 296.584L834.912 268.664ZM854.1 268.664L858.052 266.856L871.476 294.776L867.524 296.584L854.1 268.664ZM873.287 268.664L877.239 266.856L890.663 294.776L886.711 296.584L873.287 268.664ZM892.475 268.664L896.427 266.856L909.851 294.776L905.899 296.584L892.475 268.664ZM915.614 296.584L911.662 294.776L925.118 266.856L929.038 268.664L915.614 296.584ZM931.538 298.952V294.984H949.458V298.952H931.538ZM948.805 298.952V294.984H968.645V298.952H948.805ZM967.992 298.952V294.984H987.833V298.952H967.992ZM987.18 298.952V294.984H1007.02V298.952H987.18ZM1006.37 298.952V294.984H1026.21V298.952H1006.37ZM1025.55 298.952V294.984H1045.4V298.952H1025.55ZM1044.74 298.952V294.984H1064.58V298.952H1044.74ZM1063.93 298.952V294.984H1083.77V298.952H1063.93ZM1083.12 298.952V294.984H1102.96V298.952H1083.12ZM1102.3 298.952V294.984H1122.15V298.952H1102.3ZM1121.49 298.952V294.984H1141.33V298.952H1121.49ZM1140.68 298.952V294.984H1158.6V298.952H1140.68ZM1161.1 268.664L1165.05 266.856L1178.48 294.776L1174.52 296.584L1161.1 268.664ZM1185.83 296.584L1181.87 294.776L1195.33 266.856L1199.25 268.664L1185.83 296.584ZM1201.83 296.584L1197.87 294.776L1211.33 266.856L1215.25 268.664L1201.83 296.584ZM1218.66 268.664L1222.61 266.856L1236.04 294.776L1232.09 296.584L1218.66 268.664ZM1237.85 268.664L1241.8 266.856L1255.23 294.776L1251.27 296.584L1237.85 268.664ZM1257.04 268.664L1260.99 266.856L1274.41 294.776L1270.46 296.584L1257.04 268.664ZM1276.22 268.664L1280.18 266.856L1293.6 294.776L1289.65 296.584L1276.22 268.664ZM1296.1 298.952V294.984H1314.02V298.952H1296.1ZM1313.37 298.952V294.984H1333.21V298.952H1313.37ZM1332.55 298.952V294.984H1352.4V298.952H1332.55ZM1351.74 298.952V294.984H1371.58V298.952H1351.74ZM1370.93 298.952V294.984H1388.85V298.952H1370.93ZM1391.35 268.664L1395.3 266.856L1408.73 294.776L1404.77 296.584L1391.35 268.664ZM1449.66 296.584L1445.71 294.776L1459.17 266.856L1463.09 268.664L1449.66 296.584ZM1417.66 296.584L1413.71 294.776L1427.17 266.856L1431.09 268.664L1417.66 296.584ZM1433.66 296.584L1429.71 294.776L1443.17 266.856L1447.09 268.664L1433.66 296.584ZM1468.79 298.952V294.984H1486.71V298.952H1468.79ZM1486.05 298.952V294.984H1503.98V298.952H1486.05ZM1510.43 296.584L1506.47 294.776L1519.93 266.856L1523.85 268.664L1510.43 296.584ZM1525.66 268.664L1529.61 266.856L1543.04 294.776L1539.09 296.584L1525.66 268.664ZM1544.85 268.664L1548.8 266.856L1562.23 294.776L1558.27 296.584L1544.85 268.664ZM1564.04 268.664L1567.99 266.856L1581.41 294.776L1577.46 296.584L1564.04 268.664ZM1583.22 268.664L1587.18 266.856L1600.6 294.776L1596.65 296.584L1583.22 268.664ZM1602.41 268.664L1606.36 266.856L1619.79 294.776L1615.84 296.584L1602.41 268.664ZM1621.6 268.664L1625.55 266.856L1638.98 294.776L1635.02 296.584L1621.6 268.664ZM1640.79 268.664L1644.74 266.856L1658.16 294.776L1654.21 296.584L1640.79 268.664ZM1659.97 268.664L1663.93 266.856L1677.35 294.776L1673.4 296.584L1659.97 268.664ZM1679.16 268.664L1683.11 266.856L1696.54 294.776L1692.59 296.584L1679.16 268.664ZM1699.04 298.952V294.984H1716.96V298.952H1699.04ZM1716.3 298.952V294.984H1736.15V298.952H1716.3ZM1735.49 298.952V294.984H1753.41V298.952H1735.49ZM1759.86 296.584L1755.91 294.776L1769.37 266.856L1773.29 268.664L1759.86 296.584ZM1775.1 268.664L1779.05 266.856L1792.48 294.776L1788.52 296.584L1775.1 268.664ZM1794.29 268.664L1798.24 266.856L1811.66 294.776L1807.71 296.584L1794.29 268.664ZM1813.47 268.664L1817.43 266.856L1830.85 294.776L1826.9 296.584L1813.47 268.664ZM1833.35 298.952V294.984H1851.27V298.952H1833.35ZM1850.62 298.952V294.984H1868.54V298.952H1850.62ZM1874.99 296.584L1871.04 294.776L1884.49 266.856L1888.41 268.664L1874.99 296.584ZM1890.22 268.664L1894.18 266.856L1907.6 294.776L1903.65 296.584L1890.22 268.664ZM1909.41 268.664L1913.36 266.856L1926.79 294.776L1922.84 296.584L1909.41 268.664ZM1928.6 268.664L1932.55 266.856L1945.98 294.776L1942.02 296.584L1928.6 268.664ZM1948.48 298.952V294.984H1964.48V298.952H1948.48ZM1970.93 296.584L1966.97 294.776L1980.43 266.856L1984.35 268.664L1970.93 296.584ZM1986.16 268.664L1990.11 266.856L2003.54 294.776L1999.59 296.584L1986.16 268.664ZM2005.35 268.664L2009.3 266.856L2022.73 294.776L2018.77 296.584L2005.35 268.664ZM2028.49 296.584L2024.54 294.776L2037.99 266.856L2041.91 268.664L2028.49 296.584ZM2043.72 268.664L2047.68 266.856L2061.1 294.776L2057.15 296.584L2043.72 268.664ZM2062.91 268.664L2066.86 266.856L2080.29 294.776L2076.34 296.584L2062.91 268.664ZM2082.1 268.664L2086.05 266.856L2099.48 294.776L2095.52 296.584L2082.1 268.664ZM2101.29 268.664L2105.24 266.856L2118.66 294.776L2114.71 296.584L2101.29 268.664ZM2120.47 268.664L2124.43 266.856L2137.85 294.776L2133.9 296.584L2120.47 268.664ZM2139.66 268.664L2143.61 266.856L2157.04 294.776L2153.09 296.584L2139.66 268.664ZM2158.85 268.664L2162.8 266.856L2176.23 294.776L2172.27 296.584L2158.85 268.664ZM2178.73 298.952V294.984H2196.65V298.952H2178.73ZM2195.99 298.952V294.984H2215.83V298.952H2195.99ZM2215.18 298.952V294.984H2233.1V298.952H2215.18ZM2239.55 296.584L2235.6 294.776L2249.06 266.856L2252.98 268.664L2239.55 296.584ZM2254.79 268.664L2258.74 266.856L2272.16 294.776L2268.21 296.584L2254.79 268.664ZM2273.97 268.664L2277.93 266.856L2291.35 294.776L2287.4 296.584L2273.97 268.664ZM2297.11 296.584L2293.16 294.776L2306.62 266.856L2310.54 268.664L2297.11 296.584ZM2312.35 268.664L2316.3 266.856L2329.73 294.776L2325.77 296.584L2312.35 268.664ZM2331.54 268.664L2335.49 266.856L2348.91 294.776L2344.96 296.584L2331.54 268.664ZM2350.72 268.664L2354.68 266.856L2368.1 294.776L2364.15 296.584L2350.72 268.664ZM2369.91 268.664L2373.86 266.856L2387.29 294.776L2383.34 296.584L2369.91 268.664ZM2389.1 268.664L2393.05 266.856L2406.48 294.776L2402.52 296.584L2389.1 268.664ZM2408.29 268.664L2412.24 266.856L2425.66 294.776L2421.71 296.584L2408.29 268.664ZM2427.47 268.664L2431.43 266.856L2444.85 294.776L2440.9 296.584L2427.47 268.664ZM2447.35 298.952V294.984H2465.27V298.952H2447.35ZM2464.62 298.952V294.984H2484.46V298.952H2464.62ZM2483.8 298.952V294.984H2501.73V298.952H2483.8ZM2508.18 296.584L2504.22 294.776L2517.68 266.856L2521.6 268.664L2508.18 296.584ZM2523.41 268.664L2527.36 266.856L2540.79 294.776L2536.84 296.584L2523.41 268.664ZM2542.6 268.664L2546.55 266.856L2559.98 294.776L2556.02 296.584L2542.6 268.664ZM2565.74 296.584L2561.79 294.776L2575.24 266.856L2579.16 268.664L2565.74 296.584ZM2580.97 268.664L2584.93 266.856L2598.35 294.776L2594.4 296.584L2580.97 268.664ZM2600.16 268.664L2604.11 266.856L2617.54 294.776L2613.59 296.584L2600.16 268.664ZM2619.35 268.664L2623.3 266.856L2636.73 294.776L2632.77 296.584L2619.35 268.664ZM2638.54 268.664L2642.49 266.856L2655.91 294.776L2651.96 296.584L2638.54 268.664ZM2657.72 268.664L2661.68 266.856L2675.1 294.776L2671.15 296.584L2657.72 268.664ZM2676.91 268.664L2680.86 266.856L2694.29 294.776L2690.34 296.584L2676.91 268.664ZM2696.1 268.664L2700.05 266.856L2713.48 294.776L2709.52 296.584L2696.1 268.664ZM2715.98 298.952V294.984H2733.9V298.952H2715.98ZM2733.24 298.952V294.984H2753.08V298.952H2733.24ZM2752.43 298.952V294.984H2772.27V298.952H2752.43ZM2771.62 298.952V294.984H2791.46V298.952H2771.62ZM2790.8 298.952V294.984H2810.65V298.952H2790.8ZM2809.99 298.952V294.984H2829.83V298.952H2809.99ZM2829.18 298.952V294.984H2847.1V298.952H2829.18ZM2849.6 268.664L2853.55 266.856L2866.98 294.776L2863.02 296.584L2849.6 268.664ZM604.662 310.664L608.614 308.856L622.038 336.776L618.086 338.584L604.662 310.664ZM624.538 340.952V336.984H642.458V340.952H624.538ZM641.805 340.952V336.984H661.645V340.952H641.805ZM660.992 340.952V336.984H680.833V340.952H660.992ZM680.18 340.952V336.984H700.02V340.952H680.18ZM699.367 340.952V336.984H719.208V340.952H699.367ZM718.555 340.952V336.984H738.395V340.952H718.555ZM737.742 340.952V336.984H755.663V340.952H737.742ZM762.114 338.584L758.162 336.776L771.618 308.856L775.538 310.664L762.114 338.584ZM777.35 310.664L781.302 308.856L794.726 336.776L790.774 338.584L777.35 310.664ZM796.537 310.664L800.489 308.856L813.913 336.776L809.961 338.584L796.537 310.664ZM815.725 310.664L819.677 308.856L833.101 336.776L829.149 338.584L815.725 310.664ZM834.912 310.664L838.864 308.856L852.288 336.776L848.336 338.584L834.912 310.664ZM854.1 310.664L858.052 308.856L871.476 336.776L867.524 338.584L854.1 310.664ZM873.287 310.664L877.239 308.856L890.663 336.776L886.711 338.584L873.287 310.664ZM892.475 310.664L896.427 308.856L909.851 336.776L905.899 338.584L892.475 310.664ZM912.35 340.952V336.984H930.27V340.952H912.35ZM929.617 340.952V336.984H949.458V340.952H929.617ZM948.805 340.952V336.984H968.645V340.952H948.805ZM967.992 340.952V336.984H987.833V340.952H967.992ZM987.18 340.952V336.984H1007.02V340.952H987.18ZM1006.37 340.952V336.984H1026.21V340.952H1006.37ZM1025.55 340.952V336.984H1045.4V340.952H1025.55ZM1044.74 340.952V336.984H1064.58V340.952H1044.74ZM1063.93 340.952V336.984H1083.77V340.952H1063.93ZM1083.12 340.952V336.984H1102.96V340.952H1083.12ZM1102.3 340.952V336.984H1122.15V340.952H1102.3ZM1121.49 340.952V336.984H1141.33V340.952H1121.49ZM1140.68 340.952V336.984H1160.52V340.952H1140.68ZM1159.87 340.952V336.984H1179.71V340.952H1159.87ZM1179.05 340.952V336.984H1196.98V340.952H1179.05ZM1199.47 310.664L1203.43 308.856L1216.85 336.776L1212.9 338.584L1199.47 310.664ZM1224.2 338.584L1220.25 336.776L1233.71 308.856L1237.63 310.664L1224.2 338.584ZM1240.2 338.584L1236.25 336.776L1249.71 308.856L1253.63 310.664L1240.2 338.584ZM1257.04 310.664L1260.99 308.856L1274.41 336.776L1270.46 338.584L1257.04 310.664ZM1276.22 310.664L1280.18 308.856L1293.6 336.776L1289.65 338.584L1276.22 310.664ZM1295.41 310.664L1299.36 308.856L1312.79 336.776L1308.84 338.584L1295.41 310.664ZM1314.6 310.664L1318.55 308.856L1331.98 336.776L1328.02 338.584L1314.6 310.664ZM1333.79 310.664L1337.74 308.856L1351.16 336.776L1347.21 338.584L1333.79 310.664ZM1353.66 340.952V336.984H1371.58V340.952H1353.66ZM1370.93 340.952V336.984H1390.77V340.952H1370.93ZM1390.12 340.952V336.984H1409.96V340.952H1390.12ZM1409.3 340.952V336.984H1429.15V340.952H1409.3ZM1428.49 340.952V336.984H1448.33V340.952H1428.49ZM1447.68 340.952V336.984H1467.52V340.952H1447.68ZM1466.87 340.952V336.984H1486.71V340.952H1466.87ZM1486.05 340.952V336.984H1503.98V340.952H1486.05ZM1506.47 310.664L1510.43 308.856L1523.85 336.776L1519.9 338.584L1506.47 310.664ZM1529.61 338.584L1525.66 336.776L1539.12 308.856L1543.04 310.664L1529.61 338.584ZM1544.85 310.664L1548.8 308.856L1562.23 336.776L1558.27 338.584L1544.85 310.664ZM1564.04 310.664L1567.99 308.856L1581.41 336.776L1577.46 338.584L1564.04 310.664ZM1583.22 310.664L1587.18 308.856L1600.6 336.776L1596.65 338.584L1583.22 310.664ZM1606.36 338.584L1602.41 336.776L1615.87 308.856L1619.79 310.664L1606.36 338.584ZM1625.55 338.584L1621.6 336.776L1635.06 308.856L1638.98 310.664L1625.55 338.584ZM1644.74 338.584L1640.79 336.776L1654.24 308.856L1658.16 310.664L1644.74 338.584ZM1663.93 338.584L1659.97 336.776L1673.43 308.856L1677.35 310.664L1663.93 338.584ZM1679.16 310.664L1683.11 308.856L1696.54 336.776L1692.59 338.584L1679.16 310.664ZM1698.35 310.664L1702.3 308.856L1715.73 336.776L1711.77 338.584L1698.35 310.664ZM1717.54 310.664L1721.49 308.856L1734.91 336.776L1730.96 338.584L1717.54 310.664ZM1737.41 340.952V336.984H1753.41V340.952H1737.41ZM1755.91 310.664L1759.86 308.856L1773.29 336.776L1769.34 338.584L1755.91 310.664ZM1780.64 338.584L1776.69 336.776L1790.14 308.856L1794.06 310.664L1780.64 338.584ZM1796.64 338.584L1792.69 336.776L1806.14 308.856L1810.06 310.664L1796.64 338.584ZM1813.47 310.664L1817.43 308.856L1830.85 336.776L1826.9 338.584L1813.47 310.664ZM1832.66 310.664L1836.61 308.856L1850.04 336.776L1846.09 338.584L1832.66 310.664ZM1851.85 310.664L1855.8 308.856L1869.23 336.776L1865.27 338.584L1851.85 310.664ZM1874.99 338.584L1871.04 336.776L1884.49 308.856L1888.41 310.664L1874.99 338.584ZM1890.22 310.664L1894.18 308.856L1907.6 336.776L1903.65 338.584L1890.22 310.664ZM1909.41 310.664L1913.36 308.856L1926.79 336.776L1922.84 338.584L1909.41 310.664ZM1928.6 310.664L1932.55 308.856L1945.98 336.776L1942.02 338.584L1928.6 310.664ZM1948.48 340.952V336.984H1964.48V340.952H1948.48ZM1966.97 310.664L1970.93 308.856L1984.35 336.776L1980.4 338.584L1966.97 310.664ZM1990.11 338.584L1986.16 336.776L1999.62 308.856L2003.54 310.664L1990.11 338.584ZM2005.35 310.664L2009.3 308.856L2022.73 336.776L2018.77 338.584L2005.35 310.664ZM2024.54 310.664L2028.49 308.856L2041.91 336.776L2037.96 338.584L2024.54 310.664ZM2043.72 310.664L2047.68 308.856L2061.1 336.776L2057.15 338.584L2043.72 310.664ZM2066.86 338.584L2062.91 336.776L2076.37 308.856L2080.29 310.664L2066.86 338.584ZM2086.05 338.584L2082.1 336.776L2095.56 308.856L2099.48 310.664L2086.05 338.584ZM2105.24 338.584L2101.29 336.776L2114.74 308.856L2118.66 310.664L2105.24 338.584ZM2124.43 338.584L2120.47 336.776L2133.93 308.856L2137.85 310.664L2124.43 338.584ZM2143.61 338.584L2139.66 336.776L2153.12 308.856L2157.04 310.664L2143.61 338.584ZM2158.85 310.664L2162.8 308.856L2176.23 336.776L2172.27 338.584L2158.85 310.664ZM2178.04 310.664L2181.99 308.856L2195.41 336.776L2191.46 338.584L2178.04 310.664ZM2197.22 310.664L2201.18 308.856L2214.6 336.776L2210.65 338.584L2197.22 310.664ZM2217.1 340.952V336.984H2233.1V340.952H2217.1ZM2235.6 310.664L2239.55 308.856L2252.98 336.776L2249.02 338.584L2235.6 310.664ZM2258.74 338.584L2254.79 336.776L2268.24 308.856L2272.16 310.664L2258.74 338.584ZM2273.97 310.664L2277.93 308.856L2291.35 336.776L2287.4 338.584L2273.97 310.664ZM2293.16 310.664L2297.11 308.856L2310.54 336.776L2306.59 338.584L2293.16 310.664ZM2312.35 310.664L2316.3 308.856L2329.73 336.776L2325.77 338.584L2312.35 310.664ZM2335.49 338.584L2331.54 336.776L2344.99 308.856L2348.91 310.664L2335.49 338.584ZM2354.68 338.584L2350.72 336.776L2364.18 308.856L2368.1 310.664L2354.68 338.584ZM2373.86 338.584L2369.91 336.776L2383.37 308.856L2387.29 310.664L2373.86 338.584ZM2393.05 338.584L2389.1 336.776L2402.56 308.856L2406.48 310.664L2393.05 338.584ZM2412.24 338.584L2408.29 336.776L2421.74 308.856L2425.66 310.664L2412.24 338.584ZM2427.47 310.664L2431.43 308.856L2444.85 336.776L2440.9 338.584L2427.47 310.664ZM2446.66 310.664L2450.61 308.856L2464.04 336.776L2460.09 338.584L2446.66 310.664ZM2465.85 310.664L2469.8 308.856L2483.23 336.776L2479.27 338.584L2465.85 310.664ZM2485.73 340.952V336.984H2501.73V340.952H2485.73ZM2504.22 310.664L2508.18 308.856L2521.6 336.776L2517.65 338.584L2504.22 310.664ZM2527.36 338.584L2523.41 336.776L2536.87 308.856L2540.79 310.664L2527.36 338.584ZM2542.6 310.664L2546.55 308.856L2559.98 336.776L2556.02 338.584L2542.6 310.664ZM2561.79 310.664L2565.74 308.856L2579.16 336.776L2575.21 338.584L2561.79 310.664ZM2580.97 310.664L2584.93 308.856L2598.35 336.776L2594.4 338.584L2580.97 310.664ZM2604.11 338.584L2600.16 336.776L2613.62 308.856L2617.54 310.664L2604.11 338.584ZM2623.3 338.584L2619.35 336.776L2632.81 308.856L2636.73 310.664L2623.3 338.584ZM2642.49 338.584L2638.54 336.776L2651.99 308.856L2655.91 310.664L2642.49 338.584ZM2661.68 338.584L2657.72 336.776L2671.18 308.856L2675.1 310.664L2661.68 338.584ZM2680.86 338.584L2676.91 336.776L2690.37 308.856L2694.29 310.664L2680.86 338.584ZM2696.1 310.664L2700.05 308.856L2713.48 336.776L2709.52 338.584L2696.1 310.664ZM2715.29 310.664L2719.24 308.856L2732.66 336.776L2728.71 338.584L2715.29 310.664ZM2734.47 310.664L2738.43 308.856L2751.85 336.776L2747.9 338.584L2734.47 310.664ZM2754.35 340.952V336.984H2772.27V340.952H2754.35ZM2771.62 340.952V336.984H2791.46V340.952H2771.62ZM2790.8 340.952V336.984H2810.65V340.952H2790.8ZM2809.99 340.952V336.984H2829.83V340.952H2809.99ZM2829.18 340.952V336.984H2849.02V340.952H2829.18ZM2848.37 340.952V336.984H2866.29V340.952H2848.37ZM2868.79 310.664L2872.74 308.856L2886.16 336.776L2882.21 338.584L2868.79 310.664ZM623.85 352.664L627.802 350.856L641.226 378.776L637.274 380.584L623.85 352.664ZM643.725 382.952V378.984H661.645V382.952H643.725ZM660.992 382.952V378.984H680.833V382.952H660.992ZM680.18 382.952V378.984H700.02V382.952H680.18ZM699.367 382.952V378.984H719.208V382.952H699.367ZM718.555 382.952V378.984H736.475V382.952H718.555ZM742.927 380.584L738.975 378.776L752.431 350.856L756.351 352.664L742.927 380.584ZM758.162 352.664L762.114 350.856L775.538 378.776L771.586 380.584L758.162 352.664ZM777.35 352.664L781.302 350.856L794.726 378.776L790.774 380.584L777.35 352.664ZM796.537 352.664L800.489 350.856L813.913 378.776L809.961 380.584L796.537 352.664ZM816.413 382.952V378.984H834.333V382.952H816.413ZM833.68 382.952V378.984H851.6V382.952H833.68ZM858.052 380.584L854.1 378.776L867.556 350.856L871.476 352.664L858.052 380.584ZM873.287 352.664L877.239 350.856L890.663 378.776L886.711 380.584L873.287 352.664ZM892.475 352.664L896.427 350.856L909.851 378.776L905.899 380.584L892.475 352.664ZM911.662 352.664L915.614 350.856L929.038 378.776L925.086 380.584L911.662 352.664ZM930.85 352.664L934.802 350.856L948.226 378.776L944.274 380.584L930.85 352.664ZM950.037 352.664L953.989 350.856L967.413 378.776L963.461 380.584L950.037 352.664ZM969.225 352.664L973.177 350.856L986.601 378.776L982.649 380.584L969.225 352.664ZM988.412 352.664L992.364 350.856L1005.79 378.776L1001.84 380.584L988.412 352.664ZM1008.29 382.952V378.984H1026.21V382.952H1008.29ZM1025.55 382.952V378.984H1045.4V382.952H1025.55ZM1044.74 382.952V378.984H1064.58V382.952H1044.74ZM1063.93 382.952V378.984H1083.77V382.952H1063.93ZM1083.12 382.952V378.984H1102.96V382.952H1083.12ZM1102.3 382.952V378.984H1122.15V382.952H1102.3ZM1121.49 382.952V378.984H1141.33V382.952H1121.49ZM1140.68 382.952V378.984H1160.52V382.952H1140.68ZM1159.87 382.952V378.984H1179.71V382.952H1159.87ZM1179.05 382.952V378.984H1198.9V382.952H1179.05ZM1198.24 382.952V378.984H1218.08V382.952H1198.24ZM1217.43 382.952V378.984H1237.27V382.952H1217.43ZM1236.62 382.952V378.984H1254.54V382.952H1236.62ZM1257.04 352.664L1260.99 350.856L1274.41 378.776L1270.46 380.584L1257.04 352.664ZM1315.35 380.584L1311.4 378.776L1324.86 350.856L1328.78 352.664L1315.35 380.584ZM1283.35 380.584L1279.4 378.776L1292.86 350.856L1296.78 352.664L1283.35 380.584ZM1299.35 380.584L1295.4 378.776L1308.86 350.856L1312.78 352.664L1299.35 380.584ZM1333.79 352.664L1337.74 350.856L1351.16 378.776L1347.21 380.584L1333.79 352.664ZM1352.97 352.664L1356.93 350.856L1370.35 378.776L1366.4 380.584L1352.97 352.664ZM1372.16 352.664L1376.11 350.856L1389.54 378.776L1385.59 380.584L1372.16 352.664ZM1391.35 352.664L1395.3 350.856L1408.73 378.776L1404.77 380.584L1391.35 352.664ZM1410.54 352.664L1414.49 350.856L1427.91 378.776L1423.96 380.584L1410.54 352.664ZM1429.72 352.664L1433.68 350.856L1447.1 378.776L1443.15 380.584L1429.72 352.664ZM1449.6 382.952V378.984H1467.52V382.952H1449.6ZM1466.87 382.952V378.984H1486.71V382.952H1466.87ZM1486.05 382.952V378.984H1505.9V382.952H1486.05ZM1505.24 382.952V378.984H1523.16V382.952H1505.24ZM1525.66 352.664L1529.61 350.856L1543.04 378.776L1539.09 380.584L1525.66 352.664ZM1548.8 380.584L1544.85 378.776L1558.31 350.856L1562.23 352.664L1548.8 380.584ZM1564.04 352.664L1567.99 350.856L1581.41 378.776L1577.46 380.584L1564.04 352.664ZM1583.22 352.664L1587.18 350.856L1600.6 378.776L1596.65 380.584L1583.22 352.664ZM1602.41 352.664L1606.36 350.856L1619.79 378.776L1615.84 380.584L1602.41 352.664ZM1622.29 382.952V378.984H1640.21V382.952H1622.29ZM1639.55 382.952V378.984H1657.48V382.952H1639.55ZM1659.97 352.664L1663.93 350.856L1677.35 378.776L1673.4 380.584L1659.97 352.664ZM1683.11 380.584L1679.16 378.776L1692.62 350.856L1696.54 352.664L1683.11 380.584ZM1698.35 352.664L1702.3 350.856L1715.73 378.776L1711.77 380.584L1698.35 352.664ZM1717.54 352.664L1721.49 350.856L1734.91 378.776L1730.96 380.584L1717.54 352.664ZM1736.72 352.664L1740.68 350.856L1754.1 378.776L1750.15 380.584L1736.72 352.664ZM1756.6 382.952V378.984H1774.52V382.952H1756.6ZM1773.87 382.952V378.984H1791.79V382.952H1773.87ZM1794.29 352.664L1798.24 350.856L1811.66 378.776L1807.71 380.584L1794.29 352.664ZM1819.01 380.584L1815.06 378.776L1828.52 350.856L1832.44 352.664L1819.01 380.584ZM1835.01 380.584L1831.06 378.776L1844.52 350.856L1848.44 352.664L1835.01 380.584ZM1851.85 352.664L1855.8 350.856L1869.23 378.776L1865.27 380.584L1851.85 352.664ZM1871.04 352.664L1874.99 350.856L1888.41 378.776L1884.46 380.584L1871.04 352.664ZM1890.22 352.664L1894.18 350.856L1907.6 378.776L1903.65 380.584L1890.22 352.664ZM1909.41 352.664L1913.36 350.856L1926.79 378.776L1922.84 380.584L1909.41 352.664ZM1928.6 352.664L1932.55 350.856L1945.98 378.776L1942.02 380.584L1928.6 352.664ZM1948.48 382.952V378.984H1966.4V382.952H1948.48ZM1965.74 382.952V378.984H1983.66V382.952H1965.74ZM1986.16 352.664L1990.11 350.856L2003.54 378.776L1999.59 380.584L1986.16 352.664ZM2009.3 380.584L2005.35 378.776L2018.81 350.856L2022.73 352.664L2009.3 380.584ZM2024.54 352.664L2028.49 350.856L2041.91 378.776L2037.96 380.584L2024.54 352.664ZM2043.72 352.664L2047.68 350.856L2061.1 378.776L2057.15 380.584L2043.72 352.664ZM2062.91 352.664L2066.86 350.856L2080.29 378.776L2076.34 380.584L2062.91 352.664ZM2082.79 382.952V378.984H2100.71V382.952H2082.79ZM2100.05 382.952V378.984H2119.9V382.952H2100.05ZM2119.24 382.952V378.984H2137.16V382.952H2119.24ZM2139.66 352.664L2143.61 350.856L2157.04 378.776L2153.09 380.584L2139.66 352.664ZM2162.8 380.584L2158.85 378.776L2172.31 350.856L2176.23 352.664L2162.8 380.584ZM2178.04 352.664L2181.99 350.856L2195.41 378.776L2191.46 380.584L2178.04 352.664ZM2197.22 352.664L2201.18 350.856L2214.6 378.776L2210.65 380.584L2197.22 352.664ZM2216.41 352.664L2220.36 350.856L2233.79 378.776L2229.84 380.584L2216.41 352.664ZM2236.29 382.952V378.984H2252.29V382.952H2236.29ZM2254.79 352.664L2258.74 350.856L2272.16 378.776L2268.21 380.584L2254.79 352.664ZM2277.93 380.584L2273.97 378.776L2287.43 350.856L2291.35 352.664L2277.93 380.584ZM2293.16 352.664L2297.11 350.856L2310.54 378.776L2306.59 380.584L2293.16 352.664ZM2312.35 352.664L2316.3 350.856L2329.73 378.776L2325.77 380.584L2312.35 352.664ZM2331.54 352.664L2335.49 350.856L2348.91 378.776L2344.96 380.584L2331.54 352.664ZM2351.41 382.952V378.984H2369.33V382.952H2351.41ZM2368.68 382.952V378.984H2388.52V382.952H2368.68ZM2387.87 382.952V378.984H2405.79V382.952H2387.87ZM2408.29 352.664L2412.24 350.856L2425.66 378.776L2421.71 380.584L2408.29 352.664ZM2431.43 380.584L2427.47 378.776L2440.93 350.856L2444.85 352.664L2431.43 380.584ZM2446.66 352.664L2450.61 350.856L2464.04 378.776L2460.09 380.584L2446.66 352.664ZM2465.85 352.664L2469.8 350.856L2483.23 378.776L2479.27 380.584L2465.85 352.664ZM2485.04 352.664L2488.99 350.856L2502.41 378.776L2498.46 380.584L2485.04 352.664ZM2504.91 382.952V378.984H2520.91V382.952H2504.91ZM2523.41 352.664L2527.36 350.856L2540.79 378.776L2536.84 380.584L2523.41 352.664ZM2546.55 380.584L2542.6 378.776L2556.06 350.856L2559.98 352.664L2546.55 380.584ZM2561.79 352.664L2565.74 350.856L2579.16 378.776L2575.21 380.584L2561.79 352.664ZM2580.97 352.664L2584.93 350.856L2598.35 378.776L2594.4 380.584L2580.97 352.664ZM2600.16 352.664L2604.11 350.856L2617.54 378.776L2613.59 380.584L2600.16 352.664ZM2620.04 382.952V378.984H2637.96V382.952H2620.04ZM2637.3 382.952V378.984H2657.15V382.952H2637.3ZM2656.49 382.952V378.984H2674.41V382.952H2656.49ZM2676.91 352.664L2680.86 350.856L2694.29 378.776L2690.34 380.584L2676.91 352.664ZM2700.05 380.584L2696.1 378.776L2709.56 350.856L2713.48 352.664L2700.05 380.584ZM2715.29 352.664L2719.24 350.856L2732.66 378.776L2728.71 380.584L2715.29 352.664ZM2734.47 352.664L2738.43 350.856L2751.85 378.776L2747.9 380.584L2734.47 352.664ZM2753.66 352.664L2757.61 350.856L2771.04 378.776L2767.09 380.584L2753.66 352.664ZM2773.54 382.952V378.984H2791.46V382.952H2773.54ZM2790.8 382.952V378.984H2810.65V382.952H2790.8ZM2809.99 382.952V378.984H2829.83V382.952H2809.99ZM2829.18 382.952V378.984H2849.02V382.952H2829.18ZM2848.37 382.952V378.984H2868.21V382.952H2848.37ZM2867.55 382.952V378.984H2885.48V382.952H2867.55ZM2887.97 352.664L2891.93 350.856L2905.35 378.776L2901.4 380.584L2887.97 352.664ZM643.037 394.664L646.989 392.856L660.413 420.776L656.461 422.584L643.037 394.664ZM662.913 424.952V420.984H680.833V424.952H662.913ZM680.18 424.952V420.984H700.02V424.952H680.18ZM699.367 424.952V420.984H719.208V424.952H699.367ZM718.555 424.952V420.984H736.475V424.952H718.555ZM742.927 422.584L738.975 420.776L752.431 392.856L756.351 394.664L742.927 422.584ZM758.162 394.664L762.114 392.856L775.538 420.776L771.586 422.584L758.162 394.664ZM777.35 394.664L781.302 392.856L794.726 420.776L790.774 422.584L777.35 394.664ZM797.225 424.952V420.984H815.145V424.952H797.225ZM814.492 424.952V420.984H832.413V424.952H814.492ZM838.864 422.584L834.912 420.776L848.368 392.856L852.288 394.664L838.864 422.584ZM854.1 394.664L858.052 392.856L871.476 420.776L867.524 422.584L854.1 394.664ZM873.287 394.664L877.239 392.856L890.663 420.776L886.711 422.584L873.287 394.664ZM892.475 394.664L896.427 392.856L909.851 420.776L905.899 422.584L892.475 394.664ZM911.662 394.664L915.614 392.856L929.038 420.776L925.086 422.584L911.662 394.664ZM930.85 394.664L934.802 392.856L948.226 420.776L944.274 422.584L930.85 394.664ZM950.037 394.664L953.989 392.856L967.413 420.776L963.461 422.584L950.037 394.664ZM973.177 422.584L969.225 420.776L982.681 392.856L986.601 394.664L973.177 422.584ZM988.412 394.664L992.364 392.856L1005.79 420.776L1001.84 422.584L988.412 394.664ZM1007.6 394.664L1011.55 392.856L1024.98 420.776L1021.02 422.584L1007.6 394.664ZM1026.79 394.664L1030.74 392.856L1044.16 420.776L1040.21 422.584L1026.79 394.664ZM1046.66 424.952V420.984H1064.58V424.952H1046.66ZM1063.93 424.952V420.984H1083.77V424.952H1063.93ZM1083.12 424.952V420.984H1102.96V424.952H1083.12ZM1102.3 424.952V420.984H1122.15V424.952H1102.3ZM1121.49 424.952V420.984H1141.33V424.952H1121.49ZM1140.68 424.952V420.984H1160.52V424.952H1140.68ZM1159.87 424.952V420.984H1179.71V424.952H1159.87ZM1179.05 424.952V420.984H1198.9V424.952H1179.05ZM1198.24 424.952V420.984H1218.08V424.952H1198.24ZM1217.43 424.952V420.984H1237.27V424.952H1217.43ZM1236.62 424.952V420.984H1256.46V424.952H1236.62ZM1255.8 424.952V420.984H1275.65V424.952H1255.8ZM1274.99 424.952V420.984H1294.83V424.952H1274.99ZM1294.18 424.952V420.984H1312.1V424.952H1294.18ZM1314.6 394.664L1318.55 392.856L1331.98 420.776L1328.02 422.584L1314.6 394.664ZM1337.74 422.584L1333.79 420.776L1347.24 392.856L1351.16 394.664L1337.74 422.584ZM1356.93 422.584L1352.97 420.776L1366.43 392.856L1370.35 394.664L1356.93 422.584ZM1376.11 422.584L1372.16 420.776L1385.62 392.856L1389.54 394.664L1376.11 422.584ZM1395.3 422.584L1391.35 420.776L1404.81 392.856L1408.73 394.664L1395.3 422.584ZM1414.49 422.584L1410.54 420.776L1423.99 392.856L1427.91 394.664L1414.49 422.584ZM1429.72 394.664L1433.68 392.856L1447.1 420.776L1443.15 422.584L1429.72 394.664ZM1448.91 394.664L1452.86 392.856L1466.29 420.776L1462.34 422.584L1448.91 394.664ZM1468.1 394.664L1472.05 392.856L1485.48 420.776L1481.52 422.584L1468.1 394.664ZM1487.29 394.664L1491.24 392.856L1504.66 420.776L1500.71 422.584L1487.29 394.664ZM1507.16 424.952V420.984H1525.08V424.952H1507.16ZM1524.43 424.952V420.984H1542.35V424.952H1524.43ZM1544.85 394.664L1548.8 392.856L1562.23 420.776L1558.27 422.584L1544.85 394.664ZM1567.99 422.584L1564.04 420.776L1577.49 392.856L1581.41 394.664L1567.99 422.584ZM1583.22 394.664L1587.18 392.856L1600.6 420.776L1596.65 422.584L1583.22 394.664ZM1602.41 394.664L1606.36 392.856L1619.79 420.776L1615.84 422.584L1602.41 394.664ZM1621.6 394.664L1625.55 392.856L1638.98 420.776L1635.02 422.584L1621.6 394.664ZM1640.79 394.664L1644.74 392.856L1658.16 420.776L1654.21 422.584L1640.79 394.664ZM1659.97 394.664L1663.93 392.856L1677.35 420.776L1673.4 422.584L1659.97 394.664ZM1679.16 394.664L1683.11 392.856L1696.54 420.776L1692.59 422.584L1679.16 394.664ZM1698.35 394.664L1702.3 392.856L1715.73 420.776L1711.77 422.584L1698.35 394.664ZM1717.54 394.664L1721.49 392.856L1734.91 420.776L1730.96 422.584L1717.54 394.664ZM1736.72 394.664L1740.68 392.856L1754.1 420.776L1750.15 422.584L1736.72 394.664ZM1756.6 424.952V420.984H1774.52V424.952H1756.6ZM1773.87 424.952V420.984H1793.71V424.952H1773.87ZM1793.05 424.952V420.984H1812.9V424.952H1793.05ZM1812.24 424.952V420.984H1830.16V424.952H1812.24ZM1832.66 394.664L1836.61 392.856L1850.04 420.776L1846.09 422.584L1832.66 394.664ZM1855.8 422.584L1851.85 420.776L1865.31 392.856L1869.23 394.664L1855.8 422.584ZM1871.04 394.664L1874.99 392.856L1888.41 420.776L1884.46 422.584L1871.04 394.664ZM1890.22 394.664L1894.18 392.856L1907.6 420.776L1903.65 422.584L1890.22 394.664ZM1909.41 394.664L1913.36 392.856L1926.79 420.776L1922.84 422.584L1909.41 394.664ZM1928.6 394.664L1932.55 392.856L1945.98 420.776L1942.02 422.584L1928.6 394.664ZM1948.48 424.952V420.984H1966.4V424.952H1948.48ZM1965.74 424.952V420.984H1985.58V424.952H1965.74ZM1984.93 424.952V420.984H2002.85V424.952H1984.93ZM2005.35 394.664L2009.3 392.856L2022.73 420.776L2018.77 422.584L2005.35 394.664ZM2028.49 422.584L2024.54 420.776L2037.99 392.856L2041.91 394.664L2028.49 422.584ZM2043.72 394.664L2047.68 392.856L2061.1 420.776L2057.15 422.584L2043.72 394.664ZM2062.91 394.664L2066.86 392.856L2080.29 420.776L2076.34 422.584L2062.91 394.664ZM2082.1 394.664L2086.05 392.856L2099.48 420.776L2095.52 422.584L2082.1 394.664ZM2101.98 424.952V420.984H2119.9V424.952H2101.98ZM2119.24 424.952V420.984H2139.08V424.952H2119.24ZM2138.43 424.952V420.984H2156.35V424.952H2138.43ZM2158.85 394.664L2162.8 392.856L2176.23 420.776L2172.27 422.584L2158.85 394.664ZM2181.99 422.584L2178.04 420.776L2191.49 392.856L2195.41 394.664L2181.99 422.584ZM2197.22 394.664L2201.18 392.856L2214.6 420.776L2210.65 422.584L2197.22 394.664ZM2216.41 394.664L2220.36 392.856L2233.79 420.776L2229.84 422.584L2216.41 394.664ZM2235.6 394.664L2239.55 392.856L2252.98 420.776L2249.02 422.584L2235.6 394.664ZM2255.48 424.952V420.984H2271.48V424.952H2255.48ZM2273.97 394.664L2277.93 392.856L2291.35 420.776L2287.4 422.584L2273.97 394.664ZM2297.11 422.584L2293.16 420.776L2306.62 392.856L2310.54 394.664L2297.11 422.584ZM2312.35 394.664L2316.3 392.856L2329.73 420.776L2325.77 422.584L2312.35 394.664ZM2331.54 394.664L2335.49 392.856L2348.91 420.776L2344.96 422.584L2331.54 394.664ZM2350.72 394.664L2354.68 392.856L2368.1 420.776L2364.15 422.584L2350.72 394.664ZM2370.6 424.952V420.984H2388.52V424.952H2370.6ZM2387.87 424.952V420.984H2407.71V424.952H2387.87ZM2407.05 424.952V420.984H2424.98V424.952H2407.05ZM2427.47 394.664L2431.43 392.856L2444.85 420.776L2440.9 422.584L2427.47 394.664ZM2450.61 422.584L2446.66 420.776L2460.12 392.856L2464.04 394.664L2450.61 422.584ZM2465.85 394.664L2469.8 392.856L2483.23 420.776L2479.27 422.584L2465.85 394.664ZM2485.04 394.664L2488.99 392.856L2502.41 420.776L2498.46 422.584L2485.04 394.664ZM2504.22 394.664L2508.18 392.856L2521.6 420.776L2517.65 422.584L2504.22 394.664ZM2524.1 424.952V420.984H2540.1V424.952H2524.1ZM2542.6 394.664L2546.55 392.856L2559.98 420.776L2556.02 422.584L2542.6 394.664ZM2565.74 422.584L2561.79 420.776L2575.24 392.856L2579.16 394.664L2565.74 422.584ZM2580.97 394.664L2584.93 392.856L2598.35 420.776L2594.4 422.584L2580.97 394.664ZM2600.16 394.664L2604.11 392.856L2617.54 420.776L2613.59 422.584L2600.16 394.664ZM2619.35 394.664L2623.3 392.856L2636.73 420.776L2632.77 422.584L2619.35 394.664ZM2639.23 424.952V420.984H2657.15V424.952H2639.23ZM2656.49 424.952V420.984H2676.33V424.952H2656.49ZM2675.68 424.952V420.984H2693.6V424.952H2675.68ZM2696.1 394.664L2700.05 392.856L2713.48 420.776L2709.52 422.584L2696.1 394.664ZM2719.24 422.584L2715.29 420.776L2728.74 392.856L2732.66 394.664L2719.24 422.584ZM2734.47 394.664L2738.43 392.856L2751.85 420.776L2747.9 422.584L2734.47 394.664ZM2753.66 394.664L2757.61 392.856L2771.04 420.776L2767.09 422.584L2753.66 394.664ZM2772.85 394.664L2776.8 392.856L2790.23 420.776L2786.27 422.584L2772.85 394.664ZM2792.73 424.952V420.984H2810.65V424.952H2792.73ZM2809.99 424.952V420.984H2829.83V424.952H2809.99ZM2829.18 424.952V420.984H2849.02V424.952H2829.18ZM2848.37 424.952V420.984H2868.21V424.952H2848.37ZM2867.55 424.952V420.984H2887.4V424.952H2867.55ZM2886.74 424.952V420.984H2904.66V424.952H2886.74ZM2907.16 394.664L2911.11 392.856L2924.54 420.776L2920.59 422.584L2907.16 394.664ZM662.225 436.664L666.177 434.856L679.601 462.776L675.649 464.584L662.225 436.664ZM682.1 466.952V462.984H700.02V466.952H682.1ZM699.367 466.952V462.984H719.208V466.952H699.367ZM718.555 466.952V462.984H736.475V466.952H718.555ZM738.975 436.664L742.927 434.856L756.351 462.776L752.399 464.584L738.975 436.664ZM762.114 464.584L758.162 462.776L771.618 434.856L775.538 436.664L762.114 464.584ZM777.35 436.664L781.302 434.856L794.726 462.776L790.774 464.584L777.35 436.664ZM796.537 436.664L800.489 434.856L813.913 462.776L809.961 464.584L796.537 436.664ZM815.725 436.664L819.677 434.856L833.101 462.776L829.149 464.584L815.725 436.664ZM834.912 436.664L838.864 434.856L852.288 462.776L848.336 464.584L834.912 436.664ZM858.052 464.584L854.1 462.776L867.556 434.856L871.476 436.664L858.052 464.584ZM877.239 464.584L873.287 462.776L886.743 434.856L890.663 436.664L877.239 464.584ZM896.427 464.584L892.475 462.776L905.931 434.856L909.851 436.664L896.427 464.584ZM915.614 464.584L911.662 462.776L925.118 434.856L929.038 436.664L915.614 464.584ZM930.85 436.664L934.802 434.856L948.226 462.776L944.274 464.584L930.85 436.664ZM950.037 436.664L953.989 434.856L967.413 462.776L963.461 464.584L950.037 436.664ZM969.225 436.664L973.177 434.856L986.601 462.776L982.649 464.584L969.225 436.664ZM992.364 464.584L988.412 462.776L1001.87 434.856L1005.79 436.664L992.364 464.584ZM1007.6 436.664L1011.55 434.856L1024.98 462.776L1021.02 464.584L1007.6 436.664ZM1026.79 436.664L1030.74 434.856L1044.16 462.776L1040.21 464.584L1026.79 436.664ZM1046.66 466.952V462.984H1064.58V466.952H1046.66ZM1063.93 466.952V462.984H1083.77V466.952H1063.93ZM1083.12 466.952V462.984H1102.96V466.952H1083.12ZM1102.3 466.952V462.984H1122.15V466.952H1102.3ZM1121.49 466.952V462.984H1141.33V466.952H1121.49ZM1140.68 466.952V462.984H1160.52V466.952H1140.68ZM1159.87 466.952V462.984H1179.71V466.952H1159.87ZM1179.05 466.952V462.984H1198.9V466.952H1179.05ZM1198.24 466.952V462.984H1218.08V466.952H1198.24ZM1217.43 466.952V462.984H1235.35V466.952H1217.43ZM1241.8 464.584L1237.85 462.776L1251.31 434.856L1255.23 436.664L1241.8 464.584ZM1257.04 436.664L1260.99 434.856L1274.41 462.776L1270.46 464.584L1257.04 436.664ZM1276.22 436.664L1280.18 434.856L1293.6 462.776L1289.65 464.584L1276.22 436.664ZM1295.41 436.664L1299.36 434.856L1312.79 462.776L1308.84 464.584L1295.41 436.664ZM1315.29 466.952V462.984H1333.21V466.952H1315.29ZM1332.55 466.952V462.984H1352.4V466.952H1332.55ZM1351.74 466.952V462.984H1371.58V466.952H1351.74ZM1370.93 466.952V462.984H1390.77V466.952H1370.93ZM1390.12 466.952V462.984H1408.04V466.952H1390.12ZM1416.08 464.584L1412.12 462.776L1425.58 434.856L1429.5 436.664L1416.08 464.584ZM1432.08 464.584L1428.12 462.776L1441.58 434.856L1445.5 436.664L1432.08 464.584ZM1448.91 436.664L1452.86 434.856L1466.29 462.776L1462.34 464.584L1448.91 436.664ZM1468.1 436.664L1472.05 434.856L1485.48 462.776L1481.52 464.584L1468.1 436.664ZM1487.29 436.664L1491.24 434.856L1504.66 462.776L1500.71 464.584L1487.29 436.664ZM1506.47 436.664L1510.43 434.856L1523.85 462.776L1519.9 464.584L1506.47 436.664ZM1525.66 436.664L1529.61 434.856L1543.04 462.776L1539.09 464.584L1525.66 436.664ZM1545.54 466.952V462.984H1561.54V466.952H1545.54ZM1564.04 436.664L1567.99 434.856L1581.41 462.776L1577.46 464.584L1564.04 436.664ZM1587.18 464.584L1583.22 462.776L1596.68 434.856L1600.6 436.664L1587.18 464.584ZM1602.41 436.664L1606.36 434.856L1619.79 462.776L1615.84 464.584L1602.41 436.664ZM1621.6 436.664L1625.55 434.856L1638.98 462.776L1635.02 464.584L1621.6 436.664ZM1640.79 436.664L1644.74 434.856L1658.16 462.776L1654.21 464.584L1640.79 436.664ZM1663.93 464.584L1659.97 462.776L1673.43 434.856L1677.35 436.664L1663.93 464.584ZM1683.11 464.584L1679.16 462.776L1692.62 434.856L1696.54 436.664L1683.11 464.584ZM1702.3 464.584L1698.35 462.776L1711.81 434.856L1715.73 436.664L1702.3 464.584ZM1721.49 464.584L1717.54 462.776L1730.99 434.856L1734.91 436.664L1721.49 464.584ZM1740.68 464.584L1736.72 462.776L1750.18 434.856L1754.1 436.664L1740.68 464.584ZM1756.6 466.952V462.984H1774.52V466.952H1756.6ZM1773.87 466.952V462.984H1793.71V466.952H1773.87ZM1793.05 466.952V462.984H1812.9V466.952H1793.05ZM1812.24 466.952V462.984H1832.08V466.952H1812.24ZM1831.43 466.952V462.984H1849.35V466.952H1831.43ZM1855.8 464.584L1851.85 462.776L1865.31 434.856L1869.23 436.664L1855.8 464.584ZM1871.04 436.664L1874.99 434.856L1888.41 462.776L1884.46 464.584L1871.04 436.664ZM1890.22 436.664L1894.18 434.856L1907.6 462.776L1903.65 464.584L1890.22 436.664ZM1909.41 436.664L1913.36 434.856L1926.79 462.776L1922.84 464.584L1909.41 436.664ZM1928.6 436.664L1932.55 434.856L1945.98 462.776L1942.02 464.584L1928.6 436.664ZM1948.48 466.952V462.984H1966.4V466.952H1948.48ZM1965.74 466.952V462.984H1985.58V466.952H1965.74ZM1984.93 466.952V462.984H2004.77V466.952H1984.93ZM2004.12 466.952V462.984H2022.04V466.952H2004.12ZM2024.54 436.664L2028.49 434.856L2041.91 462.776L2037.96 464.584L2024.54 436.664ZM2047.68 464.584L2043.72 462.776L2057.18 434.856L2061.1 436.664L2047.68 464.584ZM2062.91 436.664L2066.86 434.856L2080.29 462.776L2076.34 464.584L2062.91 436.664ZM2082.1 436.664L2086.05 434.856L2099.48 462.776L2095.52 464.584L2082.1 436.664ZM2101.29 436.664L2105.24 434.856L2118.66 462.776L2114.71 464.584L2101.29 436.664ZM2121.16 466.952V462.984H2139.08V466.952H2121.16ZM2138.43 466.952V462.984H2158.27V466.952H2138.43ZM2157.62 466.952V462.984H2175.54V466.952H2157.62ZM2178.04 436.664L2181.99 434.856L2195.41 462.776L2191.46 464.584L2178.04 436.664ZM2201.18 464.584L2197.22 462.776L2210.68 434.856L2214.6 436.664L2201.18 464.584ZM2216.41 436.664L2220.36 434.856L2233.79 462.776L2229.84 464.584L2216.41 436.664ZM2235.6 436.664L2239.55 434.856L2252.98 462.776L2249.02 464.584L2235.6 436.664ZM2254.79 436.664L2258.74 434.856L2272.16 462.776L2268.21 464.584L2254.79 436.664ZM2274.66 466.952V462.984H2290.66V466.952H2274.66ZM2293.16 436.664L2297.11 434.856L2310.54 462.776L2306.59 464.584L2293.16 436.664ZM2316.3 464.584L2312.35 462.776L2325.81 434.856L2329.73 436.664L2316.3 464.584ZM2331.54 436.664L2335.49 434.856L2348.91 462.776L2344.96 464.584L2331.54 436.664ZM2350.72 436.664L2354.68 434.856L2368.1 462.776L2364.15 464.584L2350.72 436.664ZM2369.91 436.664L2373.86 434.856L2387.29 462.776L2383.34 464.584L2369.91 436.664ZM2389.79 466.952V462.984H2407.71V466.952H2389.79ZM2407.05 466.952V462.984H2426.9V466.952H2407.05ZM2426.24 466.952V462.984H2444.16V466.952H2426.24ZM2446.66 436.664L2450.61 434.856L2464.04 462.776L2460.09 464.584L2446.66 436.664ZM2469.8 464.584L2465.85 462.776L2479.31 434.856L2483.23 436.664L2469.8 464.584ZM2485.04 436.664L2488.99 434.856L2502.41 462.776L2498.46 464.584L2485.04 436.664ZM2504.22 436.664L2508.18 434.856L2521.6 462.776L2517.65 464.584L2504.22 436.664ZM2523.41 436.664L2527.36 434.856L2540.79 462.776L2536.84 464.584L2523.41 436.664ZM2543.29 466.952V462.984H2559.29V466.952H2543.29ZM2561.79 436.664L2565.74 434.856L2579.16 462.776L2575.21 464.584L2561.79 436.664ZM2584.93 464.584L2580.97 462.776L2594.43 434.856L2598.35 436.664L2584.93 464.584ZM2600.16 436.664L2604.11 434.856L2617.54 462.776L2613.59 464.584L2600.16 436.664ZM2619.35 436.664L2623.3 434.856L2636.73 462.776L2632.77 464.584L2619.35 436.664ZM2638.54 436.664L2642.49 434.856L2655.91 462.776L2651.96 464.584L2638.54 436.664ZM2658.41 466.952V462.984H2676.33V466.952H2658.41ZM2675.68 466.952V462.984H2695.52V466.952H2675.68ZM2694.87 466.952V462.984H2712.79V466.952H2694.87ZM2715.29 436.664L2719.24 434.856L2732.66 462.776L2728.71 464.584L2715.29 436.664ZM2738.43 464.584L2734.47 462.776L2747.93 434.856L2751.85 436.664L2738.43 464.584ZM2753.66 436.664L2757.61 434.856L2771.04 462.776L2767.09 464.584L2753.66 436.664ZM2772.85 436.664L2776.8 434.856L2790.23 462.776L2786.27 464.584L2772.85 436.664ZM2792.04 436.664L2795.99 434.856L2809.41 462.776L2805.46 464.584L2792.04 436.664ZM2811.91 466.952V462.984H2829.83V466.952H2811.91ZM2829.18 466.952V462.984H2849.02V466.952H2829.18ZM2848.37 466.952V462.984H2868.21V466.952H2848.37ZM2867.55 466.952V462.984H2887.4V466.952H2867.55ZM2886.74 466.952V462.984H2906.58V466.952H2886.74ZM2905.93 466.952V462.984H2923.85V466.952H2905.93ZM2926.35 436.664L2930.3 434.856L2943.73 462.776L2939.77 464.584L2926.35 436.664ZM681.412 478.664L685.364 476.856L698.788 504.776L694.836 506.584L681.412 478.664ZM701.288 508.952V504.984H719.208V508.952H701.288ZM718.555 508.952V504.984H738.395V508.952H718.555ZM737.742 508.952V504.984H755.663V508.952H737.742ZM758.162 478.664L762.114 476.856L775.538 504.776L771.586 506.584L758.162 478.664ZM782.889 506.584L778.937 504.776L792.393 476.856L796.313 478.664L782.889 506.584ZM798.889 506.584L794.937 504.776L808.393 476.856L812.313 478.664L798.889 506.584ZM815.725 478.664L819.677 476.856L833.101 504.776L829.149 506.584L815.725 478.664ZM834.912 478.664L838.864 476.856L852.288 504.776L848.336 506.584L834.912 478.664ZM854.1 478.664L858.052 476.856L871.476 504.776L867.524 506.584L854.1 478.664ZM873.287 478.664L877.239 476.856L890.663 504.776L886.711 506.584L873.287 478.664ZM892.475 478.664L896.427 476.856L909.851 504.776L905.899 506.584L892.475 478.664ZM911.662 478.664L915.614 476.856L929.038 504.776L925.086 506.584L911.662 478.664ZM930.85 478.664L934.802 476.856L948.226 504.776L944.274 506.584L930.85 478.664ZM950.037 478.664L953.989 476.856L967.413 504.776L963.461 506.584L950.037 478.664ZM969.225 478.664L973.177 476.856L986.601 504.776L982.649 506.584L969.225 478.664ZM988.412 478.664L992.364 476.856L1005.79 504.776L1001.84 506.584L988.412 478.664ZM1007.6 478.664L1011.55 476.856L1024.98 504.776L1021.02 506.584L1007.6 478.664ZM1030.74 506.584L1026.79 504.776L1040.24 476.856L1044.16 478.664L1030.74 506.584ZM1046.66 508.952V504.984H1064.58V508.952H1046.66ZM1063.93 508.952V504.984H1083.77V508.952H1063.93ZM1083.12 508.952V504.984H1102.96V508.952H1083.12ZM1102.3 508.952V504.984H1122.15V508.952H1102.3ZM1121.49 508.952V504.984H1141.33V508.952H1121.49ZM1140.68 508.952V504.984H1160.52V508.952H1140.68ZM1159.87 508.952V504.984H1179.71V508.952H1159.87ZM1179.05 508.952V504.984H1198.9V508.952H1179.05ZM1198.24 508.952V504.984H1218.08V508.952H1198.24ZM1217.43 508.952V504.984H1235.35V508.952H1217.43ZM1237.85 478.664L1241.8 476.856L1255.23 504.776L1251.27 506.584L1237.85 478.664ZM1262.58 506.584L1258.62 504.776L1272.08 476.856L1276 478.664L1262.58 506.584ZM1278.58 506.584L1274.62 504.776L1288.08 476.856L1292 478.664L1278.58 506.584ZM1295.41 478.664L1299.36 476.856L1312.79 504.776L1308.84 506.584L1295.41 478.664ZM1314.6 478.664L1318.55 476.856L1331.98 504.776L1328.02 506.584L1314.6 478.664ZM1333.79 478.664L1337.74 476.856L1351.16 504.776L1347.21 506.584L1333.79 478.664ZM1352.97 478.664L1356.93 476.856L1370.35 504.776L1366.4 506.584L1352.97 478.664ZM1372.16 478.664L1376.11 476.856L1389.54 504.776L1385.59 506.584L1372.16 478.664ZM1391.35 478.664L1395.3 476.856L1408.73 504.776L1404.77 506.584L1391.35 478.664ZM1410.54 478.664L1414.49 476.856L1427.91 504.776L1423.96 506.584L1410.54 478.664ZM1429.72 478.664L1433.68 476.856L1447.1 504.776L1443.15 506.584L1429.72 478.664ZM1448.91 478.664L1452.86 476.856L1466.29 504.776L1462.34 506.584L1448.91 478.664ZM1468.1 478.664L1472.05 476.856L1485.48 504.776L1481.52 506.584L1468.1 478.664ZM1487.29 478.664L1491.24 476.856L1504.66 504.776L1500.71 506.584L1487.29 478.664ZM1506.47 478.664L1510.43 476.856L1523.85 504.776L1519.9 506.584L1506.47 478.664ZM1529.61 506.584L1525.66 504.776L1539.12 476.856L1543.04 478.664L1529.61 506.584ZM1545.54 508.952V504.984H1563.46V508.952H1545.54ZM1562.8 508.952V504.984H1580.73V508.952H1562.8ZM1583.22 478.664L1587.18 476.856L1600.6 504.776L1596.65 506.584L1583.22 478.664ZM1606.36 506.584L1602.41 504.776L1615.87 476.856L1619.79 478.664L1606.36 506.584ZM1621.6 478.664L1625.55 476.856L1638.98 504.776L1635.02 506.584L1621.6 478.664ZM1640.79 478.664L1644.74 476.856L1658.16 504.776L1654.21 506.584L1640.79 478.664ZM1659.97 478.664L1663.93 476.856L1677.35 504.776L1673.4 506.584L1659.97 478.664ZM1679.85 508.952V504.984H1697.77V508.952H1679.85ZM1697.12 508.952V504.984H1716.96V508.952H1697.12ZM1716.3 508.952V504.984H1736.15V508.952H1716.3ZM1735.49 508.952V504.984H1755.33V508.952H1735.49ZM1754.68 508.952V504.984H1774.52V508.952H1754.68ZM1773.87 508.952V504.984H1793.71V508.952H1773.87ZM1793.05 508.952V504.984H1812.9V508.952H1793.05ZM1812.24 508.952V504.984H1832.08V508.952H1812.24ZM1831.43 508.952V504.984H1849.35V508.952H1831.43ZM1855.8 506.584L1851.85 504.776L1865.31 476.856L1869.23 478.664L1855.8 506.584ZM1871.04 478.664L1874.99 476.856L1888.41 504.776L1884.46 506.584L1871.04 478.664ZM1890.22 478.664L1894.18 476.856L1907.6 504.776L1903.65 506.584L1890.22 478.664ZM1909.41 478.664L1913.36 476.856L1926.79 504.776L1922.84 506.584L1909.41 478.664ZM1928.6 478.664L1932.55 476.856L1945.98 504.776L1942.02 506.584L1928.6 478.664ZM1948.48 508.952V504.984H1966.4V508.952H1948.48ZM1965.74 508.952V504.984H1985.58V508.952H1965.74ZM1984.93 508.952V504.984H2004.77V508.952H1984.93ZM2004.12 508.952V504.984H2023.96V508.952H2004.12ZM2023.3 508.952V504.984H2041.23V508.952H2023.3ZM2043.72 478.664L2047.68 476.856L2061.1 504.776L2057.15 506.584L2043.72 478.664ZM2066.86 506.584L2062.91 504.776L2076.37 476.856L2080.29 478.664L2066.86 506.584ZM2082.1 478.664L2086.05 476.856L2099.48 504.776L2095.52 506.584L2082.1 478.664ZM2101.29 478.664L2105.24 476.856L2118.66 504.776L2114.71 506.584L2101.29 478.664ZM2120.47 478.664L2124.43 476.856L2137.85 504.776L2133.9 506.584L2120.47 478.664ZM2140.35 508.952V504.984H2158.27V508.952H2140.35ZM2157.62 508.952V504.984H2177.46V508.952H2157.62ZM2176.8 508.952V504.984H2194.73V508.952H2176.8ZM2197.22 478.664L2201.18 476.856L2214.6 504.776L2210.65 506.584L2197.22 478.664ZM2220.36 506.584L2216.41 504.776L2229.87 476.856L2233.79 478.664L2220.36 506.584ZM2235.6 478.664L2239.55 476.856L2252.98 504.776L2249.02 506.584L2235.6 478.664ZM2254.79 478.664L2258.74 476.856L2272.16 504.776L2268.21 506.584L2254.79 478.664ZM2273.97 478.664L2277.93 476.856L2291.35 504.776L2287.4 506.584L2273.97 478.664ZM2293.85 508.952V504.984H2309.85V508.952H2293.85ZM2312.35 478.664L2316.3 476.856L2329.73 504.776L2325.77 506.584L2312.35 478.664ZM2335.49 506.584L2331.54 504.776L2344.99 476.856L2348.91 478.664L2335.49 506.584ZM2350.72 478.664L2354.68 476.856L2368.1 504.776L2364.15 506.584L2350.72 478.664ZM2369.91 478.664L2373.86 476.856L2387.29 504.776L2383.34 506.584L2369.91 478.664ZM2389.1 478.664L2393.05 476.856L2406.48 504.776L2402.52 506.584L2389.1 478.664ZM2408.98 508.952V504.984H2426.9V508.952H2408.98ZM2426.24 508.952V504.984H2446.08V508.952H2426.24ZM2445.43 508.952V504.984H2463.35V508.952H2445.43ZM2465.85 478.664L2469.8 476.856L2483.23 504.776L2479.27 506.584L2465.85 478.664ZM2488.99 506.584L2485.04 504.776L2498.49 476.856L2502.41 478.664L2488.99 506.584ZM2504.22 478.664L2508.18 476.856L2521.6 504.776L2517.65 506.584L2504.22 478.664ZM2523.41 478.664L2527.36 476.856L2540.79 504.776L2536.84 506.584L2523.41 478.664ZM2542.6 478.664L2546.55 476.856L2559.98 504.776L2556.02 506.584L2542.6 478.664ZM2562.48 508.952V504.984H2578.48V508.952H2562.48ZM2580.97 478.664L2584.93 476.856L2598.35 504.776L2594.4 506.584L2580.97 478.664ZM2604.11 506.584L2600.16 504.776L2613.62 476.856L2617.54 478.664L2604.11 506.584ZM2619.35 478.664L2623.3 476.856L2636.73 504.776L2632.77 506.584L2619.35 478.664ZM2638.54 478.664L2642.49 476.856L2655.91 504.776L2651.96 506.584L2638.54 478.664ZM2657.72 478.664L2661.68 476.856L2675.1 504.776L2671.15 506.584L2657.72 478.664ZM2677.6 508.952V504.984H2695.52V508.952H2677.6ZM2694.87 508.952V504.984H2714.71V508.952H2694.87ZM2714.05 508.952V504.984H2731.98V508.952H2714.05ZM2734.47 478.664L2738.43 476.856L2751.85 504.776L2747.9 506.584L2734.47 478.664ZM2757.61 506.584L2753.66 504.776L2767.12 476.856L2771.04 478.664L2757.61 506.584ZM2772.85 478.664L2776.8 476.856L2790.23 504.776L2786.27 506.584L2772.85 478.664ZM2792.04 478.664L2795.99 476.856L2809.41 504.776L2805.46 506.584L2792.04 478.664ZM2811.22 478.664L2815.18 476.856L2828.6 504.776L2824.65 506.584L2811.22 478.664ZM2831.1 508.952V504.984H2849.02V508.952H2831.1ZM2848.37 508.952V504.984H2868.21V508.952H2848.37ZM2867.55 508.952V504.984H2887.4V508.952H2867.55ZM2886.74 508.952V504.984H2906.58V508.952H2886.74ZM2905.93 508.952V504.984H2925.77V508.952H2905.93ZM2925.12 508.952V504.984H2943.04V508.952H2925.12ZM2945.54 478.664L2949.49 476.856L2962.91 504.776L2958.96 506.584L2945.54 478.664ZM700.6 520.664L704.552 518.856L717.976 546.776L714.024 548.584L700.6 520.664ZM720.475 550.952V546.984H738.395V550.952H720.475ZM737.742 550.952V546.984H757.583V550.952H737.742ZM756.93 550.952V546.984H776.77V550.952H756.93ZM776.117 550.952V546.984H794.038V550.952H776.117ZM796.537 520.664L800.489 518.856L813.913 546.776L809.961 548.584L796.537 520.664ZM819.677 548.584L815.725 546.776L829.181 518.856L833.101 520.664L819.677 548.584ZM838.864 548.584L834.912 546.776L848.368 518.856L852.288 520.664L838.864 548.584ZM858.052 548.584L854.1 546.776L867.556 518.856L871.476 520.664L858.052 548.584ZM877.239 548.584L873.287 546.776L886.743 518.856L890.663 520.664L877.239 548.584ZM896.427 548.584L892.475 546.776L905.931 518.856L909.851 520.664L896.427 548.584ZM915.614 548.584L911.662 546.776L925.118 518.856L929.038 520.664L915.614 548.584ZM934.802 548.584L930.85 546.776L944.306 518.856L948.226 520.664L934.802 548.584ZM953.989 548.584L950.037 546.776L963.493 518.856L967.413 520.664L953.989 548.584ZM969.225 520.664L973.177 518.856L986.601 546.776L982.649 548.584L969.225 520.664ZM988.412 520.664L992.364 518.856L1005.79 546.776L1001.84 548.584L988.412 520.664ZM1007.6 520.664L1011.55 518.856L1024.98 546.776L1021.02 548.584L1007.6 520.664ZM1027.48 550.952V546.984H1045.4V550.952H1027.48ZM1044.74 550.952V546.984H1064.58V550.952H1044.74ZM1063.93 550.952V546.984H1083.77V550.952H1063.93ZM1083.12 550.952V546.984H1102.96V550.952H1083.12ZM1102.3 550.952V546.984H1122.15V550.952H1102.3ZM1121.49 550.952V546.984H1141.33V550.952H1121.49ZM1140.68 550.952V546.984H1160.52V550.952H1140.68ZM1159.87 550.952V546.984H1179.71V550.952H1159.87ZM1179.05 550.952V546.984H1198.9V550.952H1179.05ZM1198.24 550.952V546.984H1218.08V550.952H1198.24ZM1217.43 550.952V546.984H1237.27V550.952H1217.43ZM1236.62 550.952V546.984H1256.46V550.952H1236.62ZM1255.8 550.952V546.984H1273.73V550.952H1255.8ZM1276.22 520.664L1280.18 518.856L1293.6 546.776L1289.65 548.584L1276.22 520.664ZM1299.36 548.584L1295.41 546.776L1308.87 518.856L1312.79 520.664L1299.36 548.584ZM1318.55 548.584L1314.6 546.776L1328.06 518.856L1331.98 520.664L1318.55 548.584ZM1337.74 548.584L1333.79 546.776L1347.24 518.856L1351.16 520.664L1337.74 548.584ZM1356.93 548.584L1352.97 546.776L1366.43 518.856L1370.35 520.664L1356.93 548.584ZM1376.11 548.584L1372.16 546.776L1385.62 518.856L1389.54 520.664L1376.11 548.584ZM1395.3 548.584L1391.35 546.776L1404.81 518.856L1408.73 520.664L1395.3 548.584ZM1414.49 548.584L1410.54 546.776L1423.99 518.856L1427.91 520.664L1414.49 548.584ZM1433.68 548.584L1429.72 546.776L1443.18 518.856L1447.1 520.664L1433.68 548.584ZM1452.86 548.584L1448.91 546.776L1462.37 518.856L1466.29 520.664L1452.86 548.584ZM1472.05 548.584L1468.1 546.776L1481.56 518.856L1485.48 520.664L1472.05 548.584ZM1491.24 548.584L1487.29 546.776L1500.74 518.856L1504.66 520.664L1491.24 548.584ZM1510.43 548.584L1506.47 546.776L1519.93 518.856L1523.85 520.664L1510.43 548.584ZM1526.35 550.952V546.984H1544.27V550.952H1526.35ZM1543.62 550.952V546.984H1563.46V550.952H1543.62ZM1562.8 550.952V546.984H1582.65V550.952H1562.8ZM1581.99 550.952V546.984H1599.91V550.952H1581.99ZM1602.41 520.664L1606.36 518.856L1619.79 546.776L1615.84 548.584L1602.41 520.664ZM1625.55 548.584L1621.6 546.776L1635.06 518.856L1638.98 520.664L1625.55 548.584ZM1640.79 520.664L1644.74 518.856L1658.16 546.776L1654.21 548.584L1640.79 520.664ZM1659.97 520.664L1663.93 518.856L1677.35 546.776L1673.4 548.584L1659.97 520.664ZM1679.16 520.664L1683.11 518.856L1696.54 546.776L1692.59 548.584L1679.16 520.664ZM1699.04 550.952V546.984H1716.96V550.952H1699.04ZM1716.3 550.952V546.984H1736.15V550.952H1716.3ZM1735.49 550.952V546.984H1755.33V550.952H1735.49ZM1754.68 550.952V546.984H1774.52V550.952H1754.68ZM1773.87 550.952V546.984H1791.79V550.952H1773.87ZM1798.24 548.584L1794.29 546.776L1807.74 518.856L1811.66 520.664L1798.24 548.584ZM1813.47 520.664L1817.43 518.856L1830.85 546.776L1826.9 548.584L1813.47 520.664ZM1832.66 520.664L1836.61 518.856L1850.04 546.776L1846.09 548.584L1832.66 520.664ZM1851.85 520.664L1855.8 518.856L1869.23 546.776L1865.27 548.584L1851.85 520.664ZM1871.04 520.664L1874.99 518.856L1888.41 546.776L1884.46 548.584L1871.04 520.664ZM1890.22 520.664L1894.18 518.856L1907.6 546.776L1903.65 548.584L1890.22 520.664ZM1909.41 520.664L1913.36 518.856L1926.79 546.776L1922.84 548.584L1909.41 520.664ZM1932.55 548.584L1928.6 546.776L1942.06 518.856L1945.98 520.664L1932.55 548.584ZM1948.48 550.952V546.984H1966.4V550.952H1948.48ZM1965.74 550.952V546.984H1985.58V550.952H1965.74ZM1984.93 550.952V546.984H2004.77V550.952H1984.93ZM2004.12 550.952V546.984H2023.96V550.952H2004.12ZM2023.3 550.952V546.984H2043.15V550.952H2023.3ZM2042.49 550.952V546.984H2060.41V550.952H2042.49ZM2062.91 520.664L2066.86 518.856L2080.29 546.776L2076.34 548.584L2062.91 520.664ZM2121.23 548.584L2117.27 546.776L2130.73 518.856L2134.65 520.664L2121.23 548.584ZM2089.23 548.584L2085.27 546.776L2098.73 518.856L2102.65 520.664L2089.23 548.584ZM2105.23 548.584L2101.27 546.776L2114.73 518.856L2118.65 520.664L2105.23 548.584ZM2140.35 550.952V546.984H2158.27V550.952H2140.35ZM2157.62 550.952V546.984H2177.46V550.952H2157.62ZM2176.8 550.952V546.984H2196.65V550.952H2176.8ZM2195.99 550.952V546.984H2213.91V550.952H2195.99ZM2216.41 520.664L2220.36 518.856L2233.79 546.776L2229.84 548.584L2216.41 520.664ZM2274.73 548.584L2270.77 546.776L2284.23 518.856L2288.15 520.664L2274.73 548.584ZM2242.73 548.584L2238.77 546.776L2252.23 518.856L2256.15 520.664L2242.73 548.584ZM2258.73 548.584L2254.77 546.776L2268.23 518.856L2272.15 520.664L2258.73 548.584ZM2293.85 550.952V546.984H2311.77V550.952H2293.85ZM2311.12 550.952V546.984H2329.04V550.952H2311.12ZM2331.54 520.664L2335.49 518.856L2348.91 546.776L2344.96 548.584L2331.54 520.664ZM2389.85 548.584L2385.9 546.776L2399.36 518.856L2403.28 520.664L2389.85 548.584ZM2357.85 548.584L2353.9 546.776L2367.36 518.856L2371.28 520.664L2357.85 548.584ZM2373.85 548.584L2369.9 546.776L2383.36 518.856L2387.28 520.664L2373.85 548.584ZM2408.98 550.952V546.984H2426.9V550.952H2408.98ZM2426.24 550.952V546.984H2446.08V550.952H2426.24ZM2445.43 550.952V546.984H2465.27V550.952H2445.43ZM2464.62 550.952V546.984H2482.54V550.952H2464.62ZM2485.04 520.664L2488.99 518.856L2502.41 546.776L2498.46 548.584L2485.04 520.664ZM2543.35 548.584L2539.4 546.776L2552.86 518.856L2556.78 520.664L2543.35 548.584ZM2511.35 548.584L2507.4 546.776L2520.86 518.856L2524.78 520.664L2511.35 548.584ZM2527.35 548.584L2523.4 546.776L2536.86 518.856L2540.78 520.664L2527.35 548.584ZM2562.48 550.952V546.984H2580.4V550.952H2562.48ZM2579.74 550.952V546.984H2597.66V550.952H2579.74ZM2600.16 520.664L2604.11 518.856L2617.54 546.776L2613.59 548.584L2600.16 520.664ZM2658.48 548.584L2654.52 546.776L2667.98 518.856L2671.9 520.664L2658.48 548.584ZM2626.48 548.584L2622.52 546.776L2635.98 518.856L2639.9 520.664L2626.48 548.584ZM2642.48 548.584L2638.52 546.776L2651.98 518.856L2655.9 520.664L2642.48 548.584ZM2677.6 550.952V546.984H2695.52V550.952H2677.6ZM2694.87 550.952V546.984H2714.71V550.952H2694.87ZM2714.05 550.952V546.984H2733.9V550.952H2714.05ZM2733.24 550.952V546.984H2751.16V550.952H2733.24ZM2753.66 520.664L2757.61 518.856L2771.04 546.776L2767.09 548.584L2753.66 520.664ZM2811.98 548.584L2808.02 546.776L2821.48 518.856L2825.4 520.664L2811.98 548.584ZM2779.98 548.584L2776.02 546.776L2789.48 518.856L2793.4 520.664L2779.98 548.584ZM2795.98 548.584L2792.02 546.776L2805.48 518.856L2809.4 520.664L2795.98 548.584ZM2831.1 550.952V546.984H2849.02V550.952H2831.1ZM2848.37 550.952V546.984H2868.21V550.952H2848.37ZM2867.55 550.952V546.984H2887.4V550.952H2867.55ZM2886.74 550.952V546.984H2906.58V550.952H2886.74ZM2905.93 550.952V546.984H2925.77V550.952H2905.93ZM2925.12 550.952V546.984H2944.96V550.952H2925.12ZM2944.3 550.952V546.984H2962.23V550.952H2944.3ZM2964.72 520.664L2968.68 518.856L2982.1 546.776L2978.15 548.584L2964.72 520.664ZM858.052 590.584L854.1 588.776L867.556 560.856L871.476 562.664L858.052 590.584ZM873.287 562.664L877.239 560.856L890.663 588.776L886.711 590.584L873.287 562.664ZM892.475 562.664L896.427 560.856L909.851 588.776L905.899 590.584L892.475 562.664ZM911.662 562.664L915.614 560.856L929.038 588.776L925.086 590.584L911.662 562.664ZM950.037 562.664L953.989 560.856L967.413 588.776L963.461 590.584L950.037 562.664ZM973.177 590.584L969.225 588.776L982.681 560.856L986.601 562.664L973.177 590.584ZM988.412 562.664L992.364 560.856L1005.79 588.776L1001.84 590.584L988.412 562.664ZM1007.6 562.664L1011.55 560.856L1024.98 588.776L1021.02 590.584L1007.6 562.664ZM1026.79 562.664L1030.74 560.856L1044.16 588.776L1040.21 590.584L1026.79 562.664ZM1621.6 562.664L1625.55 560.856L1638.98 588.776L1635.02 590.584L1621.6 562.664ZM1644.74 590.584L1640.79 588.776L1654.24 560.856L1658.16 562.664L1644.74 590.584ZM1659.97 562.664L1663.93 560.856L1677.35 588.776L1673.4 590.584L1659.97 562.664ZM1679.16 562.664L1683.11 560.856L1696.54 588.776L1692.59 590.584L1679.16 562.664ZM1698.35 562.664L1702.3 560.856L1715.73 588.776L1711.77 590.584L1698.35 562.664ZM1794.29 562.664L1798.24 560.856L1811.66 588.776L1807.71 590.584L1794.29 562.664ZM1817.43 590.584L1813.47 588.776L1826.93 560.856L1830.85 562.664L1817.43 590.584ZM1836.61 590.584L1832.66 588.776L1846.12 560.856L1850.04 562.664L1836.61 590.584ZM1855.8 590.584L1851.85 588.776L1865.31 560.856L1869.23 562.664L1855.8 590.584ZM1874.99 590.584L1871.04 588.776L1884.49 560.856L1888.41 562.664L1874.99 590.584ZM1894.18 590.584L1890.22 588.776L1903.68 560.856L1907.6 562.664L1894.18 590.584ZM1913.36 590.584L1909.41 588.776L1922.87 560.856L1926.79 562.664L1913.36 590.584ZM838.864 632.584L834.912 630.776L848.368 602.856L852.288 604.664L838.864 632.584ZM854.1 604.664L858.052 602.856L871.476 630.776L867.524 632.584L854.1 604.664ZM873.287 604.664L877.239 602.856L890.663 630.776L886.711 632.584L873.287 604.664ZM892.475 604.664L896.427 602.856L909.851 630.776L905.899 632.584L892.475 604.664ZM911.662 604.664L915.614 602.856L929.038 630.776L925.086 632.584L911.662 604.664ZM930.85 604.664L934.802 602.856L948.226 630.776L944.274 632.584L930.85 604.664ZM950.037 604.664L953.989 602.856L967.413 630.776L963.461 632.584L950.037 604.664ZM969.225 604.664L973.177 602.856L986.601 630.776L982.649 632.584L969.225 604.664ZM988.412 604.664L992.364 602.856L1005.79 630.776L1001.84 632.584L988.412 604.664ZM1007.6 604.664L1011.55 602.856L1024.98 630.776L1021.02 632.584L1007.6 604.664ZM1026.79 604.664L1030.74 602.856L1044.16 630.776L1040.21 632.584L1026.79 604.664ZM1640.79 604.664L1644.74 602.856L1658.16 630.776L1654.21 632.584L1640.79 604.664ZM1699.1 632.584L1695.15 630.776L1708.61 602.856L1712.53 604.664L1699.1 632.584ZM1667.1 632.584L1663.15 630.776L1676.61 602.856L1680.53 604.664L1667.1 632.584ZM1683.1 632.584L1679.15 630.776L1692.61 602.856L1696.53 604.664L1683.1 632.584ZM834.912 646.664L838.864 644.856L852.288 672.776L848.336 674.584L834.912 646.664ZM858.052 674.584L854.1 672.776L867.556 644.856L871.476 646.664L858.052 674.584ZM873.287 646.664L877.239 644.856L890.663 672.776L886.711 674.584L873.287 646.664ZM892.475 646.664L896.427 644.856L909.851 672.776L905.899 674.584L892.475 646.664ZM911.662 646.664L915.614 644.856L929.038 672.776L925.086 674.584L911.662 646.664ZM930.85 646.664L934.802 644.856L948.226 672.776L944.274 674.584L930.85 646.664ZM950.037 646.664L953.989 644.856L967.413 672.776L963.461 674.584L950.037 646.664ZM1008.35 674.584L1004.4 672.776L1017.86 644.856L1021.78 646.664L1008.35 674.584ZM976.351 674.584L972.399 672.776L985.855 644.856L989.775 646.664L976.351 674.584ZM992.351 674.584L988.399 672.776L1001.86 644.856L1005.78 646.664L992.351 674.584ZM854.1 688.664L858.052 686.856L871.476 714.776L867.524 716.584L854.1 688.664ZM877.239 716.584L873.287 714.776L886.743 686.856L890.663 688.664L877.239 716.584ZM896.427 716.584L892.475 714.776L905.931 686.856L909.851 688.664L896.427 716.584ZM915.614 716.584L911.662 714.776L925.118 686.856L929.038 688.664L915.614 716.584ZM934.802 716.584L930.85 714.776L944.306 686.856L948.226 688.664L934.802 716.584ZM953.989 716.584L950.037 714.776L963.493 686.856L967.413 688.664L953.989 716.584Z" fill="white"/>
</svg>
